<?xml version="1.0" standalone="no"?>
<!DOCTYPE svg PUBLIC "-//W3C//DTD SVG 1.1//EN" "http://www.w3.org/Graphics/SVG/1.1/DTD/svg11.dtd" >
<svg>
<metadata>
Created by FontForge 20120731 at Fri Sep  2 11:41:15 2016
 By ,,,
Copyright (c) 1999, 2006 Nick Curtis. All Rights Reserved. Distributed under non-exclusive license by 1001 Free Fonts.
</metadata>
<defs>
<font id="PleasinglyPlumpNF" horiz-adv-x="726" >
  <font-face 
    font-family="Pleasingly Plump NF"
    font-weight="400"
    font-stretch="normal"
    units-per-em="1000"
    panose-1="2 8 9 3 8 3 5 2 3 4"
    ascent="807"
    descent="-193"
    x-height="730"
    cap-height="726"
    bbox="-20 -244 1368 1045"
    underline-thickness="50"
    underline-position="-30"
    unicode-range="U+0020-2212"
  />
<missing-glyph horiz-adv-x="311" 
 />
    <glyph glyph-name=".notdef" horiz-adv-x="311" 
 />
    <glyph glyph-name="quotedbl" unicode="&#x22;" horiz-adv-x="333" 
d="M117 534h-61l-40 230h141zM277 534h-61l-40 230h141z" />
    <glyph glyph-name="numbersign" unicode="#" horiz-adv-x="785" 
d="M725 415h-122l-42 -122h125l-43 -115h-125l-64 -179h-124l64 179h-128l-64 -179h-124l64 179h-126l43 115h124l41 122h-125l42 116h126l63 179h125l-63 -179h127l63 179h125l-63 -179h125zM347 415l-43 -122h133l44 122h-134z" />
    <glyph glyph-name="dollar" unicode="$" horiz-adv-x="479" 
d="M258 582q-12 0 -22.5 -9t-10.5 -22t9 -20q46 -35 91 -67.5t84 -74.5q26 -28 37.5 -61t11.5 -71q0 -36 -15.5 -67t-41 -55t-57.5 -40t-65 -22v-76q0 -16 -11 -27t-27 -11t-27.5 11.5t-11.5 27.5v72q-29 2 -59 7.5t-56 19.5q-3 -11 -12 -19t-21 -8q-20 0 -29 11.5t-9 30.5
q0 32 2 65t10 65q4 14 14.5 20.5t24.5 6.5t22.5 -8t8.5 -28q0 -13 -2 -26.5t-4 -26.5q14 -9 26 -16t24 -11.5t25.5 -6.5t30.5 -2q22 0 33 16t11 36q0 19 -16.5 37.5t-41.5 38.5t-53.5 43t-53.5 50t-41.5 59t-16.5 71q0 40 15 70t40 50.5t58 31.5t70 14v45q0 22 6.5 37
t32.5 15t32 -15.5t6 -37.5v-48q29 -6 56 -16.5t50 -28.5q4 20 11.5 34t31.5 14q14 -1 24.5 -12t10.5 -22t-6 -30.5t-14 -40t-16.5 -39.5t-14.5 -30q-5 -10 -13 -13.5t-19 -3.5q-16 0 -26 11.5t-10 26.5q0 9 3.5 14.5t7.5 16.5q-12 12 -22 20.5t-20.5 14t-23.5 7.5t-31 2z
" />
    <glyph glyph-name="percent" unicode="%" horiz-adv-x="790" 
d="M399 515q-11 -2 -22.5 -3t-22.5 -1q-7 0 -13 0.5t-12 1.5v-9q0 -41 -9.5 -78.5t-29 -67t-48 -47t-66.5 -17.5t-66.5 17.5t-47.5 47t-28.5 67t-9.5 78.5t9.5 79t28.5 67t47.5 46.5t66.5 17.5q45 0 83 -29q21 -16 45 -23.5t50 -7.5q29 0 51 8t40.5 23t34.5 36t32 47h140
l-357 -771h-136zM176 572q-11 0 -17.5 -7t-9.5 -17.5t-4 -22t-1 -21.5t1 -21.5t4 -22t9.5 -17.5t17.5 -7t17.5 7t10 17.5t4.5 22t1 21.5t-1 21.5t-4.5 22t-10 17.5t-17.5 7zM614 424q38 0 66.5 -17.5t47.5 -47t28.5 -67.5t9.5 -78q0 -41 -9.5 -78.5t-28.5 -66.5t-47.5 -46.5
t-66.5 -17.5t-66.5 17.5t-48 46.5t-29 66.5t-9.5 78.5q0 40 9.5 78t29 67.5t48 47t66.5 17.5zM614 282q-11 0 -17.5 -7t-10 -17.5t-4.5 -22t-1 -21.5t1 -21.5t4.5 -22t10 -17.5t17.5 -7t17.5 7t9.5 17.5t4 22t1 21.5t-1 21.5t-4 22t-9.5 17.5t-17.5 7z" />
    <glyph glyph-name="ampersand" unicode="&#x26;" horiz-adv-x="783" 
d="M767 63q0 -17 -11 -30t-28 -17q-54 -12 -111.5 -21t-119.5 -9q-17 0 -35 1t-34.5 6.5t-28 16t-14.5 29.5q-35 -23 -76.5 -35.5t-83.5 -12.5q-43 0 -81 13.5t-66.5 39t-45 61t-16.5 80.5q0 37 12.5 72t33.5 65.5t49.5 55t60.5 40.5q-20 33 -34.5 59.5t-14.5 65.5
q0 45 20 81.5t52.5 62.5t73.5 40t82 14q32 0 63.5 -9t56.5 -27t40.5 -45t15.5 -63q0 -45 -28 -82t-65 -60l56 -94q5 8 7.5 15.5t4.5 15.5q-16 4 -26.5 16.5t-10.5 29.5q0 19 9 29.5t23.5 16t31.5 7t33 1.5h40q15 0 31 -1.5t28.5 -6.5t21 -15.5t8.5 -29.5q0 -20 -16 -32.5
t-37 -12.5h-37q-6 -35 -19.5 -66.5t-36.5 -58.5l112 -168q14 2 31 6t31 4q20 0 34 -14t14 -34zM329 142q-21 38 -42.5 76.5t-44.5 75.5q-11 -19 -18.5 -40t-7.5 -44q0 -15 4 -30t12 -26.5t21 -18.5t30 -7q13 0 24 4.5t22 9.5zM432 599q0 12 -7 20.5t-17.5 14t-22.5 8
t-21 2.5q-21 0 -21 -19q0 -10 4.5 -21.5t11 -23.5t13.5 -23t13 -19q15 8 31 25t16 36z" />
    <glyph glyph-name="quotesingle" unicode="'" horiz-adv-x="173" 
d="M117 534h-61l-40 230h141z" />
    <glyph glyph-name="parenleft" unicode="(" horiz-adv-x="452" 
d="M435 696q0 -8 -17 -23t-39 -31t-43 -30t-28 -20q-31 -23 -57 -50.5t-49 -58.5q-29 -38 -39 -84t-10 -93q0 -78 20.5 -135.5t52 -99.5t67.5 -71.5t67.5 -52t52 -40.5t20.5 -36t-13.5 -25t-28.5 -7q-24 0 -50.5 7.5t-52.5 19.5t-50 26.5t-43 28.5q-95 71 -137 162.5
t-42 209.5q0 124 53 225t158 167q33 21 75.5 38.5t82.5 17.5q22 0 36.5 -9t14.5 -33z" />
    <glyph glyph-name="parenright" unicode=")" horiz-adv-x="452" 
d="M436 293q0 -118 -42 -209.5t-137 -162.5q-19 -14 -43 -28.5t-50 -26.5t-52.5 -19.5t-50.5 -7.5q-15 0 -28.5 7t-13.5 25t20.5 36t52 40.5t67.5 52t67.5 71.5t52 99.5t20.5 135.5q0 93 -40 161t-115 125q-8 6 -28.5 20t-43 30.5t-39.5 32.5t-17 26q0 23 15.5 31.5
t35.5 8.5q40 0 82.5 -17.5t75.5 -38.5q105 -66 158 -167t53 -225z" />
    <glyph glyph-name="asterisk" unicode="*" horiz-adv-x="463" 
d="M447 563q0 -29 -19.5 -49.5t-49.5 -20.5q-17 0 -32.5 6.5t-32.5 6.5q-7 0 -12 -2t-5 -10q0 -10 15.5 -15.5t33.5 -13.5t33.5 -22.5t15.5 -42.5q0 -15 -6.5 -29t-17.5 -24t-25 -16t-29 -6q-28 0 -48.5 20.5t-20.5 48.5q0 4 0.5 8t0.5 11q0 11 -2.5 24t-14.5 13
q-9 0 -12 -9.5t-4 -23t-3 -30t-8.5 -30t-20 -23t-38.5 -9.5q-15 0 -28.5 6t-24.5 16t-17.5 23.5t-6.5 28.5q0 28 15 42.5t33.5 22.5t33.5 14t15 17q0 8 -4 10t-11 2q-17 0 -32.5 -7t-32.5 -7q-30 0 -49.5 19.5t-19.5 49.5q0 32 19 55t52 23q22 0 36 -10.5t24.5 -22.5
t18.5 -22.5t18 -10.5q11 0 11 10t-6 20t-13.5 20.5t-13.5 22t-6 26.5q0 32 22 50.5t53 18.5t53 -18.5t22 -50.5q0 -15 -6 -27t-13.5 -22.5t-13.5 -19.5t-6 -18q0 -5 4.5 -8.5t9.5 -3.5q8 0 16 10.5t18.5 23t24.5 23t35 10.5q32 0 52 -23.5t20 -54.5z" />
    <glyph glyph-name="plus" unicode="+" horiz-adv-x="584" 
d="M344 248v-232h-104v232h-224v100h224v231h104v-231h224v-100h-224z" />
    <glyph glyph-name="comma" unicode="," horiz-adv-x="272" 
d="M140 -109q-14 0 -24 8.5t-10 22.5q0 9 7 16t15.5 14.5t15.5 16.5t7 21q0 2 -4.5 2h-5.5q-18 0 -40 4.5t-41 15t-31.5 26t-12.5 38.5q0 22 12.5 38t31.5 26.5t41 15t40 4.5q20 0 40.5 -5.5t37 -17.5t27 -31t10.5 -45q0 -35 -11 -66t-28 -54t-37.5 -36.5t-39.5 -13.5z" />
    <glyph glyph-name="hyphen" unicode="-" horiz-adv-x="312" 
d="M16 294v98h280v-98h-280z" />
    <glyph glyph-name="period" unicode="." horiz-adv-x="267" 
d="M251 85q0 -21 -11.5 -36.5t-29 -25.5t-38 -15t-38.5 -5t-38.5 5t-38 15t-29.5 25.5t-12 36.5t12 36.5t29.5 25.5t38 15t38.5 5t38.5 -5t38 -15t29 -25.5t11.5 -36.5z" />
    <glyph glyph-name="slash" unicode="/" horiz-adv-x="347" 
d="M73 -114q-22 0 -39.5 12.5t-17.5 36.5q0 6 2 14l200 779q5 20 21.5 32.5t36.5 12.5q23 0 39 -11t16 -35q0 -6 -2 -16l-200 -783q-5 -20 -20.5 -31t-35.5 -11z" />
    <glyph glyph-name="zero" unicode="0" horiz-adv-x="694" 
d="M678 359q0 -71 -23.5 -137.5t-67 -118.5t-104.5 -83.5t-136 -31.5t-136 31.5t-104.5 83.5t-67 119t-23.5 137t23.5 137t67 119t104.5 84t136 32t136 -31.5t104.5 -84t67 -119.5t23.5 -137zM446 607q-14 0 -31.5 -25t-36.5 -63.5t-38 -85t-34.5 -89.5t-26.5 -77t-14 -48
q-6 -24 -11.5 -49t-5.5 -50q0 -5 1 -13.5t8 -11.5q14 0 32 25t37 63.5t37.5 85t34.5 89.5t26.5 77t14.5 48q6 24 11.5 49t5.5 50q0 5 -1 15t-9 10z" />
    <glyph glyph-name="one" unicode="1" horiz-adv-x="494" 
d="M478 46q0 -22 -25 -34t-59.5 -18t-69.5 -7t-56 -1q-42 0 -84 3t-83 11q-17 3 -28 17.5t-11 34.5q0 19 15.5 31.5t34.5 12.5q2 -2 8.5 -2.5t9.5 -1.5q-5 60 -7 120t-2 120q0 50 1.5 99t3.5 99q-15 -9 -31 -20.5t-33 -11.5q-20 0 -33 15.5t-13 33.5q0 12 6 22t15 17
q14 10 38.5 24.5t54.5 29.5t62.5 29.5t63 26.5t56.5 19t43 7t31 -10t18 -27q6 -32 10 -76.5t5.5 -92.5t2 -94t0.5 -82q0 -63 -2.5 -124.5t-7.5 -124.5q4 1 7.5 2t7.5 1q22 0 36.5 -13t14.5 -35z" />
    <glyph glyph-name="two" unicode="2" horiz-adv-x="584" 
d="M440 -67q-20 0 -32 17t-12 35q0 2 2 6.5t4 8.5q-26 -2 -55 -3.5t-78 -1.5q-51 0 -102 2t-100 10q-24 5 -37.5 29.5t-13.5 47.5q0 25 16 40t39.5 39.5t49.5 55t52 64.5t46.5 67t33 62t12.5 51q0 18 -3.5 38.5t-12.5 38t-24 29t-37 11.5q-17 0 -34.5 -8t-25.5 -24
q-8 -11 -18 -22.5t-25 -11.5q-19 0 -35 12.5t-16 32.5q0 17 9.5 34.5t20.5 30.5q40 47 97.5 74.5t119.5 27.5q50 0 96 -13.5t81 -41t56 -69t21 -96.5q0 -44 -20 -86.5t-50.5 -81t-66 -73t-66.5 -63.5q35 2 69 4t69 5q2 12 3.5 24t6 21.5t13.5 16t26 6.5q20 0 34.5 -13.5
t14.5 -34.5q0 -16 -3.5 -44t-10.5 -61t-17.5 -67.5t-25 -62.5t-32.5 -45.5t-39 -17.5z" />
    <glyph glyph-name="three" unicode="3" horiz-adv-x="592" 
d="M576 213q0 -56 -26 -100t-67.5 -74t-92.5 -45.5t-101 -15.5q-39 0 -79.5 9.5t-76.5 28t-65.5 46.5t-46.5 66q-5 12 -5 22q0 20 15 33t34 13t34 -17t30.5 -37t34.5 -37t47 -17q18 0 29.5 14.5t18 34.5t9.5 41t3 34q0 54 -11.5 82t-28.5 41t-37 16t-37 6t-28.5 11.5
t-11.5 32.5q0 20 14.5 34t37.5 14q6 0 12.5 -0.5t12.5 -0.5q15 0 25 8t16.5 20t9 26.5t2.5 28.5q0 10 -1 23.5t-5 24.5t-11.5 19t-20.5 8q-15 0 -25.5 -11t-20.5 -23.5t-22 -23.5t-31 -11q-14 0 -24 10t-10 24q0 35 22 62.5t55 47t71 30t70 10.5q40 0 82 -11.5t76.5 -34.5
t56.5 -57.5t22 -80.5q0 -41 -21 -75.5t-53 -57.5q52 -31 85.5 -80t33.5 -111z" />
    <glyph glyph-name="four" unicode="4" horiz-adv-x="659" 
d="M643 240q0 -16 -9 -25t-22 -14t-28 -7t-27 -4q0 -26 -1.5 -52.5t-4.5 -51.5q5 0 10 2t11 2q20 0 34 -14t14 -34q0 -17 -11 -29.5t-28 -16.5q-42 -9 -85 -11.5t-86 -2.5q-15 0 -46.5 0.5t-64.5 3.5t-61 9.5t-37 17.5q-11 12 -11 31q0 20 14 34t35 14q1 0 5 -1t9.5 -2
t10 -2t6.5 -1q-1 43 -6 89q-52 2 -103.5 4.5t-102.5 10.5q-21 3 -31.5 17.5t-10.5 34.5q0 5 2.5 10t4.5 10q67 110 130.5 220.5t130.5 220.5q6 10 23.5 16t38 9.5t40 4.5t30.5 1q13 0 34.5 -1.5t42 -7t36 -15.5t17.5 -28q15 -156 15 -313v-41t-1 -41q9 1 17.5 2t17.5 1
q48 0 48 -50zM144 277q58 -5 117 -6q0 13 -0.5 26t-0.5 26v35q0 61 3 121z" />
    <glyph glyph-name="five" unicode="5" horiz-adv-x="580" 
d="M564 229q0 -56 -26.5 -104t-68.5 -83t-95 -54.5t-106 -19.5q-66 0 -118.5 16t-100.5 64q-11 11 -22 23.5t-11 28.5q0 20 16 34.5t35 14.5q15 0 28.5 -13t29.5 -28t37 -28t52 -13q21 0 40 9.5t33.5 25.5t23.5 36t9 40q0 51 -25 81.5t-79 30.5q-20 0 -37.5 -5t-32 -11.5
t-26 -11.5t-20.5 -5q-23 0 -35.5 16.5t-12.5 36.5q0 4 5 30t12.5 63.5t17 80.5t17.5 82t14.5 68.5t8.5 38.5q3 15 14 26q8 8 33 12.5t54 6.5t56.5 2.5t40.5 0.5q55 0 111 -6q2 20 15 34t34 14q23 0 35 -13.5t12 -35.5q0 -10 -1 -29.5t-3.5 -43t-7 -47.5t-12.5 -44t-19 -32.5
t-27 -12.5q-9 0 -14.5 2t-13.5 5q-4 1 -17.5 2t-34 2t-46.5 1h-54q-23 0 -46 -1t-45 -5l-8 -38q23 8 47.5 11t49.5 3q57 0 108.5 -17.5t90.5 -51t62 -81.5t23 -108z" />
    <glyph glyph-name="six" unicode="6" horiz-adv-x="644" 
d="M628 269q0 -62 -20 -115.5t-57 -92.5t-88.5 -61t-115.5 -22q-81 0 -142.5 29.5t-103.5 80t-63.5 118t-21.5 143.5q0 70 23.5 137t66.5 119t103.5 84t135.5 32q17 0 48.5 -4t62 -14t53.5 -27.5t23 -43.5q0 -20 -13.5 -34.5t-34.5 -14.5q-11 0 -21 5.5t-21 11.5t-22.5 11.5
t-25.5 5.5q-23 0 -39 -20t-25 -38q10 2 20 2.5t20 0.5q59 0 107 -25t81.5 -66.5t51.5 -94t18 -107.5zM358 269q0 13 -1.5 41t-7.5 56t-18.5 49.5t-33.5 23.5q-6 -45 -6 -90q0 -23 0.5 -59t3.5 -74t9.5 -72t17.5 -53q12 15 19 37.5t11 47.5t5 50t1 43z" />
    <glyph glyph-name="seven" unicode="7" horiz-adv-x="588" 
d="M391 67q5 1 14 1q21 0 35.5 -13t14.5 -35q0 -23 -24.5 -35t-57.5 -17.5t-65.5 -6.5t-48.5 -1q-50 0 -98.5 3.5t-97.5 13.5q20 72 42 139.5t50.5 130.5t67 122t91.5 114q-9 0 -18.5 0.5t-18.5 0.5q-76 0 -151 -6q2 -5 3 -9.5t1 -10.5q0 -20 -14 -33.5t-34 -13.5
q-16 0 -28 9t-19 32t-11.5 50.5t-6 54.5t-1.5 45q0 15 0.5 37.5t3 44.5t7.5 40t14 26q15 12 34 12q20 0 32.5 -15t12.5 -34q42 5 82 6.5t82 1.5h33t49 -0.5t57 -1.5t56 -3t45 -5t26 -7q11 -6 16.5 -17t5.5 -23q0 -11 -5 -21q-26 -59 -53.5 -115t-50.5 -116q-14 -34 -27 -73
t-23 -79.5t-16 -81t-6 -78.5v-33z" />
    <glyph glyph-name="eight" unicode="8" horiz-adv-x="647" 
d="M312 -22q-54 0 -107.5 11.5t-96.5 45.5q-38 30 -65 70.5t-27 91.5q0 60 33 106.5t86 72.5q-35 32 -58 69t-23 86q0 52 23.5 89.5t61 62t84 36.5t91.5 12q36 0 79 -9.5t79.5 -29.5t61 -51.5t24.5 -75.5q0 -37 -20.5 -66.5t-49.5 -49.5q27 -20 52.5 -42.5t46 -49t32.5 -57
t12 -66.5q0 -66 -28 -114.5t-73 -80t-102 -46.5t-116 -15zM319 178q0 9 -1.5 31.5t-6 46t-13 41t-21.5 17.5q-14 0 -22 -17.5t-13 -40.5t-6.5 -45.5t-1.5 -32.5t1.5 -32.5t6.5 -45.5t13 -40.5t22 -17.5q13 0 21.5 17.5t13 41t6 46t1.5 31.5zM413 561q0 9 -2 24.5t-6.5 31
t-13 26.5t-20.5 11q-13 0 -21 -11t-13 -26t-7 -31t-2 -25t2 -25t7 -31.5t13 -26.5t21 -11q12 0 20.5 11.5t13 26.5t6.5 31t2 25z" />
    <glyph glyph-name="nine" unicode="9" horiz-adv-x="644" 
d="M628 358q0 -70 -23.5 -137t-66.5 -119t-103.5 -83.5t-135.5 -31.5q-40 0 -88.5 11.5t-82.5 34.5q-11 7 -16 19t-5 24q0 20 11.5 33t31.5 13q13 0 25 -5t24 -10.5t24 -10.5t26 -5q23 0 39 20t25 38l-20 -2t-20 -1q-59 0 -106 25t-81 66.5t-52 94t-18 107.5q0 62 20 115.5
t56.5 92.5t88.5 61.5t116 22.5q81 0 142.5 -30t103.5 -81t63.5 -119t21.5 -143zM352 358q0 23 -0.5 59t-3.5 74t-9 72t-17 54q-12 -12 -19.5 -35.5t-11.5 -49.5t-5 -51.5t-1 -41.5q0 -12 1 -40t6.5 -57t18 -51t35.5 -22q6 43 6 89z" />
    <glyph glyph-name="colon" unicode=":" horiz-adv-x="234" 
d="M218 92q0 -21 -8 -39.5t-21.5 -32t-32 -21.5t-39.5 -8t-39.5 8t-32 21.5t-21.5 32t-8 39.5t8 39.5t21.5 32t32 21.5t39.5 8t39.5 -8t32 -21.5t21.5 -32t8 -39.5zM218 332q0 -21 -8 -39.5t-21.5 -32.5t-32 -22t-39.5 -8t-39.5 8t-32 22t-21.5 32.5t-8 39.5t8 39.5t21.5 32
t32 21.5t39.5 8t39.5 -8t32 -21.5t21.5 -32t8 -39.5z" />
    <glyph glyph-name="semicolon" unicode=";" horiz-adv-x="234" 
d="M218 332q0 -21 -8 -39.5t-21.5 -32.5t-32 -22t-39.5 -8t-39.5 8t-32 22t-21.5 32.5t-8 39.5t8 39.5t21.5 32t32 21.5t39.5 8t39.5 -8t32 -21.5t21.5 -32t8 -39.5zM120 -106q-12 0 -20 8.5t-8 23.5q0 9 6 16.5t12.5 15t12.5 17t6 22.5q0 2 -3.5 2h-4.5q-15 0 -33.5 5
t-34 15.5t-26 27t-10.5 39.5q0 24 10.5 40.5t26 27t34 15.5t33.5 5q17 0 34 -6t30.5 -18.5t22 -32.5t8.5 -47q0 -36 -9 -68t-23 -56t-31 -38t-33 -14z" />
    <glyph glyph-name="less" unicode="&#x3c;" horiz-adv-x="559" 
d="M16 245v107l527 217v-96l-427 -172l427 -178v-95z" />
    <glyph glyph-name="equal" unicode="=" horiz-adv-x="584" 
d="M16 133v100h552v-100h-552zM16 363v100h552v-100h-552z" />
    <glyph glyph-name="greater" unicode="&#x3e;" horiz-adv-x="559" 
d="M16 28v95l427 178l-427 172v96l527 -217v-107z" />
    <glyph glyph-name="question" unicode="?" horiz-adv-x="551" 
d="M351 71q0 -21 -12 -36.5t-29.5 -25.5t-38 -15t-38.5 -5t-38.5 5t-38 15t-29 25.5t-11.5 36.5t11.5 36.5t29 25.5t38 15t38.5 5t38.5 -5t38 -15t29.5 -25.5t12 -36.5zM535 517q0 -53 -22.5 -96t-59.5 -75t-83 -53t-94 -28q2 -9 3 -18t1 -18q0 -22 -13 -34t-35 -12
q-16 0 -29 14t-22.5 33.5t-14.5 40.5t-5 34q0 26 17.5 41.5t39 33.5t39 45.5t17.5 77.5q0 17 -2 39.5t-9 42.5t-20.5 34t-36.5 14q-12 0 -23 -3.5t-22 -8.5q27 -22 27 -56q0 -17 -7.5 -31.5t-19.5 -25t-27.5 -16t-31.5 -5.5t-31.5 5.5t-27.5 15.5t-19.5 24.5t-7.5 31.5
q0 48 24 81t60.5 53.5t80.5 29.5t83 9q50 0 98.5 -13.5t87 -41t62 -69t23.5 -96.5z" />
    <glyph glyph-name="at" unicode="@" horiz-adv-x="818" 
d="M802 466q0 -47 -14.5 -97.5t-42.5 -93.5t-70.5 -70.5t-97.5 -27.5q-39 0 -69.5 21t-31.5 63q-20 -34 -51 -58.5t-73 -24.5q-71 0 -108.5 42t-37.5 111q0 46 18 91t49 79.5t73.5 56t90.5 21.5q40 0 66 -17t31 -59l20 66h104l-78 -279q-3 -9 -5 -18.5t-2 -19.5
q0 -14 6.5 -28t23.5 -14q6 0 13.5 3.5t12.5 5.5q35 16 60.5 43t42.5 60t25.5 70.5t8.5 73.5q0 65 -23 115t-62.5 84.5t-93.5 52.5t-116 18q-83 0 -150.5 -30.5t-115.5 -83t-74 -122.5t-26 -150q0 -76 24 -134t67 -97.5t103.5 -60t134.5 -20.5q42 0 78 6.5t69.5 18.5t66 29
t68.5 37l20 -29q-66 -50 -142 -75.5t-158 -25.5q-86 0 -162 22t-133.5 66.5t-91 113t-33.5 161.5q0 92 36.5 168t98 130.5t142 84.5t168.5 30q71 0 133 -20t108.5 -59.5t73 -97t26.5 -132.5zM505 495q0 20 -9.5 32.5t-30.5 12.5t-39.5 -14.5t-34 -38t-28 -52t-21.5 -57.5
t-13.5 -55t-4.5 -43q0 -24 10 -43t39 -19q18 0 35 16.5t31.5 42.5t26.5 58t21 62.5t13.5 56.5t4.5 41z" />
    <glyph glyph-name="A" unicode="A" horiz-adv-x="695" 
d="M679 74q0 -20 -11.5 -34t-31.5 -16l-331 -29q-19 0 -32.5 14.5t-13.5 33.5q0 17 10.5 30t27.5 17q-4 11 -7.5 21t-6.5 21l-108 -10q0 -11 -2 -21.5t-2 -21.5h11q20 0 32.5 -14t12.5 -34q0 -19 -12 -31.5t-31 -14.5q-29 -3 -60.5 -7t-60.5 -4q-20 0 -33.5 14.5t-13.5 34.5
q0 27 18 36t41 11q11 166 53 323.5t117 306.5q14 27 44 27q25 0 39 -20q54 -78 101 -160t86 -167q29 -64 53 -130t44 -133q5 0 9.5 0.5t9.5 0.5q20 0 34 -12t14 -32zM209 322q-6 -26 -11 -51t-10 -51l62 5z" />
    <glyph glyph-name="B" unicode="B" horiz-adv-x="777" 
d="M761 241q0 -60 -32.5 -102.5t-81.5 -70.5t-106.5 -42.5t-107.5 -20.5q-41 -5 -83.5 -9.5t-84 -9t-80 -7t-69.5 -2.5q-18 0 -32 14.5t-14 32.5q0 19 7.5 29t19 14.5t26 6t28.5 2.5q-22 132 -32.5 264t-12.5 266l-22 -2t-22 -1q-20 0 -33 14.5t-13 33.5q0 18 12 31.5
t31 15.5l284 25q28 3 56 3q38 0 81.5 -7t80.5 -25t61.5 -48.5t24.5 -78.5q0 -36 -14 -63.5t-40 -52.5q37 -12 67.5 -31t53 -45.5t35 -59.5t12.5 -74zM420 367q-9 0 -14.5 -12.5t-8 -28.5t-3.5 -32t-1 -22q0 -14 2 -38.5t7.5 -50t13.5 -47.5t20 -31h4q8 0 12.5 11.5t7 26.5
t3 29.5t0.5 20.5q0 13 -2 39.5t-6.5 54.5t-13 51t-21.5 29zM397 624q-10 0 -16 -7.5t-9 -18t-4 -21.5t-1 -18q0 -8 2 -21.5t6.5 -27t11.5 -23.5t17 -10q9 0 15 7.5t9.5 17.5t5 20.5t1.5 17.5q0 8 -2 22t-6.5 28t-12 24t-17.5 10z" />
    <glyph glyph-name="C" unicode="C" horiz-adv-x="628" 
d="M332 -11q-74 0 -132.5 31t-99 82.5t-62.5 118t-22 138.5q0 71 20.5 136.5t60 115t98.5 79t136 29.5q58 0 108 -22l-4 12t-2 13q0 18 12.5 33t31.5 15q28 0 43.5 -24.5t22 -57.5t8 -67t1.5 -54q0 -15 -1.5 -31.5t-7 -31t-16.5 -24t-31 -9.5t-32 16t-12 34q0 14 2.5 27.5
t2.5 27.5q-16 11 -31.5 22.5t-35.5 11.5q-21 0 -33.5 -21.5t-19 -50.5t-8.5 -57.5t-2 -43.5q0 -16 1 -47t4.5 -67.5t10 -74.5t17 -69t26.5 -51t38 -20q31 0 50.5 16t34 35.5t27.5 36t31 16.5t31.5 -15.5t13.5 -34.5q0 -13 -7 -23q-49 -75 -116 -112.5t-157 -37.5z" />
    <glyph glyph-name="D" unicode="D" horiz-adv-x="775" 
d="M759 350q0 -80 -25 -142.5t-70 -106.5t-108.5 -69.5t-141.5 -32.5q-59 -5 -117.5 -8t-118.5 -3h-26q-14 0 -29 1.5t-27 6t-20 14t-8 26.5q0 28 18.5 37.5t40.5 9.5q4 0 7 -0.5t7 -0.5q-22 131 -32 261t-12 263q-6 -2 -12.5 -3.5t-13.5 -1.5q-21 0 -38 11t-17 34
q0 41 38 49q28 6 73 12.5t93 11.5t92.5 8.5t73.5 3.5q90 0 159.5 -26t117 -74.5t72 -119.5t24.5 -161zM372 619q20 -125 33 -251.5t13 -253.5q16 14 25.5 36.5t14.5 47.5t6.5 50t1.5 45q0 32 -4 80.5t-14.5 97t-28.5 89.5t-47 59z" />
    <glyph glyph-name="E" unicode="E" horiz-adv-x="646" 
d="M578 -24q-14 0 -23 5t-14 12.5t-7.5 16t-2.5 14.5t3 14q-94 -35 -191.5 -44.5t-196.5 -9.5q-13 0 -26.5 1t-25 5.5t-18.5 14t-7 26.5q0 16 6.5 26t17 14.5t23 6t25.5 1.5q-22 131 -32 262t-12 264q-17 -5 -33 -5q-19 0 -33.5 12.5t-14.5 32.5q0 19 10 33q7 8 29 15t52 12
t64.5 9t66.5 6.5t57.5 4t38.5 1.5q34 0 67.5 -3t66.5 -8q-2 10 -2 15q0 20 14.5 33t33.5 13q21 0 34.5 -19t21 -45t10.5 -52.5t3 -42.5q0 -17 -1 -34.5t-7 -32.5t-18 -24.5t-33 -9.5q-19 0 -31 16.5t-12 33.5q0 11 2 23.5t2 24.5q-58 13 -120 15q8 -42 14 -84t11 -85l14 -2
t14 -3q-2 2 -3 11.5t-1 11.5q0 20 13.5 33.5t33.5 13.5q23 0 37 -20t21.5 -47t9.5 -55t2 -44q0 -15 -1.5 -32.5t-7.5 -33t-17.5 -26t-31.5 -10.5q-22 0 -32.5 16t-10.5 35q0 11 2.5 23t2.5 23l-36 8q6 -66 10 -130.5t4 -130.5q61 14 114 37q-2 17 -7.5 36.5t-5.5 36.5
q0 20 17 30.5t34 10.5t26.5 -8t15.5 -23q5 -13 9 -37t7 -50.5t5 -51.5t2 -39q0 -25 -11.5 -46t-40.5 -21z" />
    <glyph glyph-name="F" unicode="F" horiz-adv-x="599" 
d="M524 516q-19 0 -31 16.5t-12 33.5q0 11 2 23.5t2 24.5q-58 13 -120 15q8 -42 14 -84t11 -85l14 -2t14 -3q-2 2 -3 11.5t-1 11.5q0 20 13.5 33.5t33.5 13.5q23 0 37 -20t21.5 -47t9.5 -55t2 -44q0 -15 -1.5 -32.5t-7.5 -33t-17.5 -26t-31.5 -10.5q-22 0 -32.5 16t-10.5 35
q0 11 2.5 23t2.5 23l-36 8q6 -65 10 -129.5t4 -130.5q15 4 34 4q15 0 30 -10.5t16 -33.5q0 -17 -11 -31t-28 -18q-78 -16 -160 -22.5t-162 -6.5q-23 0 -43 9.5t-20 37.5q0 16 6.5 26t17 14.5t23 6t25.5 1.5q-22 131 -32 262t-12 264q-17 -5 -33 -5q-19 0 -33.5 12.5
t-14.5 32.5q0 19 10 33q7 8 29 15t52 12t64.5 9t66.5 6.5t57.5 4t38.5 1.5q34 0 67.5 -3t66.5 -8q-2 10 -2 15q0 20 14.5 33t33.5 13q21 0 34.5 -19t21 -45t10.5 -52.5t3 -42.5q0 -17 -1 -34.5t-7 -32.5t-18 -24.5t-33 -9.5z" />
    <glyph glyph-name="G" unicode="G" horiz-adv-x="740" 
d="M684 303q9 -50 13 -101t4 -105q0 -15 -1.5 -31.5t-7 -29.5t-15 -21.5t-25.5 -8.5q-22 0 -42.5 11t-39.5 19q-46 -28 -99 -40.5t-107 -12.5q-79 0 -143 27.5t-109.5 76.5t-70.5 115.5t-25 143.5t27 143t75 114.5t114 76t143 27.5q64 0 125 -23q0 7 -3.5 14.5t-3.5 15.5
q0 20 14 33.5t34 13.5q14 0 27 -8q12 -9 20.5 -32t14.5 -50t8.5 -53t2.5 -40v-4q0 -17 -1 -36.5t-6.5 -36.5t-17.5 -28t-34 -11q-20 0 -31.5 16.5t-11.5 36.5q0 13 3 25.5t3 25.5q-22 15 -46.5 29t-52.5 14q-34 0 -54 -20t-30.5 -48.5t-13.5 -61.5t-3 -58q0 -20 1.5 -52.5
t6 -69t12.5 -74t21.5 -68t32.5 -50.5t46 -21l-17 195q-7 -1 -13.5 -3.5t-14.5 -2.5q-20 0 -34.5 14.5t-14.5 34.5q0 27 26 42.5t65 23.5t84.5 10t83.5 2q28 0 50 -1.5t38 -7t24.5 -16.5t8.5 -29t-11.5 -30.5t-28.5 -14.5z" />
    <glyph glyph-name="H" unicode="H" horiz-adv-x="853" 
d="M837 84q0 -16 -10 -28.5t-24 -17.5q-51 -17 -110 -23.5t-133 -6.5q-17 0 -35.5 1.5t-33.5 7t-25 16t-10 29.5q0 14 8 26t22 17q-18 114 -30 228l-60 -5q4 -58 7 -115t3 -115q17 -2 30.5 -15t13.5 -30q0 -18 -8.5 -31t-25.5 -18q-52 -15 -111 -22t-134 -7q-16 0 -33.5 1.5
t-32.5 6t-25 14t-10 26.5q0 23 13 37t37 14h15q-9 70 -18.5 138.5t-14.5 138.5q-5 64 -7.5 127.5t-3.5 127.5q-7 -1 -14.5 -2.5t-14.5 -1.5q-20 0 -33 14t-13 34q0 15 9.5 28t24.5 17q57 15 122.5 22.5t148.5 7.5q13 0 26.5 -1.5t24 -7t17 -15.5t6.5 -28q0 -16 -10 -28.5
t-26 -14.5q9 -51 16.5 -103.5t11.5 -104.5l61 6q-3 53 -5 104.5t-3 104.5q-16 2 -27.5 16t-11.5 30q0 17 9.5 29.5t25.5 16.5q60 14 125.5 22t141.5 8q14 0 28 -1.5t25.5 -6.5t18.5 -15.5t7 -28.5q0 -28 -17.5 -36t-38.5 -8q-5 0 -9.5 0.5t-9.5 0.5q22 -136 34 -267.5
t15 -268.5q8 0 16 2t17 2q20 0 34 -14t14 -34z" />
    <glyph glyph-name="I" unicode="I" horiz-adv-x="467" 
d="M451 44q0 -16 -9 -28q-11 -14 -44 -23t-75 -14t-84.5 -7.5t-70.5 -2.5q-16 0 -33.5 1.5t-31.5 7t-23.5 16t-9.5 28.5q0 20 14.5 33t34.5 13q-24 132 -34 265.5t-12 267.5q-3 -1 -7 -1q-21 0 -35.5 13.5t-14.5 34.5q0 16 9 28q10 14 44.5 23.5t76.5 15.5t84.5 8.5
t68.5 2.5q15 0 32 -1.5t31 -6.5t23.5 -14.5t9.5 -26.5q0 -23 -14 -37t-40 -14q23 -134 34 -267t14 -269q4 1 7 1.5t7 0.5q20 0 34 -14.5t14 -33.5z" />
    <glyph glyph-name="J" unicode="J" horiz-adv-x="565" 
d="M549 258q0 -140 -76.5 -214.5t-216.5 -74.5q-44 0 -86.5 9.5t-77 31.5t-55.5 57t-21 85q0 42 26 71t69 29q19 0 36 -7.5t29.5 -20.5t20 -30.5t7.5 -36.5q0 -23 -11.5 -43.5t-29.5 -34.5q22 -12 40 -12q46 0 48 75q-9 123 -25 243t-37 241q-5 0 -11 -1.5t-12 -1.5
q-18 0 -32 15.5t-14 32.5t9 29q7 9 28 17t49.5 14t62 10t66 6.5t60.5 4t47 1.5q15 0 31.5 -1.5t30 -6.5t22.5 -16t9 -29q0 -16 -11.5 -29.5t-27.5 -16.5q8 -45 17.5 -95.5t17.5 -102t13 -102t5 -96.5z" />
    <glyph glyph-name="K" unicode="K" horiz-adv-x="896" 
d="M880 83q0 -18 -25 -34t-64 -28t-87 -18.5t-93 -6.5q-31 0 -58.5 3.5t-48.5 11t-33 19.5t-12 29q0 11 8 22.5t18 16.5q-9 53 -39 103t-65 90q3 -51 4.5 -100t4.5 -100q5 2 15 2q20 0 33 -14t13 -34q0 -27 -27.5 -42t-68 -22t-87.5 -8.5t-87 -1.5q-22 0 -42 1.5t-35.5 7
t-24.5 16.5t-9 29q0 19 15.5 32t33.5 13q-20 134 -32 265.5t-14 267.5q-3 -1 -10 -1q-20 0 -33.5 14t-13.5 34q0 16 9 28q6 9 24.5 16t43 13t54 9.5t58.5 6.5t55.5 4t45.5 1q16 0 31.5 -1.5t28.5 -7t21 -16.5t8 -29q0 -22 -15.5 -34t-37.5 -12q6 -46 12 -91.5t14 -91.5
q45 38 78.5 86.5t46.5 105.5q-8 -3 -18.5 -5.5t-18.5 -2.5q-20 0 -35.5 14t-15.5 34q0 17 11 29.5t28 16.5q57 14 115.5 23.5t116.5 9.5q13 0 31 -1t34.5 -6t28 -15t11.5 -28q0 -23 -17 -36.5t-39 -13.5q-11 0 -21.5 1t-21.5 1q-16 -40 -40.5 -75t-54.5 -65q39 -39 74 -85
t62.5 -96t47 -104t28.5 -109q4 2 12.5 4t13.5 2q22 0 38.5 -11.5t16.5 -35.5z" />
    <glyph glyph-name="L" unicode="L" horiz-adv-x="652" 
d="M583 -24q-25 0 -34 19t-9 43q-93 -34 -189.5 -43.5t-203.5 -9.5q-12 0 -25 1t-23.5 5.5t-17 14t-6.5 26.5q0 13 6.5 22t16.5 14.5t22.5 8t23.5 2.5q-9 130 -24.5 260t-18.5 261q-9 -2 -20 -6t-20 -4q-20 0 -32.5 15.5t-12.5 34.5q0 16 9.5 28t24.5 17q69 20 143 28t146 8
h32q15 0 29.5 -1.5t26 -7t19 -16t7.5 -28.5q0 -20 -15.5 -33t-34.5 -13q-8 0 -15.5 1.5t-15.5 1.5q24 -130 33 -260.5t14 -262.5q29 6 57.5 15.5t56.5 20.5q-2 16 -7.5 36.5t-5.5 34.5q0 19 15 31.5t33 12.5q31 0 45 -32q5 -11 9 -35t7 -51t5 -52t2 -38q0 -24 -12.5 -46.5
t-40.5 -22.5z" />
    <glyph glyph-name="M" unicode="M" horiz-adv-x="964" 
d="M948 80q0 -19 -14.5 -32t-37.5 -21t-51.5 -12t-56.5 -5.5t-51.5 -2.5t-37.5 -3q-30 0 -54 1.5t-41.5 7.5t-27 17t-9.5 30q0 21 16 32.5t36 11.5q-9 51 -15 102l-12 102q-17 -69 -36.5 -138.5t-42.5 -136.5q-3 -10 -14 -16.5t-24.5 -11t-27.5 -6.5t-23 -2q-16 0 -31 4.5
t-24 18.5q-51 79 -91 164.5t-77 172.5q6 -73 15 -145t20 -145q8 2 15.5 3.5t15.5 1.5q22 0 35.5 -13t13.5 -35t-19.5 -34t-49 -17.5t-65 -6.5t-67.5 -1q-24 0 -39 12.5t-15 38.5q0 15 5.5 23.5t14.5 13t20 5.5t22 1h18q-10 72 -18.5 139t-14.5 133t-9.5 133.5t-4.5 140.5
q-8 -2 -17.5 -5t-18.5 -3q-18 0 -30 15t-12 32t15.5 30.5t40.5 22.5t55.5 15t60 9.5t55.5 5t41 1.5q12 0 28 -1t31 -4.5t28 -11t19 -19.5q36 -70 67 -142.5t57 -147.5q12 60 24 119.5t22 119.5q-19 0 -33.5 14t-14.5 35q0 27 32 42.5t78 23t95.5 9.5t84.5 2q16 0 32 -1.5
t29 -7t21 -16.5t8 -29q0 -21 -14.5 -33t-37.5 -12q23 -136 34.5 -270.5t15.5 -271.5q4 1 11 1q20 0 33.5 -13.5t13.5 -33.5z" />
    <glyph glyph-name="N" unicode="N" horiz-adv-x="699" 
d="M600 662q25 -149 37.5 -296t12.5 -298q0 -20 -14.5 -33.5t-33.5 -15.5q-31 -3 -62.5 -6.5t-62.5 -3.5q-22 0 -45 24.5t-46 63t-46.5 85.5t-47 92.5t-46 84t-44.5 60.5q5 -87 15 -172.5t25 -171.5q10 2 20.5 4.5t20.5 2.5q21 0 35 -15t14 -35q0 -15 -10.5 -27t-24.5 -16
q-40 -10 -82.5 -12t-84.5 -2q-20 0 -36.5 11.5t-16.5 34.5q0 30 18.5 38.5t50.5 8.5q-21 137 -33 272t-14 274q-9 -2 -18.5 -5.5t-18.5 -3.5q-18 0 -32 15t-14 33q0 16 9.5 29t24.5 18q54 17 111.5 24.5t114.5 7.5q53 0 88.5 -22t62.5 -55.5t49.5 -74.5t50.5 -78
q-4 38 -9.5 75t-12.5 74q-4 -2 -14.5 -4t-15.5 -2q-20 0 -33.5 15t-13.5 35q0 17 9.5 29t25.5 16q38 9 77.5 13t77.5 4q12 0 23.5 -1.5t20.5 -7t15 -14.5t6 -24q0 -26 -17 -37t-40 -11h-26z" />
    <glyph glyph-name="O" unicode="O" horiz-adv-x="728" 
d="M712 347q0 -73 -26 -139t-72.5 -116t-110 -79.5t-138.5 -29.5q-76 0 -140 32t-110.5 84.5t-72.5 120.5t-26 141q0 74 26 140.5t72.5 116.5t110.5 79.5t140 29.5t139.5 -32t109.5 -85.5t72 -122t26 -140.5zM464 87q8 0 10 9t2 20q0 19 -10 64t-27 101t-38 117t-43 111
t-42.5 82.5t-36.5 32.5q-25 0 -25 -25q0 -21 10 -67.5t26 -103t37.5 -117t45 -110.5t47 -82t44.5 -32z" />
    <glyph glyph-name="P" unicode="P" horiz-adv-x="742" 
d="M726 466q0 -64 -25 -112t-67 -81t-96 -52t-111 -25l3 -101q24 0 40 -13t16 -31q0 -19 -9 -31q-9 -11 -29.5 -19.5t-47.5 -13.5t-57 -8t-58.5 -4.5t-51.5 -2t-36 -0.5q-16 0 -32.5 1.5t-29.5 7.5t-21 17t-8 30q0 17 12.5 30.5t29.5 14.5q-20 137 -32 271t-13 273
q-11 -2 -20.5 -5t-20.5 -3q-22 0 -34 15.5t-12 35.5q0 16 8.5 28t24.5 16q36 9 78.5 15t87 9t88 4.5t80.5 1.5q66 0 127.5 -13.5t109.5 -45t77 -83t29 -126.5zM425 604q-9 0 -14 -13t-7.5 -29.5t-3 -32.5t-0.5 -22q0 -11 2 -41t8 -62t15.5 -57t24.5 -25q9 0 14 13.5
t7.5 30.5t3.5 33.5t1 22.5q0 11 -2.5 40.5t-8 61t-15.5 56t-25 24.5z" />
    <glyph glyph-name="Q" unicode="Q" horiz-adv-x="748" 
d="M732 2q0 -27 -8 -54t-23.5 -49t-38.5 -35.5t-53 -13.5t-54.5 15t-41.5 38.5t-26.5 52t-9.5 55.5q-26 -10 -55 -14t-56 -4q-76 0 -140.5 32t-111 84.5t-72.5 120.5t-26 141q0 74 26 140.5t72.5 116.5t110.5 79.5t140 29.5t139.5 -32t109.5 -85.5t72 -122t26 -140.5
q0 -47 -11.5 -92.5t-33.5 -86.5t-54 -76t-72 -60q11 -31 37.5 -48t58.5 -17q45 0 77 33zM460 97q8 0 11 8t3 21q0 19 -10.5 64t-27.5 101t-38.5 117t-43 111t-41.5 82.5t-34 32.5q-25 0 -25 -25q0 -17 10.5 -61.5t27.5 -101.5t38.5 -118.5t44.5 -113t45 -84.5t40 -33z" />
    <glyph glyph-name="R" unicode="R" horiz-adv-x="899" 
d="M883 83q0 -16 -9.5 -28.5t-24.5 -17.5q-54 -17 -117 -23.5t-143 -6.5q-16 0 -33 1.5t-31 6t-23 14t-9 26.5q0 20 -2.5 53.5t-9.5 68t-19.5 63t-31.5 39.5q3 -46 4 -91.5t3 -91.5q20 -2 32.5 -15t12.5 -33q0 -16 -10 -28.5t-25 -17.5q-54 -17 -116 -23t-143 -6
q-16 0 -33 1.5t-31.5 6t-23.5 14t-9 25.5q0 20 11 36t33 16q5 0 10.5 -0.5t10.5 -1.5q-23 136 -33 271.5t-12 273.5q-8 -2 -24.5 -3.5t-24.5 -1.5q-21 0 -33.5 15t-12.5 35q0 17 8 28.5t25 15.5q39 9 88.5 16t101 12t101.5 7.5t90 2.5q54 0 107 -11t96 -37t69.5 -69
t26.5 -106q0 -100 -77 -162q38 -14 65 -37.5t45.5 -54.5t28.5 -66.5t14 -73.5q8 0 15.5 3t15.5 3q20 0 33.5 -14t13.5 -34zM409 603q-9 0 -14.5 -10t-8.5 -23.5t-4 -27t-1 -20.5q0 -10 2 -32t7 -44.5t14 -40t23 -17.5q9 0 14.5 10.5t8.5 24.5t4 28t1 20q0 10 -2 31.5
t-7.5 44t-14.5 39.5t-22 17z" />
    <glyph glyph-name="S" unicode="S" horiz-adv-x="621" 
d="M605 233q0 -54 -22.5 -98.5t-60 -77.5t-85 -53.5t-97.5 -24.5q-30 -3 -61 -3t-65 5t-63 17q-2 -11 -14.5 -24.5t-26.5 -13.5l-4 -1q-17 0 -32 11t-17 28q-3 23 -4 47.5t-1 47.5q0 27 1.5 49.5t7.5 38.5t17 24.5t30 8.5q20 0 31.5 -17t11.5 -34q0 -14 -2.5 -29t-2.5 -30
q16 -9 29 -15.5t25.5 -11t27 -6.5t32.5 -2q34 0 55 14t21 53q0 19 -10 34t-24.5 27t-31.5 22t-31 19q-84 54 -156 123q-35 33 -51 74t-16 89q0 54 25 94t64 66.5t87.5 39t96.5 12.5t95 -10.5t87 -36.5q3 12 5 23.5t6.5 21t13.5 15.5t26 6q20 0 34.5 -13t14.5 -34
q0 -13 -6.5 -38.5t-14.5 -52.5t-16.5 -51t-13.5 -34q-12 -26 -42 -26q-20 0 -33.5 13.5t-13.5 33.5q0 11 3 19.5t8 18.5q-20 23 -47.5 35t-57.5 12q-11 0 -22.5 -2t-20.5 -7t-14.5 -13.5t-5.5 -22.5q0 -11 10.5 -21t24.5 -19t29 -16t23 -12q45 -26 87 -55t80 -63
q36 -32 56.5 -79t20.5 -95z" />
    <glyph glyph-name="T" unicode="T" horiz-adv-x="696" 
d="M621 525q-19 0 -30.5 14.5t-11.5 36.5q0 11 0.5 23.5t1.5 23.5q-49 12 -102 15q23 -133 35.5 -266.5t12.5 -268.5q10 2 15 2q19 0 33 -13t14 -32q0 -18 -14.5 -31t-37.5 -22t-51.5 -14t-56.5 -7.5t-52 -3t-39 -0.5q-14 0 -36 1t-42.5 5.5t-35.5 14.5t-15 28
q0 22 12.5 35.5t35.5 15.5q-23 132 -33 265t-12 267q-48 -12 -94 -32q2 -14 7 -28.5t5 -28.5q0 -19 -13.5 -33.5t-33.5 -14.5q-22 0 -35.5 17.5t-20.5 42t-9 50t-2 41.5t1 35.5t6.5 36t17 27.5t33.5 11q20 0 32 -16.5t12 -33.5q-1 -1 -1 -3q72 26 146.5 39t151.5 13
q38 0 75.5 -3t74.5 -10q-2 3 -2 10q0 22 14 36.5t36 14.5q21 0 34 -19t20.5 -44.5t10 -52.5t2.5 -42q0 -17 -1 -35t-6.5 -33t-17.5 -24.5t-34 -9.5z" />
    <glyph glyph-name="U" unicode="U" horiz-adv-x="687" 
d="M600 661q12 -46 23.5 -92t21 -92.5t15.5 -93.5t6 -94q0 -148 -73.5 -230.5t-225.5 -82.5q-62 0 -108 20t-78.5 55t-53 81.5t-32 99.5t-16 109t-4.5 110q0 42 2 81t4 73q-5 -1 -10.5 -2t-10.5 -1q-20 0 -32 14t-12 34q0 16 9.5 28.5t24.5 17.5q54 17 127.5 25t151.5 8
q13 0 27 -1t26 -4.5t21 -10.5t13 -19q0 17 9 29q8 10 31.5 16.5t51.5 10t54 4.5t40 1q13 0 25 -1t22 -5.5t16 -13.5t6 -26t-6 -26.5t-16 -14.5t-23 -6t-26 -1zM570 289q0 46 -6.5 92t-16 91.5t-21.5 90t-23 89.5q-9 -2 -19.5 -5t-20.5 -3q-15 0 -27 9.5t-17 22.5
q-1 -19 -13.5 -32t-31.5 -14q0 -105 2 -201.5t12.5 -170t32.5 -117t61 -43.5q25 0 42 23t27 54t14.5 63.5t4.5 50.5z" />
    <glyph glyph-name="V" unicode="V" horiz-adv-x="719" 
d="M639 664q0 -81 -11.5 -162.5t-31 -161t-45 -158t-54.5 -153.5q-4 -13 -16 -21q-6 -5 -16.5 -7.5t-22.5 -4.5t-23.5 -2.5t-18.5 -0.5q-18 0 -33 5t-23 23l-260 588q-7 -2 -13 -3.5t-10 -1.5q-20 0 -32.5 15.5t-12.5 34.5q0 16 10 28t24 17q66 22 144.5 29t169.5 7
q15 0 30 -1.5t27.5 -7t20 -16.5t7.5 -29q0 -15 -10 -26.5t-24 -16.5l89 -201q4 26 6 52t2 52q0 27 -1 54t-6 53q-27 0 -42 14t-15 33q0 16 9 30q8 11 32 18t52.5 10.5t55.5 4.5t41 1q27 0 46 -8.5t19 -41.5q0 -26 -19 -35.5t-45 -9.5z" />
    <glyph glyph-name="W" unicode="W" horiz-adv-x="1089" 
d="M1073 722q0 -23 -17.5 -33.5t-45.5 -10.5q0 -83 -11 -164t-30 -159.5t-45 -156.5t-56 -155q-4 -11 -13.5 -18t-21 -11.5t-23.5 -6.5t-22 -2q-9 0 -20 1t-21.5 4.5t-19 9.5t-12.5 15l-121 276l-70 -293q-3 -13 -16.5 -22t-30.5 -14t-34.5 -7.5t-28.5 -2.5q-9 0 -20 1.5
t-21.5 5t-19.5 9.5t-13 15l-247 591q-5 -2 -15 -5t-15 -3q-18 0 -32.5 15t-14.5 33q0 17 9 29q12 16 40.5 27.5t65.5 18.5t78.5 10t80.5 3q42 0 75.5 -2.5t51.5 -7.5q81 21 159.5 29.5t163.5 8.5q24 0 44.5 -5.5t34.5 -31.5q0 21 20 33t48.5 18t59 7t51.5 1q37 0 56 -10
t19 -40zM456 623q-12 -2 -23.5 -3t-23.5 -2l102 -242l19 80zM876 451q3 29 5 57t2 57q0 25 -1.5 49.5t-6.5 47.5q-20 0 -34.5 9t-20.5 23q-1 -15 -10.5 -26.5t-23.5 -15.5z" />
    <glyph glyph-name="X" unicode="X" horiz-adv-x="790" 
d="M774 73q0 -15 -9.5 -28t-24.5 -18q-29 -8 -64.5 -13.5t-72.5 -9t-73.5 -5t-66.5 -1.5q-41 0 -67 7t-26 38q0 18 10 32l-69 138q-16 -47 -16 -98q0 -9 0.5 -18t1.5 -18q20 -1 33.5 -14.5t13.5 -33.5q0 -18 -8 -29q-8 -10 -32.5 -16.5t-54 -10t-57.5 -5t-41 -1.5
q-25 0 -43 8.5t-18 37.5q0 23 14.5 36t34.5 13h15q7 79 31.5 140t74.5 122l-162 288q-9 -3 -20 -6.5t-20 -3.5q-18 0 -30 15t-12 32t8 30t25 18q69 17 144 24t148 7q13 0 26 -2t24 -7t18 -14t7 -24q0 -11 -2 -19.5t-10 -16.5l74 -122q2 13 3.5 25t1.5 25q0 18 -3 35.5
t-12 34.5q-20 0 -31.5 15t-11.5 33q0 23 21.5 36t51.5 19t62 7.5t54 1.5q12 0 23.5 -1.5t21 -6t15 -13.5t5.5 -24q0 -26 -15 -38t-41 -12q-5 -66 -27.5 -127.5t-51.5 -119.5l170 -295q2 0 6.5 0.5t7.5 1.5q19 0 32.5 -15t13.5 -34z" />
    <glyph glyph-name="Y" unicode="Y" horiz-adv-x="724" 
d="M655 676q0 -44 -9 -90.5t-23.5 -92t-32.5 -90t-36 -84.5q7 -107 9 -213q4 1 7 1.5t7 0.5q21 0 34 -14.5t13 -34.5q0 -15 -9.5 -28t-24.5 -17q-66 -17 -135.5 -21.5t-137.5 -4.5q-12 0 -25 1.5t-23.5 6t-17.5 14t-7 24.5q0 21 13 35.5t35 14.5q-8 51 -14.5 101.5
t-12.5 101.5l-183 334q-5 -1 -9.5 -2t-9.5 -1q-23 0 -35 15t-12 36q0 14 9.5 26t23.5 16q31 9 70.5 15t81 9.5t81.5 5.5t73 2q13 0 26.5 -1t24 -6t17 -15t6.5 -28q0 -19 -17 -36l89 -162q8 26 15.5 58.5t7.5 66.5q0 20 -5 43q-10 -2 -16 -2q-20 0 -34.5 13.5t-14.5 33.5
q0 24 23 36.5t54.5 18.5t64 7t52.5 1q26 0 43 -9.5t17 -40.5q0 -23 -16 -33.5t-37 -11.5z" />
    <glyph glyph-name="Z" unicode="Z" horiz-adv-x="653" 
d="M632 -2q-8 -17 -20.5 -27t-32.5 -10q-19 0 -30.5 14t-11.5 31q0 4 0.5 8.5t0.5 9.5q-92 -33 -187 -43.5t-206 -10.5q-12 0 -24 1t-21.5 5.5t-15.5 13.5t-6 25q0 6 12.5 47.5t32 101.5t42.5 130.5t44.5 134.5t37.5 113t22 67q-79 -12 -156 -44q2 -17 6.5 -35t4.5 -35
q0 -21 -17 -32.5t-36 -11.5q-31 0 -41 31q-4 13 -7 34.5t-4.5 44.5t-2 45t-0.5 37t2 30t8.5 27.5t17.5 20.5t29 8t30 -13t12 -30q0 -4 -0.5 -8.5t-1.5 -11.5q91 34 185 44t191 10q38 0 61.5 -7t23.5 -36v-10t-2 -10l-175 -575q36 8 70.5 18t69.5 24q-1 17 -5 35t-4 35
q0 20 17.5 32.5t36.5 12.5q16 0 26 -9t15 -23q4 -11 6.5 -32.5t4 -46t2.5 -47t1 -35.5q0 -9 -1 -24t-4 -24z" />
    <glyph glyph-name="bracketleft" unicode="[" horiz-adv-x="323" 
d="M307 -84q0 -20 -4.5 -31t-13 -16.5t-20.5 -7t-27 -1.5h-17q-27 0 -53.5 -0.5t-53.5 -0.5q-45 0 -73.5 22.5t-28.5 70.5v685q0 48 28.5 70t73.5 22h128q33 0 47 -11t14 -46q0 -19 -5 -30.5t-14 -17.5t-21 -8t-25 -2q-10 0 -20 0.5t-19 0.5q-22 0 -37.5 -7.5t-15.5 -33.5
v-560q0 -26 17.5 -33t41.5 -7q8 0 16.5 0.5t16.5 0.5q41 0 53 -15.5t12 -43.5z" />
    <glyph glyph-name="backslash" unicode="\" horiz-adv-x="347" 
d="M331 -66q0 -24 -18 -36t-40 -12q-20 0 -35.5 11.5t-20.5 31.5l-200 785q0 4 -0.5 7t-0.5 7q0 21 13.5 33t34.5 12q22 0 40 -11t24 -34l201 -780q1 -4 1.5 -7t0.5 -7z" />
    <glyph glyph-name="bracketright" unicode="]" horiz-adv-x="323" 
d="M307 -50q0 -48 -28.5 -69.5t-73.5 -21.5h-109q-5 -1 -9.5 -1h-9.5q-29 0 -45 12t-16 47q0 26 11.5 38t29 15.5t38 3t38 1.5t29 10t11.5 29v560q0 27 -18 34t-41 7q-9 0 -18 -0.5t-17 -0.5q-39 0 -51 15t-12 43q0 21 5 32.5t14 17t21.5 6.5t28.5 1h120q45 0 73.5 -22
t28.5 -70v-687v0z" />
    <glyph glyph-name="asciicircum" unicode="^" horiz-adv-x="628" 
d="M548 438l-234 154l-233 -154h-65l228 276h141l227 -276h-64z" />
    <glyph glyph-name="underscore" unicode="_" horiz-adv-x="500" 
d="M0 -236v138h500v-138h-500z" />
    <glyph glyph-name="grave" unicode="`" horiz-adv-x="321" 
d="M294 834q0 -20 -13.5 -32.5t-32.5 -12.5q-17 0 -32 10l-190 122q-21 15 -21 38q0 14 7 29t18.5 27.5t25.5 20.5t29 8q18 0 31 -13l161 -160q8 -8 12.5 -17t4.5 -20z" />
    <glyph glyph-name="a" unicode="a" horiz-adv-x="696" 
d="M303 -1q-18 2 -30.5 16t-12.5 32q0 20 13.5 33t32.5 14q0 11 -2 22t-4 21l-108 10q-3 -11 -6.5 -21t-5.5 -21l18 -6t15.5 -7.5t10.5 -12.5t4 -21q0 -19 -11.5 -33.5t-31.5 -14.5q-32 0 -63 3.5t-63 6.5q-20 2 -31.5 16.5t-11.5 33.5q0 18 14.5 31.5t31.5 13.5
q5 0 11 -0.5t11 -1.5q13 50 27.5 98.5t32.5 96.5q40 107 94.5 206t122.5 190q16 20 42 20q14 0 25 -8q10 -8 24 -37t29.5 -68.5t31 -85.5t28.5 -87t22 -72.5t12 -43.5q16 -64 27 -127.5t19 -128.5q24 -2 41.5 -11t17.5 -38q0 -19 -13.5 -32.5t-33.5 -13.5zM283 235
q-5 26 -10.5 51.5t-12.5 51.5l-20 -48t-19 -49z" />
    <glyph glyph-name="b" unicode="b" horiz-adv-x="755" 
d="M425 -16h-27t-27 2l-311 27q-17 2 -30.5 15t-13.5 30q0 23 14 36.5t36 13.5q10 0 20 -1l20 -2q0 134 12.5 266.5t34.5 263.5q-12 1 -26.5 2t-26.5 6t-20.5 14.5t-8.5 26.5q0 20 12.5 35t34.5 15l290 -25q38 -3 85.5 -14t89.5 -32t70.5 -54t28.5 -81q0 -42 -20.5 -74.5
t-55.5 -55.5q60 -33 96.5 -82.5t36.5 -118.5q0 -62 -30 -103t-76.5 -65.5t-102 -34.5t-105.5 -10zM442 256q0 6 -0.5 21t-3 30t-7.5 27t-13 12q-14 0 -22.5 -23t-14 -52t-7.5 -56.5t-2 -37.5q0 -6 1 -21t3 -31t6.5 -28.5t12.5 -12.5q13 0 22 23t14.5 53t8 58t2.5 38z
M468 541q0 6 -1 16.5t-4.5 20.5t-9 17.5t-14.5 7.5q-11 0 -18 -10t-12 -24t-7 -28t-2 -22q0 -6 1.5 -17t5 -21.5t9 -18t14.5 -7.5q10 0 17.5 10.5t12 25t6.5 28.5t2 22z" />
    <glyph glyph-name="c" unicode="c" horiz-adv-x="614" 
d="M598 616q0 -17 -1.5 -48.5t-8.5 -62t-22 -53.5t-43 -23q-18 0 -29.5 16t-11.5 33q0 15 5.5 31t7.5 32q-13 13 -27.5 29t-34.5 16q-23 0 -40 -22t-29 -56t-19 -76t-11.5 -81.5t-6 -72t-1.5 -48.5q0 -17 1 -41t7.5 -46t19.5 -37t37 -15q25 0 43 11t33.5 24.5t30.5 25
t35 11.5t32 -14.5t12 -33.5q0 -17 -12 -31q-48 -54 -110.5 -79.5t-133.5 -25.5t-127.5 29t-96 78t-60.5 113.5t-21 135.5q0 74 26.5 143t71.5 126q43 54 98.5 79.5t123.5 25.5q45 0 85 -11t78 -35q-2 10 -2 16q0 17 13 33.5t33 16.5t31 -11t16.5 -27.5t6.5 -36.5t1 -38z" />
    <glyph glyph-name="d" unicode="d" horiz-adv-x="775" 
d="M400 -19q-15 0 -42.5 2t-61.5 5.5t-71.5 8t-71 9t-60 9.5t-38.5 9q-15 5 -27 19t-12 33q0 20 17 31.5t34 11.5q7 0 14 -2t15 -4q0 132 13 262t34 261q-5 -1 -14 -1q-21 0 -40.5 12t-19.5 35q0 20 13.5 34.5t34.5 14.5q23 0 48 -0.5t57 -2t74 -4.5t100 -8
q80 -7 146.5 -31.5t114.5 -67.5t75 -106.5t27 -148.5t-23.5 -155t-69.5 -120.5t-112.5 -78t-153.5 -27.5zM466 417q0 20 -1.5 46t-6.5 52t-15 49t-27 37q-1 -128 -11.5 -253.5t-30.5 -251.5q28 17 46 58t28.5 89t14 95.5t3.5 78.5z" />
    <glyph glyph-name="e" unicode="e" horiz-adv-x="645" 
d="M629 620q0 -16 -2.5 -41t-9.5 -48.5t-20.5 -40.5t-34.5 -17q-19 0 -33.5 14.5t-14.5 33.5q0 13 5.5 28t7.5 29q-28 12 -57.5 20.5t-58.5 15.5q0 -43 -1.5 -85.5t-3.5 -85.5q6 -2 14.5 -4t13.5 -6q-2 2 -2 7v7q0 20 14.5 34t34.5 14q19 0 30 -11.5t16 -28.5t6 -35.5
t1 -33.5t-2 -42t-9.5 -53.5t-21.5 -45.5t-39 -19q-22 0 -33 16.5t-11 36.5q0 10 6.5 25.5t8.5 26.5l-34 14q-5 -65 -12.5 -130t-19.5 -129q30 1 60 5t59 10q1 5 1 14q0 12 -1.5 24.5t-1.5 26.5q0 20 14 31.5t33 11.5t29 -7.5t14.5 -19t5.5 -25.5t1 -28q0 -11 -1 -35.5
t-3 -51t-5.5 -49.5t-8.5 -31q-8 -11 -19.5 -20.5t-26.5 -9.5q-17 0 -32 12.5t-15 29.5q0 6 1 12.5t4 15.5l-70 -8t-71 -4q-70 0 -140.5 8.5t-139.5 22.5q-17 4 -27.5 18t-10.5 34q0 21 17 32t35 11q6 0 13.5 -2t13.5 -3q0 132 13.5 263t34.5 262q-7 0 -13.5 0.5t-14.5 0.5
q-17 0 -31.5 14t-14.5 32q0 25 16.5 37t39.5 12q103 0 204 -9t199 -43q0 24 14 38.5t31 14.5q21 0 32 -11t16.5 -28t6.5 -37t1 -37z" />
    <glyph glyph-name="f" unicode="f" horiz-adv-x="648" 
d="M632 624q0 -17 -2.5 -43t-9.5 -50t-20.5 -41t-34.5 -17q-19 0 -33.5 14.5t-14.5 33.5q0 13 5.5 28t7.5 29q-28 12 -57.5 20.5t-58.5 15.5q0 -43 -1.5 -85.5t-3.5 -85.5q6 -2 14.5 -4t13.5 -6q-2 2 -2 7v7q0 20 14.5 34t34.5 14t30.5 -12.5t15.5 -30t6 -37t1 -33.5
q0 -15 -2 -41.5t-9.5 -52t-22 -44t-38.5 -18.5q-22 0 -33 16.5t-11 36.5q0 10 6.5 25.5t8.5 26.5l-34 14q-5 -65 -13 -129.5t-19 -128.5h13q26 0 42.5 -10t16.5 -38q0 -29 -19.5 -38t-42.5 -9q-80 0 -162.5 6t-160.5 23q-20 5 -30.5 19t-10.5 30q0 17 13 31.5t42 14.5
q6 0 13.5 -2t13.5 -3q0 132 13.5 263t34.5 262q-7 0 -13.5 0.5t-14.5 0.5q-17 0 -31.5 14t-14.5 32q0 25 16.5 37t39.5 12q103 0 204 -9t199 -43q0 26 14 39.5t31 13.5q21 0 32 -11t16.5 -27.5t6.5 -35.5t1 -35z" />
    <glyph glyph-name="g" unicode="g" horiz-adv-x="738" 
d="M673 226q0 -20 -3 -58.5t-9 -78.5t-15 -72.5t-21 -41.5q-8 -6 -16 -8t-18 -2q-7 0 -18 5.5t-22.5 13t-21.5 14.5t-15 10q-64 -23 -132 -23q-77 0 -144 24.5t-116.5 70t-77.5 109.5t-28 143q0 78 26 147t73 120t113 81t146 30q48 0 94 -13.5t88 -37.5q-1 5 -1 11v11
q0 6 3 14.5t8.5 16t14 12.5t19.5 5q21 0 32.5 -12t17.5 -29.5t7 -38t1 -36.5q0 -17 -2 -48t-9.5 -61t-22.5 -52.5t-42 -22.5q-17 0 -30 13.5t-13 30.5t7 33t10 33q-10 10 -22.5 21t-26 20t-28 15t-29.5 6q-28 0 -49 -17.5t-35.5 -45.5t-23.5 -64t-14 -74t-7 -74.5t-2 -64.5
q0 -21 2 -50t9.5 -56t22 -48t40.5 -26l17 194q-4 0 -7.5 -0.5t-7.5 -0.5q-20 0 -37 12.5t-17 34.5q0 15 12.5 25.5t34 17.5t49.5 10.5t59 3.5q39 0 79.5 -5.5t73 -16t53 -26t20.5 -34.5t-14.5 -32t-34.5 -13v-25z" />
    <glyph glyph-name="h" unicode="h" horiz-adv-x="854" 
d="M790 589q-9 0 -17.5 3t-17.5 5q-3 -269 -45 -538h23q20 0 35 -12.5t15 -32.5q0 -18 -8.5 -28.5t-22 -16t-30 -7t-32.5 -1.5q-78 0 -138.5 7t-114.5 24q-16 5 -25.5 17.5t-9.5 29.5q0 16 12 29t27 17q0 58 2 115.5t8 114.5l-60 5q-12 -114 -30 -228q15 -5 25 -16.5
t10 -27.5q0 -18 -8 -28.5t-21 -16t-29 -7t-31 -1.5q-81 0 -141.5 6.5t-114.5 23.5q-15 5 -25 17.5t-10 28.5q0 22 15.5 35t35.5 13q5 0 11.5 -1t11.5 -3q0 134 13 267t35 265h-18q-19 0 -34 13t-15 32q0 18 7 28.5t18 15.5t25 6.5t28 1.5q75 0 142.5 -5t126.5 -22
q17 -5 25 -19t8 -30q0 -18 -14 -31t-31 -13q0 -53 -2 -105t-6 -105l61 -5q6 52 13 103.5t16 103.5q-13 5 -22 17t-9 26q0 17 7 27t18.5 15.5t26 7t28.5 1.5q36 0 73 -1.5t72.5 -5t66.5 -8.5t55 -12q17 -5 25.5 -19t8.5 -31q0 -19 -15 -31.5t-33 -12.5z" />
    <glyph glyph-name="i" unicode="i" horiz-adv-x="468" 
d="M389 617q-2 -136 -12.5 -269.5t-33.5 -267.5h7q17 0 31.5 -14t14.5 -31q0 -18 -8.5 -29t-22 -16.5t-30 -7t-32.5 -1.5q-78 0 -138.5 7.5t-113.5 23.5q-15 5 -25 17.5t-10 28.5q0 21 13.5 34.5t33.5 13.5q7 0 10 -1q0 134 12 267t35 266q-21 0 -35 14t-14 32q0 20 14 31
t34.5 16t44 6t42.5 1q52 0 106.5 -6t104.5 -23q15 -5 25 -18t10 -30q0 -22 -15 -34t-35 -12q-5 0 -13 2z" />
    <glyph glyph-name="j" unicode="j" horiz-adv-x="643" 
d="M580 618q0 -75 -1.5 -150.5t-6.5 -150.5q-4 -69 -17.5 -130.5t-44 -107t-82.5 -72.5t-133 -27q-54 0 -104 11t-89 35.5t-62.5 64.5t-23.5 98q0 44 28.5 72.5t71.5 28.5q19 0 35.5 -7.5t29 -20.5t19.5 -30t7 -36q0 -29 -14.5 -51t-40.5 -35q10 -7 25.5 -13.5t30.5 -6.5
q11 0 19.5 4.5t13.5 15.5q7 16 12.5 55.5t9 91t5.5 109.5t3 112.5t1.5 98.5t0.5 68q-5 0 -8.5 -0.5t-8.5 -0.5q-19 0 -31.5 14.5t-12.5 32.5t9 28.5t22.5 16t30.5 7t33 1.5q70 0 141.5 -5.5t143.5 -26.5q35 -11 35 -48q0 -19 -14.5 -31.5t-32.5 -14.5z" />
    <glyph glyph-name="k" unicode="k" horiz-adv-x="852" 
d="M780 585q-12 0 -24.5 4t-25.5 6q-23 -36 -53 -66t-65 -55q30 -48 56 -97.5t44.5 -102t29.5 -108.5t11 -117q5 1 9.5 1.5t9.5 0.5q19 0 36 -12.5t17 -32.5q0 -19 -9 -29.5t-23 -16t-30.5 -6.5t-31.5 -1q-77 0 -148 7t-140 27q-17 5 -28 17t-11 30q0 15 10 27t24 17
q0 55 -20.5 108t-47.5 100l-27 -198q20 0 36.5 -11t16.5 -34q0 -20 -7.5 -30.5t-19.5 -15t-27 -5.5l-30 -2q-66 0 -130.5 5t-131.5 25q-15 5 -24.5 17.5t-9.5 28.5q0 23 15.5 36t37.5 13l4 -1q3 135 14.5 266.5t32.5 265.5q-19 0 -34 13.5t-15 32.5q0 21 8.5 31t22 14.5
t29.5 5.5t31 2q64 0 127 -3.5t129 -24.5q17 -5 25 -18.5t8 -30.5q0 -21 -15 -33t-34 -12q-5 0 -13 2l-6 -185q51 29 92 71t64 96q-6 -1 -12.5 -1.5t-12.5 -0.5q-20 0 -37 13t-17 34t15 33t36.5 17.5t46 6.5t44.5 1q13 0 35 -0.5t48 -3t53 -8t48.5 -15t35.5 -23.5t14 -34
q0 -11 -5.5 -18.5t-14 -12.5t-18.5 -7.5t-18 -2.5z" />
    <glyph glyph-name="l" unicode="l" horiz-adv-x="597" 
d="M581 128q0 -30 -1 -64.5t-7.5 -63.5t-20 -48.5t-38.5 -19.5q-21 0 -31.5 14.5t-10.5 33.5q0 5 1 10.5t2 10.5q-35 -5 -71 -8t-72 -3q-86 0 -156 8t-122 22q-38 11 -38 53q0 20 17 31t34 11q1 0 5 -1t9 -1.5t9.5 -1.5l4.5 -1q2 131 14 261t32 260q-8 -1 -16.5 -2t-16.5 -1
q-19 0 -32.5 13.5t-13.5 32.5q0 18 8.5 28.5t21.5 16.5t29.5 7.5t32.5 1.5q77 0 155.5 -5t157.5 -30q20 -6 26.5 -20t6.5 -32q0 -20 -17 -31t-34 -11q-9 0 -18.5 4t-18.5 5q0 -132 -13 -262t-32 -261q59 4 119 16q1 4 1 14q0 11 -1.5 22.5t-1.5 25.5q0 20 14 32.5t34 12.5
q18 0 28 -7.5t14.5 -19t5.5 -26t1 -27.5z" />
    <glyph glyph-name="m" unicode="m" horiz-adv-x="974" 
d="M898 585q-1 -137 -13 -271.5t-32 -270.5q23 0 36 -14t13 -31q0 -18 -8 -28.5t-21 -16t-29 -7t-31 -1.5q-30 0 -74 2.5t-87 8.5t-77 15t-44 23q-9 13 -9 31q0 23 15 33.5t34 10.5q3 0 5.5 -0.5t5.5 -0.5q0 52 2.5 103.5t6.5 102.5q-29 -66 -60.5 -130t-65.5 -127
q-4 -8 -13 -12.5t-19.5 -6.5t-21.5 -3t-18 -1q-20 0 -42 7t-30 27q-35 88 -60 179t-47 183q-7 -73 -11 -146t-4 -146h23q20 0 34 -12t14 -32q0 -30 -16.5 -41t-42.5 -11q-40 0 -81.5 4.5t-79.5 13.5q-18 4 -26 18t-8 31q0 21 17 33t35 12q8 0 17.5 -1.5t17.5 -3.5
q0 137 13.5 272.5t35.5 270.5q-7 0 -13.5 -1t-12.5 -1q-23 0 -34.5 13.5t-11.5 35.5q0 21 13.5 31.5t35.5 15t49 4.5h54q19 0 54.5 -1.5t71 -7.5t64.5 -19t36 -35q12 -38 22 -76.5t19 -76.5q10 -38 17.5 -77t14.5 -78q22 57 43.5 114t42.5 114q-17 2 -28.5 15.5t-11.5 30.5
q0 18 9.5 29t24 16.5t32.5 7t35 1.5q78 0 136.5 -7t109.5 -23q17 -5 25.5 -18.5t8.5 -31.5q0 -19 -14.5 -31.5t-32.5 -12.5q-5 0 -13 2z" />
    <glyph glyph-name="n" unicode="n" horiz-adv-x="749" 
d="M687 608q-12 0 -22.5 2.5t-21.5 4.5q-1 -148 -13 -298t-41 -296q-4 -18 -18.5 -28.5t-37.5 -10.5q-12 0 -37.5 0.5t-52 4t-48 10.5t-25.5 20q-11 30 -21.5 60t-21.5 59q-29 78 -61 154t-58 154q-9 -87 -14.5 -172t-5.5 -172h25q20 0 38 -11t18 -34q0 -32 -20 -42t-45 -10
q-39 0 -74.5 3t-80.5 14q-18 5 -25.5 20t-7.5 29q0 22 15.5 34t35.5 12q5 0 12.5 -0.5t12.5 -2.5q3 139 15 272.5t34 270.5q-7 -1 -14.5 -2t-14.5 -1q-19 0 -33 13t-14 33q0 18 10 29t25 16.5t33.5 7t35.5 1.5q83 0 149 -21t113 -58.5t75.5 -89t37.5 -113.5q2 38 2.5 75
t1.5 75q-5 0 -11 -0.5t-11 -0.5q-20 0 -34 13t-14 33q0 33 20 42t47 9q13 0 40 -1t55.5 -4.5t52.5 -10t31 -16.5q9 -13 9 -33q0 -18 -14.5 -30.5t-31.5 -12.5z" />
    <glyph glyph-name="o" unicode="o" 
d="M380 -13q-86 0 -154 29.5t-114.5 79t-71 114t-24.5 135.5q0 76 23 145.5t66.5 123t107 85t145.5 31.5q73 0 137.5 -30.5t112 -81t75 -117t27.5 -138.5q0 -71 -24.5 -139t-68 -120.5t-104.5 -84.5t-133 -32zM311 77q16 0 31.5 32.5t28.5 83t24 112t18.5 119.5t12 105
t4.5 69q0 14 -3.5 27t-20.5 13q-14 0 -28 -31.5t-26.5 -80.5t-24 -108.5t-19.5 -114t-12.5 -97.5t-4.5 -60q0 -5 0.5 -16t2.5 -23t6 -21t11 -9z" />
    <glyph glyph-name="p" unicode="p" horiz-adv-x="725" 
d="M362 185q-3 -25 -7.5 -49.5t-7.5 -49.5q16 0 32 -12.5t16 -32.5q0 -19 -9 -29.5t-25.5 -16t-38.5 -7t-49 -1.5q-52 0 -113 7t-111 24q-17 6 -25 19.5t-8 30.5q0 20 16.5 32t34.5 12q0 137 13.5 272.5t35.5 271.5q-9 0 -18 -0.5t-18 -0.5q-20 0 -31.5 14.5t-11.5 32.5
l-1 4q0 16 7 25.5t17.5 13.5t23.5 5t25 1q49 0 112.5 -2.5t130.5 -12.5t131 -29t114 -52t81 -82.5t31 -118.5q0 -71 -25.5 -122t-68.5 -84t-100 -48.5t-119 -15.5h-16.5t-17.5 1zM458 488q0 6 -1 22t-3.5 33.5t-8 30.5t-14.5 13q-10 0 -17.5 -11.5t-13 -30t-9.5 -40t-6 -42
t-3 -37t-1 -23.5q0 -6 0.5 -22t3.5 -32.5t8 -29.5t14 -13q15 0 24.5 24.5t15.5 56t8.5 61t2.5 40.5z" />
    <glyph glyph-name="q" unicode="q" 
d="M245 10q-49 19 -91 54t-72.5 80t-48 96.5t-17.5 104.5q0 76 23 145.5t66.5 123t107 85t145.5 31.5q73 0 137.5 -30.5t112 -81t75 -117t27.5 -138.5q0 -71 -24.5 -138.5t-68 -120.5t-104 -85t-132.5 -32q-17 0 -34 1t-34 4q0 -8 1 -15t1 -15q0 -25 -7.5 -52.5t-22.5 -50
t-37.5 -37.5t-51.5 -15q-27 0 -49.5 10.5t-39.5 28.5t-28.5 41.5t-15.5 49.5l16 12q14 -10 30.5 -16.5t33.5 -6.5q18 0 35 6.5t31 17.5t23.5 26.5t12.5 33.5zM311 77q16 0 31.5 32.5t29 83t25 112t19.5 119.5t12.5 105t4.5 69q0 14 -5 27t-22 13q-13 0 -27 -31.5t-27 -80.5
t-24.5 -108t-20.5 -113.5t-14 -97.5t-5 -60q0 -32 4.5 -51t18.5 -19z" />
    <glyph glyph-name="r" unicode="r" horiz-adv-x="823" 
d="M807 5q0 -18 -9 -28.5t-25 -16t-38.5 -7t-50.5 -1.5q-12 0 -34 1t-48 3.5t-54 6t-52.5 9t-43 13t-25.5 16.5q-6 8 -8 15.5t-2 16.5q0 3 1 8.5t5 12.5q1 15 2.5 38.5t1.5 52.5q0 19 -1.5 38t-5 35t-10 28.5t-16.5 18.5q-5 -46 -11 -91t-14 -90q16 -4 26.5 -15.5
t10.5 -28.5q0 -18 -9 -28.5t-25 -16t-38.5 -7t-49.5 -1.5q-15 0 -40.5 0.5t-55.5 3.5t-60.5 8t-55.5 13.5t-40.5 21.5t-15.5 32q0 20 14.5 34t34.5 14q5 0 11.5 -2.5t11.5 -4.5q2 138 14 273.5t37 271.5q-11 1 -20 1.5t-20 0.5q-20 0 -33.5 13.5t-13.5 33.5q0 18 5.5 28
t14.5 15t21 6t25 1q36 0 69.5 -1.5t70 -4.5t77 -7t89.5 -10q53 -6 108 -20.5t100 -42.5t73.5 -71.5t28.5 -106.5q0 -124 -108 -183q63 -37 88 -95t25 -126v-16.5t-1 -16.5h16q22 0 37.5 -11t15.5 -34zM457 506q0 6 -0.5 19.5t-3.5 27.5t-9.5 24.5t-17.5 10.5
q-13 -5 -21.5 -21.5t-13 -37.5t-6.5 -41t-2 -32q0 -7 1 -21t4 -27.5t9 -24t16 -10.5q12 0 20.5 17.5t14 40.5t7.5 44.5t2 30.5z" />
    <glyph glyph-name="s" unicode="s" horiz-adv-x="663" 
d="M533 480q-20 0 -36.5 11.5t-16.5 34.5q0 14 5.5 23.5t13.5 20.5q-13 15 -25 27.5t-25.5 21.5t-30 14t-38.5 5q-16 0 -31.5 -11t-15.5 -28q0 -13 10 -26t24.5 -25t29.5 -22.5t25 -18.5q33 -29 63.5 -59.5t58.5 -63.5q29 -35 42 -74.5t13 -84.5q0 -56 -24 -100.5t-63 -76
t-89 -48t-102 -16.5h-7q-24 0 -51.5 3t-55 9.5t-53 16t-45.5 22.5q-5 -14 -18 -22t-27 -8q-18 0 -33 12.5t-15 31.5q0 17 2.5 51.5t10 69.5t22.5 61.5t41 26.5q23 0 35 -15.5t12 -37.5q0 -3 -2 -12t-5 -18.5l-6 -19t-4 -14.5q29 -24 62.5 -40.5t72.5 -16.5q27 0 43 21.5
t16 46.5q0 22 -18.5 45.5t-47 50.5t-61 57.5t-61 66.5t-47 77t-18.5 89q0 55 21.5 94.5t56.5 64.5t81 36.5t95 11.5q29 0 60 -5.5t61 -16t57.5 -26t48.5 -35.5q5 10 8.5 20t9 18.5t14 13.5t23.5 5q19 0 33.5 -14t14.5 -33q0 -13 -12 -44.5t-29.5 -64.5t-37.5 -58t-35 -25z
" />
    <glyph glyph-name="t" unicode="t" horiz-adv-x="696" 
d="M680 623q0 -15 -2 -40t-9.5 -49.5t-21 -42t-37.5 -17.5q-18 0 -31.5 15.5t-13.5 32.5q0 11 5.5 27t6.5 30q-48 20 -97 32q-2 -136 -13.5 -268.5t-32.5 -266.5q21 0 37 -11t16 -34q0 -18 -9 -28.5t-25.5 -16t-39 -7t-49.5 -1.5q-54 0 -112.5 6.5t-109.5 23.5
q-15 5 -25 18.5t-10 29.5q0 22 16.5 35t40.5 13q0 134 12.5 266t35.5 264q-25 -2 -49.5 -5.5t-48.5 -9.5q0 -12 1.5 -24t1.5 -23q0 -22 -13.5 -36t-35.5 -14q-19 0 -29.5 10.5t-15.5 26.5t-6 33t-1 31q0 31 6.5 65t17.5 63q5 14 18.5 22.5t27.5 8.5q18 0 32.5 -13.5
t14.5 -31.5q0 -6 -1 -10.5t-1 -6.5q38 7 76.5 10t76.5 3q75 0 150 -12.5t145 -39.5q0 26 14.5 39.5t31.5 13.5q20 0 31 -10.5t16.5 -26.5t6.5 -36t1 -38z" />
    <glyph glyph-name="u" unicode="u" horiz-adv-x="688" 
d="M625 610q-8 0 -16 1.5t-16 2.5q5 -57 9 -113.5t4 -113.5q0 -48 -4.5 -97.5t-16.5 -95.5t-32.5 -86.5t-52 -70.5t-75.5 -47.5t-103 -17.5q-77 0 -134 23t-94 66t-55 104.5t-18 138.5q0 88 15.5 173.5t35.5 170.5h-7q-22 0 -35.5 11.5t-13.5 34.5q0 18 8 28.5t21 16.5
t29 7.5t32 1.5q69 0 139 -5.5t140 -27.5q28 -8 33 -37q5 27 23.5 33t41.5 6q15 0 46.5 -1t63 -7t55.5 -19t24 -37q0 -20 -14 -31.5t-33 -11.5zM497 621q-9 0 -18 -0.5t-17 -0.5q-17 0 -28.5 12t-15.5 27q-5 -18 -19 -27.5t-34 -9.5q-6 -48 -15 -95.5t-17.5 -95.5t-14 -96
t-5.5 -97q0 -17 2.5 -43.5t10.5 -52t22 -44t38 -18.5q29 0 49 18t34 46.5t22 63.5t12.5 69.5t5.5 65t1 48.5q0 58 -4 115t-9 115z" />
    <glyph glyph-name="v" unicode="v" horiz-adv-x="722" 
d="M660 606q-7 0 -13.5 1t-13.5 2q-17 -83 -41 -160.5t-59 -154.5q-35 -73 -71.5 -144.5t-78.5 -140.5q-14 -23 -48 -23q-14 0 -30.5 1t-31.5 4.5t-26.5 12t-15.5 23.5l-153 625q-4 0 -7.5 -0.5t-7.5 -0.5q-19 0 -33 13t-14 32q0 18 8.5 29t22 17t30 7.5t32.5 1.5
q74 0 152.5 -4.5t154.5 -29.5q15 -5 25 -18.5t10 -29.5q0 -18 -12.5 -31t-29.5 -15l52 -213q16 50 26.5 102.5t10.5 104.5q-18 0 -32.5 13t-14.5 33q0 32 20 41.5t46 9.5q28 0 61 -1t61.5 -7t47.5 -19t19 -37q0 -19 -14 -31.5t-32 -12.5z" />
    <glyph glyph-name="w" unicode="w" horiz-adv-x="1090" 
d="M1026 582q-5 0 -11.5 0.5t-11.5 2.5q-14 -80 -39.5 -158t-58.5 -153t-72 -147.5t-81 -140.5q-10 -16 -25.5 -20.5t-32.5 -4.5q-11 0 -26 2t-29 6.5t-25 13t-14 20.5l-71 294l-120 -277q-4 -10 -14.5 -15.5t-23 -8.5t-25 -4t-21.5 -1q-12 0 -28 2t-31 7.5t-26.5 14
t-14.5 22.5l-140 625q-11 -3 -22 -3q-19 0 -33 13t-14 33q0 18 8.5 28.5t22 16.5t30 7.5t33.5 1.5q28 0 71 -1t88 -5t86.5 -11t66.5 -20q25 0 47.5 2t45.5 2q66 0 136.5 -6.5t134.5 -26.5q14 -5 22.5 -15t11.5 -24q8 26 24.5 32t39.5 6t55.5 -1t62.5 -7.5t51 -20t21 -38.5
q0 -19 -15.5 -31t-32.5 -12zM447 628q-12 0 -23.5 1.5t-23.5 1.5l58 -256l33 75zM867 593q-20 0 -33 13t-16 29q-3 -15 -14.5 -25t-26.5 -11l54 -213q16 51 26 102.5t10 104.5z" />
    <glyph glyph-name="x" unicode="x" horiz-adv-x="733" 
d="M700 12q0 -17 -7 -26.5t-18 -14t-24 -5.5t-26 -1q-78 0 -152.5 5.5t-142.5 22.5q-15 4 -24.5 16t-9.5 27q0 23 16 38l-44 148q-17 -30 -26 -62.5t-11 -67.5q16 -4 27.5 -16.5t11.5 -29.5t-5.5 -26.5t-15 -14.5t-21.5 -6.5t-25 -1.5q-38 0 -77.5 3t-76.5 12q-33 9 -33 44
q0 20 13 35t34 15q6 0 12.5 -1.5t12.5 -3.5q19 76 54 133t95 108l-109 311q-6 -2 -13.5 -2h-14.5q-23 0 -35.5 12.5t-12.5 35.5q0 17 6 27t15.5 14.5t21.5 5.5t25 1q80 0 156.5 -5t145.5 -23q16 -5 25 -17.5t9 -28.5q0 -26 -21 -39l52 -133q17 45 17 92q0 7 -0.5 13.5
t-1.5 13.5q-19 3 -29 16t-10 31q0 33 19.5 42.5t46.5 9.5q22 0 54.5 -1t62 -7t50.5 -19t21 -37q0 -20 -14 -34t-34 -14q-4 0 -8.5 0.5t-7.5 0.5q-16 -63 -49 -119.5t-71 -108.5l114 -320q23 0 38 -11.5t15 -36.5z" />
    <glyph glyph-name="y" unicode="y" 
d="M648 619q-7 -43 -24.5 -87t-40 -87t-48 -83.5t-49.5 -76.5q-6 -54 -12.5 -106t-14.5 -106q21 0 36.5 -10.5t15.5 -33.5q0 -18 -8.5 -28t-21.5 -15.5t-27.5 -7t-27.5 -1.5q-50 0 -102.5 1.5t-95.5 9t-70 23.5t-27 45q0 21 17.5 32t39.5 11q1 102 9 204l-122 361
q-22 0 -40.5 9.5t-18.5 35.5q0 18 6 28t16 15t22.5 6t25.5 1h19q72 0 147 -6t144 -23q17 -5 25.5 -18t8.5 -30q0 -14 -4 -22.5t-21 -17.5l60 -175q14 38 29.5 75t15.5 79q0 6 -2 9q-20 0 -36.5 12.5t-16.5 34.5q0 32 20.5 40t46.5 8q23 0 55.5 -1t62 -7t50 -18t20.5 -34
q0 -19 -13.5 -33.5t-34.5 -14.5q-3 0 -7 1t-7 1z" />
    <glyph glyph-name="z" unicode="z" horiz-adv-x="636" 
d="M342 89q37 1 74 4.5t73 11.5q1 14 1 28v28q0 26 15.5 38.5t36.5 12.5q19 0 31.5 -12t12.5 -31q0 -32 -1.5 -72.5t-8.5 -76t-22.5 -59.5t-43.5 -24q-17 0 -31 12.5t-14 29.5q0 8 3 14t5 13q-36 -6 -72 -8.5t-73 -2.5q-69 0 -138.5 8t-137.5 22q-16 3 -26 13.5t-10 27.5
q0 8 1 15t5 14q70 135 142 268t144 267h-24q-35 0 -69 -4.5t-68 -11.5q0 -7 -0.5 -25t-0.5 -33q0 -27 -15 -38t-37 -11q-25 0 -35 16.5t-10 38.5q0 15 0.5 37t2.5 47t6.5 49t13 44t21.5 32t32 12q17 0 31 -12t14 -30q0 -7 -2.5 -13t-5.5 -15q36 7 73 10t74 3
q68 0 138.5 -8.5t136.5 -23.5q17 -4 26.5 -15.5t9.5 -28.5q0 -14 -6 -26l-272 -535v0z" />
    <glyph glyph-name="braceleft" unicode="{" horiz-adv-x="363" 
d="M347 -119q-18 0 -40 1.5t-44.5 5t-43 10.5t-34.5 19q-30 24 -37.5 64t-7.5 85q0 15 0.5 30.5t0.5 30.5q0 35 -4 66.5t-20 53.5q-8 11 -20 18.5t-25.5 12t-28 7t-27.5 3.5v44q26 2 55 10.5t46 30.5q16 21 20 53.5t4 68.5v58q0 46 7 86.5t36 64.5q15 12 35.5 19t43 11
t44.5 5t40 1v-35q-20 0 -40 -5.5t-30 -24.5q-12 -22 -14 -59t-2 -79t-2 -84t-14 -75q-11 -29 -36 -44.5t-53 -23.5q28 -8 53 -23t36 -44q13 -34 15 -77.5t2 -86.5q0 -39 1.5 -69.5t10 -51t25.5 -31.5t48 -11v-35v0z" />
    <glyph glyph-name="braceright" unicode="}" horiz-adv-x="363" 
d="M347 288q-26 -2 -55 -10t-45 -30q-17 -23 -21 -54.5t-4 -67.5v-61q0 -44 -7 -84.5t-36 -63.5q-15 -12 -35.5 -18.5t-43 -10.5t-44.5 -5t-40 -1v33q20 1 40 6.5t30 24.5q11 22 13 58.5t2 78.5t2.5 84t14.5 75q11 29 35.5 44.5t53.5 23.5q-28 8 -53 23.5t-36 44.5
q-12 33 -14.5 75t-2.5 84t-2 78.5t-13 58.5q-11 20 -30.5 25.5t-39.5 5.5v35q18 0 40 -1t44.5 -5t43 -10.5t34.5 -18.5q30 -25 37 -66t7 -87v-59q0 -36 4 -67.5t20 -52.5q17 -22 46 -30t55 -11v-44v0z" />
    <glyph glyph-name="asciitilde" unicode="~" horiz-adv-x="692" 
d="M676 315q-41 -27 -86 -46t-95 -19q-38 0 -73.5 9.5t-71 21.5t-72 21.5t-75.5 9.5q-51 0 -98.5 -24t-88.5 -53v96q46 29 95 49.5t104 20.5q39 0 75.5 -10t71.5 -21.5t68.5 -21.5t66.5 -10q51 0 95 22t84 51v-96v0z" />
    <glyph glyph-name="exclamdown" unicode="&#xa1;" horiz-adv-x="418" 
d="M394 -138q0 -22 -16.5 -37t-42.5 -25.5t-58.5 -16t-64 -9t-58.5 -5.5t-43 -4q-15 0 -30.5 1t-28 6.5t-20.5 16.5t-8 31q0 5 6 37t15.5 77.5t20.5 99t21.5 101.5t18 84t9.5 47q3 13 10.5 21t18 12.5t23 5.5t24.5 1h24q12 0 23.5 -1.5t21.5 -6t17 -13t9 -21.5l57 -351h7
q20 0 32 -15.5t12 -35.5zM325 423q0 -21 -11.5 -36.5t-29 -25.5t-38 -15t-38.5 -5t-38.5 5t-38 15t-29.5 25.5t-12 36.5q0 22 11.5 37.5t29.5 25.5t38.5 15t38.5 5t38.5 -5t38 -15t29 -25.5t11.5 -37.5z" />
    <glyph glyph-name="cent" unicode="&#xa2;" horiz-adv-x="499" 
d="M304 -3q0 -16 -11.5 -27t-27.5 -11q-17 0 -27.5 11.5t-10.5 27.5v74q-51 9 -89 35.5t-63.5 64t-38 84t-12.5 94.5t13 94.5t38.5 85.5t63.5 66.5t88 36.5v87q0 16 11 27t27 11t27.5 -11t11.5 -27v-85q37 -4 73 -23q-3 7 -3 18q0 15 11 26t26 11q18 0 27.5 -14t14 -33.5
t5.5 -40t1 -33.5q0 -12 -1 -31.5t-6 -37.5t-15 -31t-29 -13q-17 0 -25 14t-8 28q0 9 3.5 21t4.5 22q-10 9 -24 19.5t-28 10.5q-23 0 -35.5 -21.5t-18.5 -52t-7 -65t-1 -60.5q0 -32 1 -66t7 -62.5t18.5 -46.5t35.5 -18q19 0 32.5 11t25.5 24.5t24 24.5t27 11t25 -12t10 -26
q0 -13 -7 -21q-32 -40 -72 -66t-92 -32v-73z" />
    <glyph glyph-name="sterling" unicode="&#xa3;" horiz-adv-x="614" 
d="M590 221q0 -19 -0.5 -48t-3 -61.5t-8 -65.5t-14.5 -59.5t-23 -43t-34 -16.5q-17 0 -31 14.5t-14 31.5q0 8 3.5 19t5.5 19q-34 5 -68 7t-68 2q-27 0 -56.5 -4t-59.5 -8.5t-59 -8t-55 -3.5q-13 0 -22.5 6.5t-16 17t-10 22t-3.5 22.5q0 23 7.5 38t19.5 25.5t25 18.5t25 18
t19.5 24t7.5 36q0 19 -5 36.5t-12 34.5h-77q-16 0 -27.5 11.5t-11.5 27.5q0 17 11.5 27.5t31.5 10.5h35q-9 15 -18 33t-17 37t-13 38.5t-5 36.5q0 52 22 91t57.5 65t80.5 39t92 13q35 0 70 -7t66 -22t56.5 -38.5t43.5 -55.5q6 -11 6 -23q0 -20 -14.5 -33.5t-34.5 -13.5
q-18 0 -27.5 10t-18.5 22t-21 22t-36 10q-18 0 -31.5 -8t-22.5 -21t-13 -28.5t-4 -31.5q0 -35 9 -68t15 -67h101q16 0 27 -11t11 -27t-11 -27.5t-27 -11.5h-96q-2 -50 -22 -92q10 2 29 4.5t40.5 5t42.5 4.5t37 2q14 0 19 -1q0 10 -1.5 19.5t-1.5 18.5q0 20 12.5 35t32.5 15
q19 0 29.5 -8t16 -20.5t6.5 -27.5t1 -29z" />
    <glyph glyph-name="currency" unicode="&#xa4;" horiz-adv-x="584" 
d="M370 -5q-48 0 -91.5 15.5t-78.5 43.5t-60 66.5t-36 85.5h-49q-14 0 -22.5 8t-8.5 19q0 29 31 29h43v9h-43q-14 0 -22.5 8.5t-8.5 21.5q0 26 31 26h49q11 46 36 85t60 67.5t78.5 44t91.5 15.5q49 0 96.5 -17.5t83.5 -50.5q9 -8 9 -19t-9 -20t-20 -9q-7 0 -20 9.5
t-32.5 20.5t-46 20.5t-61.5 9.5q-36 0 -69 -11.5t-60.5 -32t-48 -49.5t-30.5 -63h265q11 0 20 -7t9 -19q0 -14 -7.5 -22t-21.5 -8h-273v-9h233q12 0 20.5 -7t8.5 -20q0 -14 -8 -21.5t-21 -7.5h-225q10 -35 30.5 -63.5t48 -49t60.5 -32t69 -11.5q33 0 60 9.5t47 21t34 21
t21 9.5q11 0 19.5 -8.5t8.5 -19.5q0 -6 -3 -11t-7 -9q-35 -33 -83.5 -50.5t-96.5 -17.5z" />
    <glyph glyph-name="yen" unicode="&#xa5;" horiz-adv-x="745" 
d="M663 646q-3 -37 -13.5 -75t-25 -76t-31.5 -74t-34 -69h80q17 0 28 -10.5t11 -27.5t-11 -27.5t-28 -10.5h-108v-10t-1 -10h109q17 0 28 -11t11 -28t-11 -27.5t-28 -10.5h-112q0 -23 -1.5 -46t-3.5 -46q3 1 10 1q20 0 33.5 -14t13.5 -34q0 -14 -11 -30t-27 -16q-42 0 -83 3
t-83 3q-35 0 -69.5 -2.5t-69.5 -2.5q-18 0 -28.5 18t-10.5 33q0 19 17 31t36 12q-1 23 -2.5 45t-2.5 45h-105q-16 0 -27 11t-11 27t11 27.5t27 11.5h102q-1 5 -1 10v10h-101q-16 0 -27 11t-11 27t11 27t27 11h75l-127 290q-5 -1 -14 -1q-21 0 -35.5 13t-14.5 35
q0 17 9.5 27.5t24.5 16t34 7t38 1.5h219q16 0 32 -1.5t29 -7t21.5 -17t8.5 -30.5q0 -11 -6.5 -21t-14.5 -15l75 -169q8 37 21 73t13 75v9t-1 9q-3 -1 -8 -1q-22 0 -37.5 12.5t-15.5 35.5q0 16 6 25.5t16.5 14.5t24 7t28.5 2q42 0 75.5 -1t56.5 -6t35.5 -16t12.5 -30
q0 -20 -17 -31.5t-34 -11.5h-7z" />
    <glyph glyph-name="brokenbar" unicode="&#xa6;" horiz-adv-x="500" 
 />
    <glyph glyph-name="dieresis" unicode="&#xa8;" horiz-adv-x="343" 
d="M161 865q0 -29 -20 -48.5t-49 -19.5t-48.5 19.5t-19.5 48.5t19.5 49t48.5 20t49 -20t20 -49zM319 865q0 -29 -20 -48.5t-49 -19.5q-28 0 -48.5 19.5t-20.5 48.5t20 49t49 20t49 -20t20 -49z" />
    <glyph glyph-name="copyright" unicode="&#xa9;" horiz-adv-x="776" 
d="M752 381q0 -76 -28.5 -142t-78 -115.5t-115.5 -78t-142 -28.5q-75 0 -141.5 28.5t-116 78t-78 116t-28.5 141.5q0 76 28.5 142.5t78 116t116 78t142.5 28.5q75 0 141.5 -29t115.5 -78.5t77.5 -116t28.5 -141.5zM703 381q0 65 -25 122.5t-67.5 100.5t-100 68t-122.5 25
q-66 0 -123.5 -25t-100 -67.5t-67.5 -100t-25 -123.5t25 -123t68 -100t100.5 -67.5t122.5 -24.5q64 0 121.5 25t100.5 68t68 100t25 122zM386 116q-51 0 -92 21.5t-69.5 57.5t-43.5 82.5t-15 96.5q0 49 14 94.5t42 80.5t69 55.5t94 20.5q41 0 76 -16q-2 5 -3 9t-1 9
q0 13 8.5 23t21.5 10t23.5 -10.5t17.5 -28t10.5 -39t3.5 -42.5q0 -16 -2.5 -31.5t-7.5 -28t-13 -20.5t-19 -8q-14 0 -22 11t-8 24q0 9 1.5 18.5t1.5 19.5q-11 8 -21.5 16t-24.5 8q-15 0 -24 -15t-13.5 -35t-5.5 -40.5t-1 -30.5q0 -11 0.5 -32.5t3 -47t7 -52t12 -48t18 -35.5
t26.5 -14q22 0 35.5 11.5t23.5 25t19 25t22 11.5t22 -11t9 -24q0 -10 -5 -16q-68 -105 -190 -105z" />
    <glyph glyph-name="guillemotleft" unicode="&#xab;" horiz-adv-x="342" 
d="M198 100q0 -10 -7 -17t-17 -7q-6 0 -11.5 3.5t-9.5 8.5l-125 167q-4 5 -4 14q0 3 1 7t3 7l125 167q9 12 22 12q11 0 17 -7t6 -17q0 -5 -6.5 -18t-16 -29.5t-21 -35.5t-22.5 -36.5t-20 -30.5t-12 -19l93 -153q5 -8 5 -16zM318 100q0 -10 -7 -17t-17 -7q-6 0 -11.5 3.5
t-9.5 8.5l-125 167q-4 5 -4 14q0 3 1 7t3 7l125 167q9 12 22 12q11 0 17 -7t6 -17q0 -5 -6.5 -18t-16 -29.5t-21 -35.5t-22.5 -36.5t-20 -30.5t-12 -19l93 -153q5 -8 5 -16z" />
    <glyph glyph-name="logicalnot" unicode="&#xac;" horiz-adv-x="633" 
d="M476 179v115h-452v130h585v-245h-133z" />
    <glyph glyph-name="registered" unicode="&#xae;" horiz-adv-x="450" 
d="M24 574q0 42 16 78.5t43 63.5t63.5 43t78.5 16t78.5 -16t63.5 -43t43 -63.5t16 -78.5t-16 -78.5t-43 -63.5t-63.5 -43t-78.5 -16t-78.5 16t-63.5 43t-43 63.5t-16 78.5zM43 574q0 -38 14.5 -71t39 -57.5t57.5 -39t71 -14.5q37 0 70.5 14.5t58 39t39 57.5t14.5 71
q0 37 -14.5 70.5t-39 58t-58 39t-70.5 14.5q-38 0 -71 -14.5t-57.5 -39t-39 -58t-14.5 -70.5zM356 466q0 -12 -11 -14.5t-30 -2.5q-6 0 -18.5 1t-26 2.5t-25 4.5t-14.5 8q-4 5 -4 11q0 1 3 6q0 5 0.5 13t0.5 17q0 13 -2 24.5t-9 14.5q-2 -15 -4 -29.5t-4 -29.5q12 -3 12 -14
q0 -12 -11.5 -14.5t-28.5 -2.5q-8 0 -22.5 0.5t-29 3t-25.5 7.5t-11 14q0 7 5 11.5t11 4.5q2 0 8 -2q0 45 4 89.5t13 89.5q-4 0 -7 0.5t-7 0.5q-7 0 -11 4.5t-4 10.5q0 12 6.5 14t14.5 2q24 0 46.5 -1.5t54.5 -5.5q17 -2 35 -7t33 -14t24.5 -23t9.5 -35q0 -41 -35 -61
q20 -12 28.5 -30.5t8.5 -41.5q0 -7 -1 -11h5q8 0 13 -3.5t5 -11.5zM241 631q0 5 -1.5 16t-8.5 11q-5 -2 -7.5 -7.5t-4.5 -12t-2.5 -13t-0.5 -10.5q0 -5 2 -16t9 -11q4 0 6.5 5.5t4 13t2.5 14.5t1 10z" />
    <glyph glyph-name="degree" unicode="&#xb0;" horiz-adv-x="347" 
d="M331 631q0 -33 -12.5 -61.5t-34 -49.5t-50 -33.5t-61.5 -12.5t-61.5 12t-50 33.5t-33.5 50t-12 61.5t12.5 61.5t34 50t50 34t61.5 12.5t61.5 -12.5t50 -33.5t33.5 -50t12 -62zM248 632q0 31 -22 52.5t-53 21.5t-52 -21.5t-21 -52.5t21 -53t53 -22q31 0 52.5 22t21.5 53z
" />
    <glyph glyph-name="plusminus" unicode="&#xb1;" horiz-adv-x="584" 
d="M16 0v100h552v-100h-552zM344 348v-151h-104v151h-224v100h224v151h104v-151h224v-100h-224z" />
    <glyph glyph-name="acute" unicode="&#xb4;" horiz-adv-x="321" 
d="M69 788q-19 0 -32.5 13.5t-13.5 32.5q0 11 5 20t12 16l161 160q13 13 31 13q15 0 29 -8t25.5 -20.5t18.5 -27.5t7 -29q0 -23 -21 -38l-190 -122q-15 -10 -32 -10z" />
    <glyph glyph-name="paragraph" unicode="&#xb6;" horiz-adv-x="458" 
d="M393 665v-739h-75v739h-52v-739h-75v469q-36 1 -67.5 11.5t-55.5 29.5t-38 48t-14 68t14 69t38 49.5t56.5 29.5t69.5 10h248v-45h-49z" />
    <glyph glyph-name="cedilla" unicode="&#xb8;" horiz-adv-x="271" 
d="M139 -233q-14 0 -34.5 4t-40.5 12t-34 20.5t-14 30.5q0 14 11.5 24.5t25.5 10.5q8 0 19.5 -4t25 -9t28 -9t29.5 -4q9 0 16 3t7 14q0 19 -19 19q-11 0 -22.5 -3.5t-23.5 -3.5q-17 0 -27.5 11.5t-10.5 27.5q0 7 8.5 23t19 33t21 31.5t13.5 20.5q11 19 33 19q12 0 25 -9
t13 -23t-7 -28.5t-15 -25.5q34 -8 51.5 -32.5t17.5 -59.5q0 -26 -9.5 -44t-25.5 -29t-37 -15.5t-44 -4.5z" />
    <glyph glyph-name="guillemotright" unicode="&#xbb;" horiz-adv-x="326" 
d="M39 76q-10 0 -16.5 7.5t-6.5 16.5q0 7 13.5 31.5t30.5 52t33 52t21 33.5q-6 9 -22 33.5t-33 52.5t-30 51.5t-13 31.5q0 11 6.5 17.5t17.5 6.5q6 0 11.5 -3.5t9.5 -8.5l125 -167q4 -5 4 -15q0 -8 -4 -13l-125 -167q-5 -6 -9.5 -9t-12.5 -3zM159 76q-10 0 -16.5 7.5
t-6.5 16.5q0 7 13.5 31.5t30.5 52t33 52t21 33.5q-6 9 -22 33.5t-33 52.5t-30 51.5t-13 31.5q0 11 6.5 17.5t17.5 6.5q6 0 11.5 -3.5t9.5 -8.5l125 -167q4 -5 4 -15q0 -8 -4 -13l-125 -167q-5 -6 -9.5 -9t-12.5 -3z" />
    <glyph glyph-name="questiondown" unicode="&#xbf;" horiz-adv-x="551" 
d="M535 -80q0 -45 -25 -76t-62 -50.5t-80.5 -28.5t-80.5 -9q-50 0 -98.5 13.5t-87 41t-62 68.5t-23.5 96q0 52 22.5 95.5t59.5 75.5t83 52.5t94 28.5q-2 9 -3 18t-1 18q0 22 13.5 34t34.5 12q16 0 29.5 -14t22.5 -33.5t14 -40.5t5 -34q0 -26 -17.5 -41.5t-39 -34t-39 -45.5
t-17.5 -75q0 -17 2 -40t9 -43t20.5 -34t36.5 -14q12 0 23 3.5t22 8.5q-12 11 -19.5 25t-7.5 31t7.5 31t19.5 24.5t27.5 16t31.5 5.5q38 0 62 -23.5t24 -61.5zM435 421q0 -21 -11.5 -36.5t-29 -25.5t-38 -15t-38.5 -5t-38.5 5t-38 15t-29.5 25.5t-12 36.5q0 22 11.5 37.5
t29.5 25.5t38.5 15t38.5 5t38.5 -5t38 -15t29 -25.5t11.5 -37.5z" />
    <glyph glyph-name="AE" unicode="&#xc6;" horiz-adv-x="835" 
d="M765 -17q-17 0 -31 13t-14 30q0 4 1 10t1 9q-94 -35 -191 -44.5t-197 -9.5q-13 0 -26.5 0.5t-24.5 5t-18 14t-7 27.5q0 29 18.5 38.5t42.5 9.5h10q-2 9 -2.5 17.5t-2.5 17.5l-147 -13q-2 -11 -3.5 -22t-1.5 -22q22 0 39 -9.5t17 -34.5q0 -20 -11.5 -33.5t-31.5 -15.5
l-119 -10q-21 0 -35.5 13t-14.5 34q0 27 19 36.5t41 11.5q4 65 15.5 146t28.5 163.5t38.5 160.5t45.5 138q5 12 14 24q6 7 27.5 13.5t51 11.5t64 8.5t66 6.5t57 4t37.5 1q34 0 67.5 -2.5t67.5 -8.5q-2 3 -2 10q0 22 13.5 36.5t35.5 14.5q21 0 34.5 -18.5t21 -44t10.5 -51.5
t3 -42q0 -17 -1.5 -35t-7.5 -33.5t-18 -25.5t-33 -10q-17 0 -30 14t-13 34q0 7 2 16.5t2 33.5q-58 13 -120 15q8 -42 14 -84t11 -85q7 -1 14 -1.5t14 -2.5q0 5 -2 11t-2 11q0 20 14 33.5t34 13.5q15 0 26 -8q12 -8 20 -28.5t13 -45t7.5 -48t2.5 -36.5q0 -15 -1.5 -32.5
t-7.5 -33t-17.5 -26t-31.5 -10.5q-21 0 -32 16.5t-11 34.5q0 11 2.5 23t2.5 23q-8 3 -17.5 4.5t-17.5 3.5q6 -65 9.5 -129.5t3.5 -130.5q60 12 115 36q-2 17 -8 36.5t-6 36.5q0 20 17 30.5t34 10.5q31 0 42 -31q5 -14 9.5 -38.5t7.5 -51t5 -51.5t2 -40q0 -26 -13 -45
t-41 -19zM311 216q-11 98 -17.5 196t-8.5 197q-14 -33 -28.5 -86.5t-28 -111.5t-24 -113.5t-15.5 -92.5z" />
    <glyph glyph-name="Eth" unicode="&#xd0;" horiz-adv-x="775" 
d="M759 330q0 -80 -25 -142t-70 -106t-108.5 -70t-140.5 -33q-59 -5 -121.5 -8t-143.5 -3q-14 0 -28.5 1.5t-26 6t-19 14t-7.5 26.5q0 18 14.5 33t33.5 15q6 0 12 -0.5t12 -0.5q-8 48 -14 96.5t-12 96.5q-8 -1 -17 -1.5t-17 -0.5q-16 0 -26 11.5t-10 26.5q0 14 6 22
t15.5 11.5t20.5 5t22 2.5q-6 63 -8.5 126.5t-3.5 126.5q-7 -1 -13 -2t-13 -1q-19 0 -37 9t-18 31q0 20 10.5 34t27.5 18q31 7 75.5 13.5t91.5 11.5t91.5 8t74.5 3q181 0 276.5 -100t95.5 -281zM372 599q11 -60 18.5 -120t12.5 -120h17q17 0 26 -11.5t9 -27.5q0 -20 -14 -28
t-31 -10q8 -95 9 -188q16 14 25.5 36.5t14.5 47t6.5 49.5t1.5 45q0 31 -4 80t-14.5 98t-29 90.5t-47.5 58.5z" />
    <glyph glyph-name="multiply" unicode="&#xd7;" horiz-adv-x="589" 
d="M503 20l-208 209l-210 -209l-69 69l210 209l-210 209l69 70l210 -209l208 209l70 -70l-208 -209l208 -209z" />
    <glyph glyph-name="Oslash" unicode="&#xd8;" 
d="M710 348q0 -72 -25.5 -138t-71 -116.5t-108 -80.5t-136.5 -30q-31 0 -61.5 5.5t-59.5 16.5l-49 -90l-38 20l47 89q-45 25 -81 61.5t-60.5 80.5t-37.5 93.5t-13 100.5q0 74 26 140.5t72.5 116.5t110 79.5t139.5 29.5q50 0 96 -15t87 -44l59 112l37 -20l-62 -119
q62 -56 95.5 -132.5t33.5 -159.5zM462 86q8 3 9.5 13.5t1.5 17.5q0 20 -5.5 49t-14 59.5t-17.5 59t-16 48.5l-55 -102q6 -12 16 -35.5t23 -47.5t28 -42.5t30 -19.5zM400 388q-4 11 -12 31.5t-18 45t-22 51t-24.5 49t-24 38.5t-21.5 20q-25 0 -25 -25q0 -23 10.5 -66
t25.5 -90.5t30.5 -91t25.5 -67.5z" />
    <glyph glyph-name="Thorn" unicode="&#xde;" horiz-adv-x="716" 
d="M700 379q0 -63 -25 -111t-67 -81.5t-96 -53t-111 -25.5q0 -2 6 -2q20 0 32.5 -14.5t12.5 -33.5q0 -26 -28.5 -40.5t-72 -21.5t-96.5 -8t-102 -1q-14 0 -28 1.5t-26 6.5t-19.5 14t-7.5 24q0 17 8.5 31t26.5 18q-8 45 -11 89.5t-7 89.5q-8 90 -15 179t-9 179h-5
q-18 0 -31 15.5t-13 33.5q0 16 10 29t25 17q60 17 127.5 23t140.5 6q12 0 26 -1t25 -5.5t18.5 -13.5t7.5 -25q0 -17 -8 -31.5t-27 -18.5q66 0 127 -14t108 -46t75.5 -83t28.5 -126zM400 519q-9 0 -14 -13.5t-7.5 -30.5t-3.5 -33.5t-1 -22.5q0 -11 2.5 -41t8 -61.5t15.5 -56
t25 -24.5q9 0 14 13t7.5 29.5t3 32.5t0.5 22q0 7 -1 23.5t-3 37t-6 43t-9.5 40.5t-13 30t-17.5 12z" />
    <glyph glyph-name="germandbls" unicode="&#xdf;" horiz-adv-x="719" 
d="M703 195q0 -47 -15 -85t-42.5 -65t-66 -41.5t-84.5 -14.5q-24 0 -48.5 6.5t-44 19.5t-31.5 33t-12 48q0 13 3 29t9.5 30t18 23t28.5 9q20 0 34.5 -14t14.5 -34q0 -15 -6 -22t-6 -15t7 -13t15 -5q13 0 18.5 8.5t5.5 19.5q0 22 -16 43t-38.5 39.5t-46 34.5t-38.5 30
q0 -10 -0.5 -31.5t-1.5 -48t-3 -55.5t-4.5 -54t-6 -43.5t-7.5 -24.5q-8 -11 -31.5 -14t-46.5 -3q-68 0 -116 2.5t-90 9.5q-17 3 -28 16.5t-11 33.5q0 19 15.5 31.5t34.5 12.5q1 0 11 -2t11 -2q-2 11 -2.5 26t-1.5 26q-5 48 -7.5 95.5t-2.5 95.5q0 101 38.5 176.5t96 125.5
t125 74.5t125.5 24.5q59 0 98 -25t39 -74q0 -35 -25 -83t-82 -108q27 -25 64 -50.5t70.5 -54.5t56.5 -63.5t23 -77.5zM360 468q46 6 64 28t18 48q0 17 -6 34.5t-16 31t-21.5 22t-21.5 8.5q-12 0 -20.5 -14.5t-8.5 -49.5q0 -27 6 -54t6 -54z" />
    <glyph glyph-name="ae" unicode="&#xe6;" horiz-adv-x="888" 
d="M872 597q0 -16 -2.5 -41t-10 -49t-21 -41.5t-34.5 -17.5q-19 0 -33.5 14.5t-14.5 33.5q0 13 5 28t7 29q-56 24 -115 36q0 -43 -1.5 -85.5t-3.5 -85.5q6 -2 14.5 -4t13.5 -6q0 4 -1 7t-1 7q0 19 13.5 33.5t32.5 14.5q21 0 32 -11t16.5 -28t6.5 -37t1 -37t-2 -43
t-9.5 -51.5t-22.5 -43.5t-40 -18q-17 0 -29.5 16t-12.5 31q0 14 5 29t8 29l-31 14q-5 -65 -13 -130t-20 -129q30 1 60 5t60 10q0 16 -1.5 32t-1.5 33q0 20 14 31.5t33 11.5t29 -7.5t14.5 -19t5.5 -25.5t1 -28q0 -34 -1 -69t-7 -63.5t-19 -46.5t-37 -18q-17 0 -32 12.5
t-15 29.5q0 5 0.5 13t4.5 16q-35 -7 -69.5 -10t-69.5 -3q-13 0 -39 1.5t-58 4t-66.5 6.5t-64.5 9.5t-52 12t-29 14.5t-9 15.5t-2 17.5q0 21 17 33t35 12q6 0 13.5 -2t13.5 -3q0 7 0.5 14.5t0.5 20.5l-147 13l-12 -43q20 0 34 -13t14 -33q0 -21 -13.5 -33.5t-33.5 -12.5
q-30 0 -61 3t-61 5q-20 2 -31 16t-11 34q0 27 17 35t37 8h13q34 140 90 283t127 268q9 15 15.5 25.5t15 17t20.5 10t31 3.5q100 0 197 -9.5t191 -42.5q0 30 14.5 41.5t33.5 11.5q20 0 31 -12t16 -29.5t6 -36.5t1 -33zM385 608q-22 -34 -45 -83t-45 -102t-41.5 -104.5
t-33.5 -91.5l122 -10q5 99 16 196t27 195z" />
    <glyph glyph-name="eth" unicode="&#xf0;" horiz-adv-x="775" 
d="M399 -16q-14 0 -42.5 2t-64 5.5t-74 8.5t-73 10t-60.5 10t-36 10q-15 7 -24 18.5t-9 28.5q0 20 17 32t34 12q7 0 15 -2t14 -4q2 49 3.5 97.5t4.5 97.5q-9 1 -20.5 2t-21 5t-16 11.5t-6.5 20.5q0 15 10 28t27 13q8 0 17 -1t17 -2q5 63 13.5 125.5t19.5 125.5
q-12 0 -25 1.5t-24 6.5t-18.5 14t-7.5 25q0 27 19.5 38t42.5 11q61 0 121 -5.5t120 -8.5q82 -4 153 -26.5t123 -66t81.5 -108.5t29.5 -154q0 -86 -23 -156t-68.5 -120t-113 -77.5t-155.5 -27.5zM466 397q0 22 -1 51t-5.5 58.5t-14.5 55.5t-28 41q-2 -122 -12 -242
q20 -2 32.5 -10t12.5 -31q0 -21 -14 -28t-37 -7q-5 -48 -11 -94t-14 -93q26 16 44 54t28.5 83t15 89.5t4.5 72.5z" />
    <glyph glyph-name="divide" unicode="&#xf7;" horiz-adv-x="584" 
d="M365 92q0 -31 -22 -52t-52 -21q-31 0 -51.5 21t-20.5 52q0 32 21 52t52 20q29 0 51 -21t22 -51zM16 248v100h552v-100h-552zM365 504q0 -31 -22 -52t-52 -21q-31 0 -51.5 21t-20.5 52q0 32 20.5 52.5t52.5 20.5q30 0 51.5 -21.5t21.5 -51.5z" />
    <glyph glyph-name="oslash" unicode="&#xf8;" horiz-adv-x="725" 
d="M626 594q42 -52 62.5 -116t20.5 -130q0 -75 -27 -142t-75 -117t-113 -79.5t-141 -29.5q-44 0 -86 12.5t-79 34.5l-63 -81l-34 26l61 80q-66 54 -101 131t-35 162q0 73 26 141t72.5 120.5t110.5 84t140 31.5q67 0 126.5 -23.5t106.5 -71.5l77 99l34 -26zM343 228
q2 -10 9 -36t16.5 -53t21 -48t23.5 -21q7 0 11 9.5t5.5 21.5t2 24t0.5 17q0 45 -4.5 89t-12.5 89zM405 378q-3 16 -11.5 55t-19.5 80.5t-25 75.5t-28 41q-18 0 -22 -11.5t-4 -25.5q0 -85 11.5 -161t25.5 -148z" />
    <glyph glyph-name="thorn" unicode="&#xfe;" horiz-adv-x="716" 
d="M354 67q0 -2 -1 -3q19 -1 31 -15t12 -32t-7.5 -27.5t-18.5 -14t-24.5 -5.5t-26.5 -1q-67 0 -135.5 6t-133.5 23q-15 4 -24.5 16t-9.5 28q0 18 12.5 32.5t31.5 16.5q2 76 9 152t15 151q7 59 13.5 117t14.5 116q-17 2 -29 16t-12 31q0 18 7 28t18.5 15t25 6.5t27.5 1.5
q78 0 142.5 -6t124.5 -22q17 -5 26.5 -17t9.5 -29q0 -18 -13 -31.5t-31 -15.5q58 -10 111 -30t93 -53t64 -81t24 -113q0 -68 -26 -117t-69.5 -81t-99 -47.5t-115.5 -15.5h-18t-18 1zM450 375q0 6 -1 21.5t-3.5 32t-7.5 29.5t-14 13q-15 0 -24.5 -25t-15.5 -56.5t-8.5 -62
t-2.5 -40.5q0 -7 1 -23t3.5 -32.5t8 -30t14.5 -14.5q15 8 24.5 33t15 55t8 58t2.5 42z" />
    <glyph glyph-name="dotlessi" unicode="&#x131;" horiz-adv-x="468" 
d="M389 617q-2 -136 -12.5 -269.5t-33.5 -267.5h7q17 0 31.5 -14t14.5 -31q0 -18 -8.5 -29t-22 -16.5t-30 -7t-32.5 -1.5q-78 0 -138.5 7.5t-113.5 23.5q-15 5 -25 17.5t-10 28.5q0 21 13.5 34.5t33.5 13.5q7 0 10 -1q0 134 12 267t35 266h-4q-18 0 -31.5 14t-13.5 32
q0 20 12.5 31t32 16t43.5 6t47 1q28 0 70 -1.5t81 -8.5t67 -23t28 -44q0 -22 -15 -34t-35 -12q-5 0 -13 2z" />
    <glyph glyph-name="OE" unicode="&#x152;" horiz-adv-x="901" 
d="M833 -13q-20 0 -33.5 14.5t-13.5 32.5q0 7 3 15q-38 -14 -77 -24t-80 -15q-40 -5 -80 -8.5t-82 -5.5q-17 -5 -44 -10.5t-58 -5.5q-77 0 -141.5 31.5t-111 83.5t-73 120t-26.5 142q0 72 25.5 138t71.5 117t109 81.5t137 30.5q11 0 21 -1.5t21 -1.5q48 6 93 11t96 5
q33 0 66 -3t66 -8q-2 3 -2 10q0 21 13 36.5t35 15.5t35.5 -19.5t21 -45.5t10.5 -53t3 -43q0 -15 -1.5 -32t-6.5 -32t-16.5 -25t-30.5 -10q-20 0 -33.5 13.5t-13.5 32.5q0 8 2 17t2 18q0 4 -0.5 8t-0.5 8q-29 8 -59.5 11.5t-60.5 4.5q8 -42 14 -84.5t11 -85.5q8 -1 15 -1.5
t14 -2.5l-3 4q-2 4 -2 12q0 22 12.5 37.5t35.5 15.5q22 0 36 -20t21 -47t9.5 -55t2.5 -44q0 -15 -1.5 -32.5t-7.5 -33t-17.5 -26t-31.5 -10.5t-31.5 16.5t-11.5 34.5q0 11 3 23t3 24l-18 4l-18 4q8 -65 11 -130t3 -131q29 6 57.5 15.5t56.5 20.5q-2 17 -8 37t-6 34
q0 21 16.5 32t35.5 11q31 0 42 -31q4 -12 8.5 -36t7.5 -51t5 -52t2 -38q0 -25 -12 -46.5t-40 -21.5zM349 579q-10 0 -16 -20t-9 -45.5t-4 -49.5t-1 -31q0 -11 1.5 -40t5.5 -66.5t9.5 -77.5t13.5 -73.5t18.5 -55.5t23.5 -22q11 0 17 19.5t9 45t3.5 49.5t0.5 33
q0 11 -1.5 40.5t-5 66.5t-9 77t-13.5 73.5t-19 55t-24 21.5z" />
    <glyph glyph-name="oe" unicode="&#x153;" horiz-adv-x="899" 
d="M883 601q0 -16 -2.5 -41t-10 -48.5t-20.5 -40.5t-35 -17q-18 0 -32.5 14t-14.5 32q0 14 5.5 29.5t7.5 29.5q-55 24 -116 36q0 -43 -1.5 -85.5t-3.5 -85.5l14 -4t14 -5q0 9 2 20t6.5 20.5t13 15.5t21.5 6q21 0 32.5 -11.5t17 -28t6.5 -35.5t1 -34q0 -10 -2 -28.5t-5 -38.5
t-7 -37.5t-9 -25.5q-8 -12 -21 -21t-27 -9q-22 0 -33.5 16t-11.5 36q0 12 6.5 25t8.5 27l-34 14q-5 -66 -13 -130t-19 -129q59 4 119 16q0 15 -1 31t-1 33q0 20 14.5 31.5t33.5 11.5q18 0 28 -7t14.5 -17.5t5.5 -24.5t1 -27q0 -14 -1 -39t-3 -51t-5.5 -48.5t-9.5 -31.5
q-9 -14 -21 -22t-29 -8q-15 0 -28.5 13t-13.5 28q0 7 1 14.5t4 14.5q-71 -12 -143 -12q-45 0 -92 4t-88 11q-23 -4 -48 -4q-75 0 -138 30.5t-108 81.5t-70.5 117.5t-25.5 138.5q0 73 26.5 140.5t73 120t110.5 84t140 31.5q26 0 49.5 -3.5t48.5 -11.5q14 0 26.5 -0.5
t25.5 -1.5q66 -4 131.5 -15t134.5 -34q0 29 14.5 41t33.5 12q20 0 30.5 -12.5t15.5 -30t6 -37t1 -33.5zM418 435q0 9 -0.5 33t-3.5 49t-9 44.5t-17 19.5q-13 0 -23.5 -21.5t-18.5 -55t-13.5 -73.5t-9 -77t-5 -66t-1.5 -40q0 -9 0.5 -33t3.5 -49.5t8.5 -45.5t16.5 -20
q13 0 24 21.5t19 55t13.5 74t9 77.5t5 66.5t1.5 40.5z" />
    <glyph glyph-name="circumflex" unicode="&#x2c6;" horiz-adv-x="446" 
d="M383 786q-13 0 -26 8l-132 93l-132 -93q-11 -8 -27 -8q-20 0 -34 14t-14 34q0 19 14 33l159 160q13 13 31 13q11 0 20 -2.5t17 -10.5l159 -160q6 -6 10 -15.5t4 -18.5q0 -20 -14.5 -33.5t-34.5 -13.5z" />
    <glyph glyph-name="caron" unicode="&#x2c7;" horiz-adv-x="446" 
d="M429 997q0 -19 -14 -33l-159 -160q-13 -13 -31 -13q-11 0 -20 2.5t-17 10.5l-159 160q-14 14 -14 33q0 20 14.5 34t34.5 14q14 0 26 -8l132 -93l132 93q11 8 27 8q20 0 34 -14t14 -34z" />
    <glyph glyph-name="macron" unicode="&#xaf;" horiz-adv-x="321" 
d="M297 677q0 -20 -17 -20h-240q-10 0 -13 6t-3 14v11q0 19 17 19h238q11 0 14.5 -4t3.5 -15v-11v0z" />
    <glyph glyph-name="ring" unicode="&#x2da;" horiz-adv-x="218" 
d="M203 883q0 -40 -27 -66.5t-67 -26.5q-39 0 -65.5 27t-26.5 66t26.5 66t65.5 27t66.5 -27t27.5 -66zM147 883q0 16 -10.5 27t-26.5 11t-27 -11t-11 -27t11 -27t27 -11t26.5 11t10.5 27z" />
    <glyph glyph-name="tilde" unicode="&#x2dc;" horiz-adv-x="449" 
d="M329 787q-26 0 -54 13.5t-53 30t-44 30t-26 13.5q-18 0 -23 -12t-8.5 -26.5t-12 -26.5t-32.5 -12q-20 0 -34 14t-14 34q0 25 10 48t26.5 39.5t39 26.5t48.5 10q24 0 50 -13t49.5 -29t43 -29t29.5 -13q14 0 20 11.5t11 26t13.5 26t28.5 11.5q48 0 48 -47q0 -23 -9 -45.5
t-25 -40.5t-37 -29t-45 -11z" />
    <glyph glyph-name="mu" unicode="&#xb5;" horiz-adv-x="669" 
d="M611 0h-210l2 24q-22 -17 -49.5 -27.5t-54.5 -10.5q-30 0 -52 7.5t-40 21.5t-32.5 32.5t-29.5 41.5q-5 -24 -11.5 -48t-11.5 -48q-9 -39 -15.5 -71t-14 -54.5t-18 -35t-26.5 -12.5q-17 0 -24.5 14.5t-7.5 28.5q0 8 7 28.5t16 44.5t17.5 46t12.5 32q24 64 35.5 130
t16.5 134q5 62 14.5 122.5t15.5 122.5q1 9 6 22t19 13t20 -9t6 -21q0 -35 -4.5 -71t-10.5 -72t-10.5 -72t-4.5 -73q0 -30 6 -63t21 -61t40.5 -46t64.5 -18q31 0 57.5 18t48.5 38l33 433h210z" />
    <glyph glyph-name="mu" unicode="&#x3bc;" horiz-adv-x="669" 
d="M611 0h-210l2 24q-22 -17 -49.5 -27.5t-54.5 -10.5q-30 0 -52 7.5t-40 21.5t-32.5 32.5t-29.5 41.5q-5 -24 -11.5 -48t-11.5 -48q-9 -39 -15.5 -71t-14 -54.5t-18 -35t-26.5 -12.5q-17 0 -24.5 14.5t-7.5 28.5q0 8 7 28.5t16 44.5t17.5 46t12.5 32q24 64 35.5 130
t16.5 134q5 62 14.5 122.5t15.5 122.5q1 9 6 22t19 13t20 -9t6 -21q0 -35 -4.5 -71t-10.5 -72t-10.5 -72t-4.5 -73q0 -30 6 -63t21 -61t40.5 -46t64.5 -18q31 0 57.5 18t48.5 38l33 433h210z" />
    <glyph glyph-name="endash" unicode="&#x2013;" horiz-adv-x="532" 
d="M16 231v115h500v-115h-500z" />
    <glyph glyph-name="emdash" unicode="&#x2014;" horiz-adv-x="1032" 
d="M16 231v115h1000v-115h-1000z" />
    <glyph glyph-name="quoteleft" unicode="&#x2018;" horiz-adv-x="189" 
d="M153 499l-137 36l99 212l58 -16z" />
    <glyph glyph-name="quoteright" unicode="&#x2019;" horiz-adv-x="189" 
d="M75 511l-59 15l21 233l136 -37z" />
    <glyph glyph-name="quotesinglbase" unicode="&#x201a;" horiz-adv-x="189" 
d="M75 -139l-59 15l21 233l136 -37z" />
    <glyph glyph-name="quotedblleft" unicode="&#x201c;" horiz-adv-x="344" 
d="M307 497l-136 37l98 211l59 -15zM153 499l-137 36l99 212l58 -16z" />
    <glyph glyph-name="quotedblright" unicode="&#x201d;" horiz-adv-x="344" 
d="M229 509l-58 16l20 232l137 -36zM75 511l-59 15l21 233l136 -37z" />
    <glyph glyph-name="quotedblbase" unicode="&#x201e;" horiz-adv-x="349" 
d="M75 -139l-59 15l21 233l136 -37zM235 -139l-59 15l21 233l136 -37z" />
    <glyph glyph-name="dagger" unicode="&#x2020;" horiz-adv-x="563" 
d="M547 466q0 -37 -17 -58.5t-56 -21.5q-14 0 -32.5 6t-39 14t-41 15.5t-38.5 10.5v-4q0 -47 17.5 -95t37.5 -90q-12 -24 -20 -59.5t-14 -77t-9.5 -85.5t-6 -86.5t-3.5 -80t-2 -64.5h-85q-1 27 -2 64.5t-3 80t-6 86.5t-9.5 85.5t-14 77t-20.5 59.5q21 44 37.5 92t18.5 97
q-18 -3 -38.5 -10.5t-41 -15.5t-39 -14t-32.5 -6q-39 0 -55.5 21.5t-16.5 58.5t16.5 58t55.5 21q14 0 33 -6t40 -14t42.5 -15.5t40.5 -10.5q-2 22 -9.5 43t-16 41.5t-15.5 41t-7 40.5q0 38 24 57t60 19t60.5 -19t24.5 -57q0 -21 -7 -40.5t-16 -39.5t-16 -41t-7 -45
q19 3 40 10.5t42 15.5t39.5 14t33.5 6q39 0 56 -21t17 -58z" />
    <glyph glyph-name="daggerdbl" unicode="&#x2021;" horiz-adv-x="563" 
d="M547 64q0 -37 -17.5 -57.5t-55.5 -20.5q-16 0 -35 6t-39 14t-41 15t-40 10q2 -22 9.5 -43t16 -41.5t15 -40.5t6.5 -40q0 -38 -24 -56.5t-60 -18.5t-60.5 18.5t-24.5 56.5q0 20 7.5 39.5t16 40t16 41.5t7.5 44q-20 -3 -41 -10t-41.5 -15t-39.5 -14t-34 -6q-38 0 -55 20.5
t-17 57.5t16.5 58.5t55.5 21.5q14 0 32.5 -6t39 -14t41 -15.5t38.5 -10.5q-1 47 -15 88t-40 79q54 78 55 167q-18 -3 -38.5 -10.5t-41 -15.5t-39 -14t-32.5 -6q-39 0 -55.5 21.5t-16.5 58.5t16.5 58t55.5 21q14 0 33 -6t40 -14t42.5 -15.5t40.5 -10.5q-2 22 -9.5 43
t-16 41.5t-15.5 41t-7 40.5q0 38 24 57t60 19t60.5 -19t24.5 -57q0 -21 -7 -40.5t-16 -39.5t-16 -41t-7 -45q19 3 40 10.5t42 15.5t39.5 14t33.5 6q39 0 56 -21t17 -58t-17 -58.5t-56 -21.5q-15 0 -33.5 6t-38 14t-40 15.5t-38.5 10.5q2 -46 15.5 -87.5t39.5 -79.5
q-51 -73 -56 -167q18 3 38.5 10.5t41 15.5t39 14t32.5 6q39 0 56 -21.5t17 -58.5z" />
    <glyph glyph-name="bullet" unicode="&#x2022;" horiz-adv-x="417" 
d="M401 332q0 -40 -15 -75t-41.5 -61.5t-61.5 -41.5t-75 -15t-75 15t-61 41.5t-41 61.5t-15 75t15 75t41.5 61t61.5 41t75 15t75 -15t61 -41t41 -61t15 -75z" />
    <glyph glyph-name="ellipsis" unicode="&#x2026;" horiz-adv-x="674" 
d="M218 92q0 -21 -8 -39.5t-21.5 -32t-32 -21.5t-39.5 -8t-39.5 8t-32 21.5t-21.5 32t-8 39.5t8 39.5t21.5 32t32 21.5t39.5 8t39.5 -8t32 -21.5t21.5 -32t8 -39.5zM438 92q0 -21 -8 -39.5t-21.5 -32t-32 -21.5t-39.5 -8t-39.5 8t-32 21.5t-21.5 32t-8 39.5t8 39.5t21.5 32
t32 21.5t39.5 8t39.5 -8t32 -21.5t21.5 -32t8 -39.5zM658 92q0 -21 -8 -39.5t-21.5 -32t-32 -21.5t-39.5 -8t-39.5 8t-32 21.5t-21.5 32t-8 39.5t8 39.5t21.5 32t32 21.5t39.5 8t39.5 -8t32 -21.5t21.5 -32t8 -39.5z" />
    <glyph glyph-name="perthousand" unicode="&#x2030;" horiz-adv-x="947" 
d="M399 515q-11 -2 -22.5 -3t-22.5 -1q-7 0 -13 0.5t-12 1.5v-9q0 -41 -9.5 -78.5t-29 -67t-48 -47t-66.5 -17.5t-66.5 17.5t-47.5 47t-28.5 67t-9.5 78.5t9.5 79t28.5 67t47.5 46.5t66.5 17.5q45 0 83 -29q21 -16 45 -23.5t50 -7.5q29 0 51 8t40.5 23t34.5 36t32 47h140
l-357 -771h-136zM771 761q38 0 66.5 -17.5t47.5 -47t28.5 -67.5t9.5 -78q0 -41 -9.5 -78.5t-28.5 -66.5t-47.5 -46.5t-66.5 -17.5q-21 0 -36 4q15 -28 23 -62t8 -70q0 -41 -9.5 -78.5t-28.5 -66.5t-47.5 -46.5t-66.5 -17.5t-66.5 17.5t-48 46.5t-29 66.5t-9.5 78.5
q0 40 9.5 78t29 67.5t48 47t66.5 17.5q9 0 17.5 -1t16.5 -3q-15 28 -22.5 61.5t-7.5 69.5q0 40 9.5 78t29 67.5t48 47t66.5 17.5zM614 282q-11 0 -17.5 -7t-10 -17.5t-4.5 -22t-1 -21.5t1 -21.5t4.5 -22t10 -17.5t17.5 -7t17.5 7t9.5 17.5t4 22t1 21.5t-1 21.5t-4 22
t-9.5 17.5t-17.5 7zM176 572q-11 0 -17.5 -7t-9.5 -17.5t-4 -22t-1 -21.5t1 -21.5t4 -22t9.5 -17.5t17.5 -7t17.5 7t10 17.5t4.5 22t1 21.5t-1 21.5t-4.5 22t-10 17.5t-17.5 7zM771 619q-11 0 -17.5 -7t-10 -17.5t-4.5 -22t-1 -21.5t1 -21.5t4.5 -22t10 -17.5t17.5 -7
t17.5 7t9.5 17.5t4 22t1 21.5t-1 21.5t-4 22t-9.5 17.5t-17.5 7z" />
    <glyph glyph-name="guilsinglleft" unicode="&#x2039;" horiz-adv-x="206" 
d="M190 100q0 -10 -7 -17t-17 -7q-6 0 -11.5 3.5t-9.5 8.5l-125 167q-4 5 -4 14q0 3 1 7t3 7l125 167q9 12 22 12q11 0 17 -7t6 -17q0 -5 -6.5 -18t-16 -29.5t-21 -35.5t-22.5 -36.5t-20 -30.5t-12 -19l93 -153q5 -8 5 -16z" />
    <glyph glyph-name="guilsinglright" unicode="&#x203a;" horiz-adv-x="206" 
d="M39 76q-10 0 -16.5 7.5t-6.5 16.5q0 7 13.5 31.5t30.5 52t33 52t21 33.5q-6 9 -22 33.5t-33 52.5t-30 51.5t-13 31.5q0 11 6.5 17.5t17.5 6.5q6 0 11.5 -3.5t9.5 -8.5l125 -167q4 -5 4 -15q0 -8 -4 -13l-125 -167q-5 -6 -9.5 -9t-12.5 -3z" />
    <glyph glyph-name="minus" unicode="&#x2212;" horiz-adv-x="617" 
d="M16 231v135h585v-135h-585z" />
    <glyph glyph-name="periodcentered" unicode="&#xb7;" horiz-adv-x="277" 
d="M261 316q0 -26 -9 -48.5t-25.5 -39t-39 -26t-48.5 -9.5t-48.5 9.5t-39 26t-26 39t-9.5 48.5t9.5 48.5t26 39t39 26t48.5 9.5t48.5 -9.5t39 -26t25.5 -39t9 -48.5z" />
    <glyph glyph-name="Euro" unicode="&#x20ac;" horiz-adv-x="568" 
d="M362 -5q-48 0 -91.5 15.5t-78.5 43.5t-60 66.5t-36 85.5h-49q-14 0 -22.5 8t-8.5 19q0 29 31 29h43v9h-43q-14 0 -22.5 8.5t-8.5 21.5q0 26 31 26h49q11 46 36 85t60 67.5t78.5 44t91.5 15.5q49 0 96.5 -17.5t83.5 -50.5q9 -8 9 -19t-9 -20t-20 -9q-7 0 -20 9.5
t-32.5 20.5t-46 20.5t-61.5 9.5q-36 0 -69 -11.5t-60.5 -32t-48 -49.5t-30.5 -63h265q11 0 20 -7t9 -19q0 -14 -7.5 -22t-21.5 -8h-273v-9h233q12 0 20.5 -7t8.5 -20q0 -14 -8 -21.5t-21 -7.5h-225q10 -35 30.5 -63.5t48 -49t60.5 -32t69 -11.5q33 0 60 9.5t47 21t34 21
t21 9.5q11 0 19.5 -8.5t8.5 -19.5q0 -6 -3 -11t-7 -9q-35 -33 -83.5 -50.5t-96.5 -17.5z" />
    <glyph glyph-name="florin" unicode="&#x192;" horiz-adv-x="824" 
d="M470 438v-7t-1 -8q10 2 17 2q21 0 42.5 -9.5t24.5 -31.5q11 5 25.5 6.5t27.5 1.5q32 0 57.5 -15.5t25.5 -49.5q0 -8 -2.5 -15t-6.5 -14q-5 -5 -9 -5q-11 0 -11 9q0 4 3 7q2 5 4 9t2 9q0 21 -15.5 33t-38.5 12q-24 0 -43.5 -6.5t-33 -16t-20.5 -21t-7 -20.5q0 -11 7.5 -21
t34.5 -10q8 0 15.5 1t15.5 3q0 1 3 1q4 0 7.5 -3t3.5 -8q-5 -35 -35 -57q-14 -11 -31 -17t-37 -6q-23 0 -45 9.5t-38 26.5q-15 -17 -37 -26.5t-45 -9.5q-20 0 -37 6t-31 17t-23 25.5t-11 31.5q0 11 10 11q3 0 3 -1q8 -2 15.5 -3t15.5 -1q29 0 36.5 10t7.5 21q0 9 -7.5 20
t-21.5 21t-33.5 16.5t-44.5 6.5q-22 0 -37.5 -12t-15.5 -33q0 -10 7 -18q2 -2 2 -7q0 -9 -10 -9q-6 0 -9 5q-9 13 -9 29q0 34 25 49.5t58 15.5q13 0 27.5 -1.5t24.5 -6.5q4 22 25.5 31.5t40.5 9.5q8 0 18 -2q-1 5 -1 9v9q0 25 5 45q2 8 5.5 13t7.5 5q3 0 6 -5t5 -13
q2 -6 3 -12t2 -14l-19 -22h20q0 -15 -3 -27q18 -15 18 -32t-9.5 -25.5t-20.5 -13.5t-21 -11.5t-10 -14.5q0 -9 7 -15.5t17.5 -10.5t22 -6t21.5 -2t22 2t22 6t17 10.5t7 15.5q0 8 -8.5 14.5t-21.5 11.5q-11 5 -20.5 13t-9.5 26q0 10 5 17.5t13 14.5q-1 7 -1.5 14.5t-0.5 15.5
q0 25 5 45q2 8 5 13t7 5q3 0 6.5 -5t5.5 -13q2 -6 2.5 -12.5t1.5 -14.5l-19 -21h20zM487 412q-25 0 -39 -11q-14 -9 -14 -22q0 -12 14 -23q15 -10 39 -10q23 0 38 10q15 12 15 23q0 12 -15 22q-14 11 -38 11zM338 412q-24 0 -38 -11q-14 -9 -14 -22q0 -12 14 -23
q15 -10 38 -10q24 0 39 10q14 11 14 23q0 13 -14 22q-14 11 -39 11zM482 280q-14 -11 -33.5 -15.5t-36.5 -4.5q-16 0 -35 4.5t-33 15.5q-32 -23 -72 -23q-5 0 -10 0.5t-11 0.5q10 -23 32.5 -34.5t46.5 -11.5q22 0 42.5 9t31.5 29q4 4 8 4q7 0 9 -4q11 -20 32 -29t42 -9
q23 0 46 11.5t32 34.5q-5 0 -9.5 -0.5t-10.5 -0.5q-40 0 -71 23zM335 563q-53 -11 -88 -37t-35 -73q0 -7 1 -14t1 -17t-11 -10q-7 0 -8 9q-3 16 -3 32q0 35 13 66.5t36 56.5q-18 11 -32.5 29t-19.5 42q0 9 10 9q3 0 6 -2t4 -7q7 -32 36 -49.5t61 -17.5q29 0 56 15.5t37 45.5
q2 6 10 6q3 0 6 -1t4 -5q9 -30 36.5 -45.5t57.5 -15.5q31 0 59.5 17.5t35.5 49.5q1 5 4 7t6 2q4 0 7 -2t3 -10q-5 -21 -17.5 -37.5t-30.5 -27.5q53 -53 53 -126q0 -16 -3 -32q-1 -9 -9 -9q-11 0 -11 13q2 8 3 14.5t1 13.5q0 50 -31 74.5t-77 32.5q-29 5 -55.5 17t-41.5 38
q-13 -20 -32 -33t-42 -19zM719 117q-25 -26 -59.5 -41t-71.5 -15q-40 -22 -86 -22h-12q-35 -18 -78 -18q-41 0 -77 18h-11q-49 0 -87 22q-37 0 -72 15t-58 41q-36 26 -63.5 62.5t-27.5 83.5q0 35 16 64.5t40 53.5q-25 47 -25 99q0 57 29 106t80 86q50 37 115.5 57.5
t140.5 20.5q76 0 142 -20.5t116 -57.5q51 -37 79.5 -86t28.5 -106q0 -52 -25 -99q25 -24 40 -53.5t15 -64.5q0 -47 -26.5 -83.5t-62.5 -62.5zM621 85q24 5 45 16.5t37 28.5t25.5 39t9.5 48q0 42 -26 76q-2 4 -2 6q0 11 9 11q6 0 9 -5q30 -38 30 -88q0 -26 -7 -44
q17 19 27 41.5t10 48.5q0 32 -16 59.5t-39 48.5q-1 2 -2 3.5t-1 3.5q0 3 2 5q13 23 20 47t7 50q0 52 -27 96.5t-74 79.5q-48 35 -110.5 55t-135.5 20q-72 0 -134.5 -20t-110.5 -55q-46 -35 -73 -79.5t-27 -96.5q0 -26 7 -50t19 -47q1 0 1 -4q0 -5 -3 -8q-22 -21 -38 -48.5
t-16 -59.5q0 -26 10 -48.5t27 -41.5q-6 19 -6 44q0 50 30 88q2 5 9 5q3 0 6 -3t3 -8q0 -2 -2 -6q-26 -34 -26 -76q0 -26 9 -48t25 -39t37 -28.5t44 -16.5q-22 20 -35.5 48t-13.5 62q0 52 34 92q4 4 8 4q9 0 9 -10q0 -1 -2 -7q-29 -35 -29 -79q0 -27 10.5 -50t27.5 -40.5
t40 -28.5t48 -15q-26 20 -42 50t-16 65q0 6 3.5 9t6.5 3q11 0 11 -12q0 -30 12.5 -54.5t33.5 -42.5t48 -28t55 -10t55 10t48 28t34 42.5t13 54.5q0 6 3.5 9t7.5 3q10 0 10 -12q0 -35 -16 -65t-43 -50q25 4 48 15t41 28.5t28.5 40.5t10.5 50q0 43 -30 79q-2 6 -2 7q0 10 9 10
q6 0 8 -4q35 -41 35 -92q0 -34 -14 -62t-37 -48z" />
    <glyph glyph-name="section" unicode="&#xa7;" horiz-adv-x="1392" 
d="M1368 751v-315h-92v222h-54v93h146zM1054 362q-9 0 -9 -10q0 -9 9 -9h185v-45h-185q-9 0 -9 -9q0 -10 9 -10h185v-44h-185q-22 0 -37.5 15.5t-15.5 38.5q0 18 10 31q-10 13 -10 32q0 23 15.5 38.5t37.5 15.5h185v-44h-185zM392 343v-45h-194v-63h-45v117q0 23 15.5 38.5
t38.5 15.5h185v-44h-185q-9 0 -9 -10v-9h194zM434 406h252v-59q0 -27 -18 -46.5t-44 -22.5l41 -43h-60l-41 43h-64v45h118q10 0 16.5 6.5t6.5 17.5v14h-162v-126h-45v171zM777 362q-9 0 -9 -10q0 -9 9 -9h186v-45h-186q-9 0 -9 -9q0 -10 9 -10h186v-44h-186
q-23 0 -38.5 15.5t-15.5 38.5q0 16 10 31q-10 15 -10 32q0 23 15.5 38.5t38.5 15.5h186v-44h-186zM1095 205v-44h-126v-83h54v-45h-98v128h-77v44h247zM1282 78q23 0 36 19h-192v22q0 18 7 33.5t18.5 27t27 18.5t32.5 7h157v-44h-157q-10 0 -19.5 -5.5t-14.5 -13.5h191v-23
q0 -18 -6.5 -33.5t-18.5 -27t-27.5 -18.5t-33.5 -7h-156v45h156zM264 142v-45h-195v-64h-45v118q0 22 15.5 38t38.5 16h186v-44h-186q-9 0 -9 -10v-9h195zM810 33h-66q-8 30 -22 52.5t-40 42.5q-15 12 -32.5 20t-37.5 10v-125h-45v172h25q32 0 62 -11t55 -30q36 -29 57 -67
v108h44v-172zM527 205v-80q0 -38 -27 -65t-65 -27h-146v79q0 19 7.5 36t20 29.5t29.5 20t36 7.5h145zM382 160q-20 0 -34 -14t-14 -34v-34h101q20 0 33.5 13.5t13.5 33.5v35h-100zM171 751v-315h-93v222h-54v93h147zM1159 751v-146q0 -35 -13.5 -65.5t-36.5 -53.5
t-53.5 -36.5t-65.5 -13.5h-262v146q0 34 13.5 65t36.5 54t53.5 36.5t65.5 13.5h262zM897 658q-32 0 -54 -22.5t-22 -53.5v-54h169q31 0 53.5 22.5t22.5 54.5v53h-169zM665 751v-146q0 -35 -13.5 -65.5t-36.5 -53.5t-53.5 -36.5t-65.5 -13.5h-262v146q0 34 13.5 65t36.5 54
t53.5 36.5t65.5 13.5h262zM403 658q-32 0 -54.5 -22.5t-22.5 -53.5v-54h170q31 0 53.5 22.5t22.5 54.5v53h-169z" />
    <glyph glyph-name="twosuperior" unicode="&#xb2;" horiz-adv-x="280" 
d="M206 422q-9 0 -14 7.5t-5 15.5q0 2 3 7q-12 -2 -25 -2.5t-35 -0.5q-23 0 -46 1t-45 4q-11 2 -17 13.5t-6 21.5q0 12 7 18q11 10 28.5 29.5t34.5 42t29.5 44.5t12.5 36q0 8 -1.5 17.5t-5.5 17.5t-11 13t-17 5q-7 0 -15 -3.5t-12 -10.5q-3 -5 -7.5 -10.5t-11.5 -5.5
q-8 0 -15.5 5.5t-7.5 14.5q0 8 4 16t9 14q19 20 44.5 32.5t53.5 12.5q22 0 43 -6t36.5 -18t25 -30.5t9.5 -43.5q0 -20 -9 -39t-22.5 -36.5t-29.5 -33t-30 -28.5q16 2 31 2t31 2q2 11 4.5 21t17.5 10q9 0 15.5 -6t6.5 -15q0 -11 -3.5 -33t-11 -44.5t-18 -39.5t-25.5 -17z" />
    <glyph glyph-name="threesuperior" unicode="&#xb3;" horiz-adv-x="284" 
d="M268 549q0 -25 -11.5 -44.5t-30.5 -33t-42 -20.5t-45 -7q-35 0 -70 16.5t-50 50.5q-3 4 -3 10q0 8 7 14.5t15 6.5q9 0 15.5 -7.5t13.5 -17t15.5 -17t21.5 -7.5q8 0 13 6.5t8 15.5t4.5 18.5t1.5 15.5q0 24 -5 36.5t-13 18.5t-16.5 7.5t-16.5 3t-13 5t-5 14.5q0 9 6.5 15
t16.5 6q2 0 5 -0.5t6 -0.5q14 0 19 12.5t5 25.5q0 10 -2.5 21.5t-14.5 11.5q-7 0 -11.5 -4.5t-9 -10.5t-10 -10.5t-14.5 -4.5q-6 0 -10 4.5t-4 10.5q0 16 10 28.5t24.5 21t31.5 13t31 4.5q18 0 37 -5t34 -15.5t25 -25.5t10 -36q0 -19 -9 -34t-24 -26q23 -14 38.5 -36
t15.5 -50z" />
    <glyph glyph-name="onesuperior" unicode="&#xb9;" horiz-adv-x="240" 
d="M224 475q0 -10 -11.5 -15.5t-27 -8t-31.5 -3t-25 -0.5q-18 0 -37.5 1.5t-37.5 4.5q-8 2 -12.5 8.5t-4.5 15.5q0 8 7 13.5t16 5.5q0 -1 3 -1t5 -1q-3 27 -3.5 54t-0.5 54v44.5t2 44.5q-7 -4 -14 -9.5t-15 -5.5t-14.5 7t-6.5 15q0 11 10 18q9 7 28.5 17.5t41 20t41.5 16.5
t31 7q19 0 22 -16q3 -15 4.5 -35t2.5 -41.5t1 -42v-36.5q0 -29 -1 -56.5t-3 -55.5q2 0 3.5 0.5t3.5 0.5q10 0 16.5 -5.5t6.5 -15.5z" />
    <glyph glyph-name="onequarter" unicode="&#xbc;" horiz-adv-x="907" 
d="M325 290q0 -15 -17 -23.5t-40 -12t-46.5 -4.5t-37.5 -1q-27 0 -55.5 2.5t-55.5 7.5q-12 2 -19.5 11.5t-7.5 23.5q0 12 10.5 20.5t23.5 8.5q1 -1 5.5 -1.5t6.5 -1.5q-4 41 -5 81t-1 80q0 67 3 133q-10 -6 -20.5 -14t-22.5 -8q-13 0 -21.5 10.5t-8.5 22.5q0 8 4 14.5
t10 11.5q14 10 43 26t61 30t62 24.5t47 10.5q11 0 20.5 -6.5t12.5 -17.5q4 -22 6.5 -52t3.5 -62t1.5 -62.5t0.5 -54.5q0 -42 -2 -83.5t-5 -83.5q2 0 5 1t5 1q14 0 24 -9t10 -23zM263 -21q-14 0 -25.5 8t-11.5 24q0 3 1 8.5t6 14.5l411 700q7 12 15.5 16t17.5 4q13 0 23.5 -8
t10.5 -24q0 -3 -2 -11t-4 -10l-404 -695q-7 -11 -15.5 -19t-22.5 -8zM891 161q0 -11 -6 -17t-14.5 -9.5t-18.5 -5t-18 -2.5q0 -17 -1 -35t-3 -35q3 0 6 1.5t8 1.5q13 0 22.5 -9.5t9.5 -22.5q0 -12 -7.5 -20.5t-18.5 -10.5q-29 -6 -57.5 -7.5t-57.5 -1.5q-10 0 -31 0.5t-43 2
t-41 5.5t-25 12q-7 8 -7 21q0 14 9.5 23t23.5 9q1 0 9.5 -1.5t10.5 -2.5q0 15 -1 30t-3 30q-35 2 -69 3.5t-69 6.5q-14 2 -21 11.5t-7 23.5q0 4 1.5 7t3.5 6q45 74 87.5 148t87.5 148q4 6 15.5 10.5t25.5 6.5t27 3t20 1q9 0 23.5 -1t28 -5t24 -10.5t11.5 -18.5
q5 -53 7.5 -105t2.5 -105v-55q6 1 11.5 1.5t11.5 0.5q32 0 32 -33zM557 185q20 -2 39 -2.5t39 -1.5v59v40.5t2 40.5z" />
    <glyph glyph-name="onehalf" unicode="&#xbd;" horiz-adv-x="935" 
d="M833 -45q-14 0 -21.5 11.5t-7.5 23.5q0 2 4 10q-17 -2 -37 -3t-53 -1t-67.5 1.5t-67.5 6.5q-16 3 -25 20t-9 32q0 17 11 27q16 15 42.5 44t51.5 62.5t43.5 66t18.5 54.5q0 12 -2.5 25.5t-8.5 25.5t-16 19.5t-25 7.5q-11 0 -23 -5t-17 -16q-5 -7 -11.5 -15t-17.5 -8
q-13 0 -23.5 8t-10.5 22q0 11 6.5 23t13.5 21q27 31 65.5 49.5t79.5 18.5q34 0 65 -9t54.5 -27.5t37.5 -46t14 -64.5q0 -30 -13.5 -58t-34 -54t-44 -49.5t-44.5 -42.5q23 2 46 3t46 3l2 16t4 15t9.5 11t17.5 4q14 0 23.5 -9t9.5 -23q0 -16 -5.5 -49.5t-16 -67t-26.5 -58.5
t-38 -25zM325 290q0 -15 -17 -23.5t-40 -12t-46.5 -4.5t-37.5 -1q-27 0 -55.5 2.5t-55.5 7.5q-12 2 -19.5 11.5t-7.5 23.5q0 12 10.5 20.5t23.5 8.5q1 -1 5.5 -1.5t6.5 -1.5q-4 41 -5 81t-1 80q0 67 3 133q-10 -6 -20.5 -14t-22.5 -8q-13 0 -21.5 10.5t-8.5 22.5q0 8 4 14.5
t10 11.5q14 10 43 26t61 30t62 24.5t47 10.5q11 0 20.5 -6.5t12.5 -17.5q4 -22 6.5 -52t3.5 -62t1.5 -62.5t0.5 -54.5q0 -42 -2 -83.5t-5 -83.5q2 0 5 1t5 1q14 0 24 -9t10 -23zM263 -21q-14 0 -25.5 8t-11.5 24q0 3 1 8.5t6 14.5l411 700q7 12 15.5 16t17.5 4q13 0 23.5 -8
t10.5 -24q0 -3 -2 -11t-4 -10l-404 -695q-7 -11 -15.5 -19t-22.5 -8z" />
    <glyph glyph-name="threequarters" unicode="&#xbe;" horiz-adv-x="917" 
d="M391 411q0 -38 -17.5 -67t-45 -49t-62 -30.5t-67.5 -10.5q-27 0 -54 6t-51 18.5t-43.5 31.5t-31.5 44q-3 7 -3 15q0 14 10 22.5t23 8.5t22.5 -11.5t20 -25t23.5 -24.5t31 -11q12 0 20 9.5t12.5 23t6.5 27.5t2 23q0 36 -7.5 55t-19.5 27.5t-25 10.5t-25 4t-19.5 7.5
t-7.5 21.5q0 14 10 23.5t25 9.5q5 0 9 -0.5t8 -0.5q20 0 28 18.5t8 37.5q0 7 -0.5 15.5t-3.5 16t-8 13t-14 5.5q-10 0 -17 -7t-14 -16t-15 -16t-20 -7q-10 0 -16.5 6.5t-6.5 15.5q0 24 15 42.5t37 31.5t47.5 20t46.5 7q27 0 55 -7.5t51.5 -23t38 -38.5t14.5 -54
q0 -28 -14 -51t-36 -39q35 -20 57.5 -53t22.5 -75zM273 -21q-14 0 -25.5 8t-11.5 24q0 3 1 8.5t6 14.5l411 700q7 12 15.5 16t17.5 4q13 0 23.5 -8t10.5 -24q0 -3 -2 -11t-4 -10l-404 -695q-7 -11 -15.5 -19t-22.5 -8zM901 161q0 -11 -6 -17t-14.5 -9.5t-18.5 -5t-18 -2.5
q0 -17 -1 -35t-3 -35q3 0 6 1.5t8 1.5q13 0 22.5 -9.5t9.5 -22.5q0 -12 -7.5 -20.5t-18.5 -10.5q-29 -6 -57.5 -7.5t-57.5 -1.5q-10 0 -31 0.5t-43 2t-41 5.5t-25 12q-7 8 -7 21q0 14 9.5 23t23.5 9q1 0 9.5 -1.5t10.5 -2.5q0 15 -1 30t-3 30q-35 2 -69 3.5t-69 6.5
q-14 2 -21 11.5t-7 23.5q0 4 1.5 7t3.5 6q45 74 87.5 148t87.5 148q4 6 15.5 10.5t25.5 6.5t27 3t20 1q9 0 23.5 -1t28 -5t24 -10.5t11.5 -18.5q5 -53 7.5 -105t2.5 -105v-55q6 1 11.5 1.5t11.5 0.5q32 0 32 -33zM567 185q20 -2 39 -2.5t39 -1.5v59v40.5t2 40.5z" />
    <glyph glyph-name="Agrave" unicode="&#xc0;" horiz-adv-x="695" 
d="M679 74q0 -20 -11.5 -34t-31.5 -16l-331 -29q-19 0 -32.5 14.5t-13.5 33.5q0 17 10.5 30t27.5 17q-4 11 -7.5 21t-6.5 21l-108 -10q0 -11 -2 -21.5t-2 -21.5h11q20 0 32.5 -14t12.5 -34q0 -19 -12 -31.5t-31 -14.5q-29 -3 -60.5 -7t-60.5 -4q-20 0 -33.5 14.5t-13.5 34.5
q0 27 18 36t41 11q11 166 53 323.5t117 306.5q14 27 44 27q25 0 39 -20q54 -78 101 -160t86 -167q29 -64 53 -130t44 -133q5 0 9.5 0.5t9.5 0.5q20 0 34 -12t14 -32zM209 322q-6 -26 -11 -51t-10 -51l62 5zM419 788q0 -20 -13.5 -32.5t-32.5 -12.5q-17 0 -32 10l-190 122
q-21 15 -21 38q0 14 7 29t18.5 27.5t25.5 20.5t29 8q18 0 31 -13l161 -160q8 -8 12.5 -17t4.5 -20z" />
    <glyph glyph-name="Aacute" unicode="&#xc1;" horiz-adv-x="695" 
d="M679 74q0 -20 -11.5 -34t-31.5 -16l-331 -29q-19 0 -32.5 14.5t-13.5 33.5q0 17 10.5 30t27.5 17q-4 11 -7.5 21t-6.5 21l-108 -10q0 -11 -2 -21.5t-2 -21.5h11q20 0 32.5 -14t12.5 -34q0 -19 -12 -31.5t-31 -14.5q-29 -3 -60.5 -7t-60.5 -4q-20 0 -33.5 14.5t-13.5 34.5
q0 27 18 36t41 11q11 166 53 323.5t117 306.5q14 27 44 27q25 0 39 -20q54 -78 101 -160t86 -167q29 -64 53 -130t44 -133q5 0 9.5 0.5t9.5 0.5q20 0 34 -12t14 -32zM209 322q-6 -26 -11 -51t-10 -51l62 5zM211 734q-19 0 -32.5 13.5t-13.5 32.5q0 11 5 20t12 16l161 160
q13 13 31 13q15 0 29 -8t25.5 -20.5t18.5 -27.5t7 -29q0 -23 -21 -38l-190 -122q-15 -10 -32 -10z" />
    <glyph glyph-name="Acircumflex" unicode="&#xc2;" horiz-adv-x="695" 
d="M679 74q0 -20 -11.5 -34t-31.5 -16l-331 -29q-19 0 -32.5 14.5t-13.5 33.5q0 17 10.5 30t27.5 17q-4 11 -7.5 21t-6.5 21l-108 -10q0 -11 -2 -21.5t-2 -21.5h11q20 0 32.5 -14t12.5 -34q0 -19 -12 -31.5t-31 -14.5q-29 -3 -60.5 -7t-60.5 -4q-20 0 -33.5 14.5t-13.5 34.5
q0 27 18 36t41 11q11 166 53 323.5t117 306.5q14 27 44 27q25 0 39 -20q54 -78 101 -160t86 -167q29 -64 53 -130t44 -133q5 0 9.5 0.5t9.5 0.5q20 0 34 -12t14 -32zM209 322q-6 -26 -11 -51t-10 -51l62 5zM443 700q-13 0 -26 8l-132 93l-132 -93q-11 -8 -27 -8
q-20 0 -34 14t-14 34q0 19 14 33l159 160q13 13 31 13q11 0 20 -2.5t17 -10.5l159 -160q6 -6 10 -15.5t4 -18.5q0 -20 -14.5 -33.5t-34.5 -13.5z" />
    <glyph glyph-name="Atilde" unicode="&#xc3;" horiz-adv-x="695" 
d="M679 74q0 -20 -11.5 -34t-31.5 -16l-331 -29q-19 0 -32.5 14.5t-13.5 33.5q0 17 10.5 30t27.5 17q-4 11 -7.5 21t-6.5 21l-108 -10q0 -11 -2 -21.5t-2 -21.5h11q20 0 32.5 -14t12.5 -34q0 -19 -12 -31.5t-31 -14.5q-29 -3 -60.5 -7t-60.5 -4q-20 0 -33.5 14.5t-13.5 34.5
q0 27 18 36t41 11q11 166 53 323.5t117 306.5q14 27 44 27q25 0 39 -20q54 -78 101 -160t86 -167q29 -64 53 -130t44 -133q5 0 9.5 0.5t9.5 0.5q20 0 34 -12t14 -32zM209 322q-6 -26 -11 -51t-10 -51l62 5zM400 725q-26 0 -54 13.5t-53 30t-44 30t-26 13.5q-18 0 -23 -12
t-8.5 -26.5t-12 -26.5t-32.5 -12q-20 0 -34 14t-14 34q0 25 10 48t26.5 39.5t39 26.5t48.5 10q24 0 50 -13t49.5 -29t43 -29t29.5 -13q14 0 20 11.5t11 26t13.5 26t28.5 11.5q48 0 48 -47q0 -23 -9 -45.5t-25 -40.5t-37 -29t-45 -11z" />
    <glyph glyph-name="Adieresis" unicode="&#xc4;" horiz-adv-x="695" 
d="M679 74q0 -20 -11.5 -34t-31.5 -16l-331 -29q-19 0 -32.5 14.5t-13.5 33.5q0 17 10.5 30t27.5 17q-4 11 -7.5 21t-6.5 21l-108 -10q0 -11 -2 -21.5t-2 -21.5h11q20 0 32.5 -14t12.5 -34q0 -19 -12 -31.5t-31 -14.5q-29 -3 -60.5 -7t-60.5 -4q-20 0 -33.5 14.5t-13.5 34.5
q0 27 18 36t41 11q11 166 53 323.5t117 306.5q14 27 44 27q25 0 39 -20q54 -78 101 -160t86 -167q29 -64 53 -130t44 -133q5 0 9.5 0.5t9.5 0.5q20 0 34 -12t14 -32zM209 322q-6 -26 -11 -51t-10 -51l62 5zM281 810q0 -29 -20 -48.5t-49 -19.5t-48.5 19.5t-19.5 48.5
t19.5 49t48.5 20t49 -20t20 -49zM439 810q0 -29 -20 -48.5t-49 -19.5q-28 0 -48.5 19.5t-20.5 48.5t20 49t49 20t49 -20t20 -49z" />
    <glyph glyph-name="Aring" unicode="&#xc5;" horiz-adv-x="695" 
d="M679 74q0 -20 -11.5 -34t-31.5 -16l-331 -29q-19 0 -32.5 14.5t-13.5 33.5q0 17 10.5 30t27.5 17q-4 11 -7.5 21t-6.5 21l-108 -10q0 -11 -2 -21.5t-2 -21.5h11q20 0 32.5 -14t12.5 -34q0 -19 -12 -31.5t-31 -14.5q-29 -3 -60.5 -7t-60.5 -4q-20 0 -33.5 14.5t-13.5 34.5
q0 27 18 36t41 11q11 166 53 323.5t117 306.5q14 27 44 27q25 0 39 -20q54 -78 101 -160t86 -167q29 -64 53 -130t44 -133q5 0 9.5 0.5t9.5 0.5q20 0 34 -12t14 -32zM209 322q-6 -26 -11 -51t-10 -51l62 5zM374 783q0 -40 -27 -66.5t-67 -26.5q-39 0 -65.5 27t-26.5 66
t26.5 66t65.5 27t66.5 -27t27.5 -66zM318 783q0 16 -10.5 27t-26.5 11t-27 -11t-11 -27t11 -27t27 -11t26.5 11t10.5 27z" />
    <glyph glyph-name="Ccedilla" unicode="&#xc7;" horiz-adv-x="628" 
d="M332 -11q-74 0 -132.5 31t-99 82.5t-62.5 118t-22 138.5q0 71 20.5 136.5t60 115t98.5 79t136 29.5q58 0 108 -22l-4 12t-2 13q0 18 12.5 33t31.5 15q28 0 43.5 -24.5t22 -57.5t8 -67t1.5 -54q0 -15 -1.5 -31.5t-7 -31t-16.5 -24t-31 -9.5t-32 16t-12 34q0 14 2.5 27.5
t2.5 27.5q-16 11 -31.5 22.5t-35.5 11.5q-21 0 -33.5 -21.5t-19 -50.5t-8.5 -57.5t-2 -43.5q0 -16 1 -47t4.5 -67.5t10 -74.5t17 -69t26.5 -51t38 -20q31 0 50.5 16t34 35.5t27.5 36t31 16.5t31.5 -15.5t13.5 -34.5q0 -13 -7 -23q-49 -75 -116 -112.5t-157 -37.5zM286 -215
q-14 0 -34.5 4t-40.5 12t-34 20.5t-14 30.5q0 14 11.5 24.5t25.5 10.5q8 0 19.5 -4t25 -9t28 -9t29.5 -4q9 0 16 3t7 14q0 19 -19 19q-11 0 -22.5 -3.5t-23.5 -3.5q-17 0 -27.5 11.5t-10.5 27.5q0 7 8.5 23t19 33t21 31.5t13.5 20.5q11 19 33 19q12 0 25 -9t13 -23t-7 -28.5
t-15 -25.5q34 -8 51.5 -32.5t17.5 -59.5q0 -26 -9.5 -44t-25.5 -29t-37 -15.5t-44 -4.5z" />
    <glyph glyph-name="Egrave" unicode="&#xc8;" horiz-adv-x="646" 
d="M578 -24q-14 0 -23 5t-14 12.5t-7.5 16t-2.5 14.5t3 14q-94 -35 -191.5 -44.5t-196.5 -9.5q-13 0 -26.5 1t-25 5.5t-18.5 14t-7 26.5q0 16 6.5 26t17 14.5t23 6t25.5 1.5q-22 131 -32 262t-12 264q-17 -5 -33 -5q-19 0 -33.5 12.5t-14.5 32.5q0 19 10 33q7 8 29 15t52 12
t64.5 9t66.5 6.5t57.5 4t38.5 1.5q34 0 67.5 -3t66.5 -8q-2 10 -2 15q0 20 14.5 33t33.5 13q21 0 34.5 -19t21 -45t10.5 -52.5t3 -42.5q0 -17 -1 -34.5t-7 -32.5t-18 -24.5t-33 -9.5q-19 0 -31 16.5t-12 33.5q0 11 2 23.5t2 24.5q-58 13 -120 15q8 -42 14 -84t11 -85l14 -2
t14 -3q-2 2 -3 11.5t-1 11.5q0 20 13.5 33.5t33.5 13.5q23 0 37 -20t21.5 -47t9.5 -55t2 -44q0 -15 -1.5 -32.5t-7.5 -33t-17.5 -26t-31.5 -10.5q-22 0 -32.5 16t-10.5 35q0 11 2.5 23t2.5 23l-36 8q6 -66 10 -130.5t4 -130.5q61 14 114 37q-2 17 -7.5 36.5t-5.5 36.5
q0 20 17 30.5t34 10.5t26.5 -8t15.5 -23q5 -13 9 -37t7 -50.5t5 -51.5t2 -39q0 -25 -11.5 -46t-40.5 -21zM411 806q0 -20 -13.5 -32.5t-32.5 -12.5q-17 0 -32 10l-190 122q-21 15 -21 38q0 14 7 29t18.5 27.5t25.5 20.5t29 8q18 0 31 -13l161 -160q8 -8 12.5 -17t4.5 -20z
" />
    <glyph glyph-name="Eacute" unicode="&#xc9;" horiz-adv-x="646" 
d="M578 -24q-14 0 -23 5t-14 12.5t-7.5 16t-2.5 14.5t3 14q-94 -35 -191.5 -44.5t-196.5 -9.5q-13 0 -26.5 1t-25 5.5t-18.5 14t-7 26.5q0 16 6.5 26t17 14.5t23 6t25.5 1.5q-22 131 -32 262t-12 264q-17 -5 -33 -5q-19 0 -33.5 12.5t-14.5 32.5q0 19 10 33q7 8 29 15t52 12
t64.5 9t66.5 6.5t57.5 4t38.5 1.5q34 0 67.5 -3t66.5 -8q-2 10 -2 15q0 20 14.5 33t33.5 13q21 0 34.5 -19t21 -45t10.5 -52.5t3 -42.5q0 -17 -1 -34.5t-7 -32.5t-18 -24.5t-33 -9.5q-19 0 -31 16.5t-12 33.5q0 11 2 23.5t2 24.5q-58 13 -120 15q8 -42 14 -84t11 -85l14 -2
t14 -3q-2 2 -3 11.5t-1 11.5q0 20 13.5 33.5t33.5 13.5q23 0 37 -20t21.5 -47t9.5 -55t2 -44q0 -15 -1.5 -32.5t-7.5 -33t-17.5 -26t-31.5 -10.5q-22 0 -32.5 16t-10.5 35q0 11 2.5 23t2.5 23l-36 8q6 -66 10 -130.5t4 -130.5q61 14 114 37q-2 17 -7.5 36.5t-5.5 36.5
q0 20 17 30.5t34 10.5t26.5 -8t15.5 -23q5 -13 9 -37t7 -50.5t5 -51.5t2 -39q0 -25 -11.5 -46t-40.5 -21zM242 761q-19 0 -32.5 13.5t-13.5 32.5q0 11 5 20t12 16l161 160q13 13 31 13q15 0 29 -8t25.5 -20.5t18.5 -27.5t7 -29q0 -23 -21 -38l-190 -122q-15 -10 -32 -10z
" />
    <glyph glyph-name="Ecircumflex" unicode="&#xca;" horiz-adv-x="646" 
d="M578 -24q-14 0 -23 5t-14 12.5t-7.5 16t-2.5 14.5t3 14q-94 -35 -191.5 -44.5t-196.5 -9.5q-13 0 -26.5 1t-25 5.5t-18.5 14t-7 26.5q0 16 6.5 26t17 14.5t23 6t25.5 1.5q-22 131 -32 262t-12 264q-17 -5 -33 -5q-19 0 -33.5 12.5t-14.5 32.5q0 19 10 33q7 8 29 15t52 12
t64.5 9t66.5 6.5t57.5 4t38.5 1.5q34 0 67.5 -3t66.5 -8q-2 10 -2 15q0 20 14.5 33t33.5 13q21 0 34.5 -19t21 -45t10.5 -52.5t3 -42.5q0 -17 -1 -34.5t-7 -32.5t-18 -24.5t-33 -9.5q-19 0 -31 16.5t-12 33.5q0 11 2 23.5t2 24.5q-58 13 -120 15q8 -42 14 -84t11 -85l14 -2
t14 -3q-2 2 -3 11.5t-1 11.5q0 20 13.5 33.5t33.5 13.5q23 0 37 -20t21.5 -47t9.5 -55t2 -44q0 -15 -1.5 -32.5t-7.5 -33t-17.5 -26t-31.5 -10.5q-22 0 -32.5 16t-10.5 35q0 11 2.5 23t2.5 23l-36 8q6 -66 10 -130.5t4 -130.5q61 14 114 37q-2 17 -7.5 36.5t-5.5 36.5
q0 20 17 30.5t34 10.5t26.5 -8t15.5 -23q5 -13 9 -37t7 -50.5t5 -51.5t2 -39q0 -25 -11.5 -46t-40.5 -21zM426 773q-13 0 -26 8l-132 93l-132 -93q-11 -8 -27 -8q-20 0 -34 14t-14 34q0 19 14 33l159 160q13 13 31 13q11 0 20 -2.5t17 -10.5l159 -160q6 -6 10 -15.5t4 -18.5
q0 -20 -14.5 -33.5t-34.5 -13.5z" />
    <glyph glyph-name="Edieresis" unicode="&#xcb;" horiz-adv-x="646" 
d="M578 -24q-14 0 -23 5t-14 12.5t-7.5 16t-2.5 14.5t3 14q-94 -35 -191.5 -44.5t-196.5 -9.5q-13 0 -26.5 1t-25 5.5t-18.5 14t-7 26.5q0 16 6.5 26t17 14.5t23 6t25.5 1.5q-22 131 -32 262t-12 264q-17 -5 -33 -5q-19 0 -33.5 12.5t-14.5 32.5q0 19 10 33q7 8 29 15t52 12
t64.5 9t66.5 6.5t57.5 4t38.5 1.5q34 0 67.5 -3t66.5 -8q-2 10 -2 15q0 20 14.5 33t33.5 13q21 0 34.5 -19t21 -45t10.5 -52.5t3 -42.5q0 -17 -1 -34.5t-7 -32.5t-18 -24.5t-33 -9.5q-19 0 -31 16.5t-12 33.5q0 11 2 23.5t2 24.5q-58 13 -120 15q8 -42 14 -84t11 -85l14 -2
t14 -3q-2 2 -3 11.5t-1 11.5q0 20 13.5 33.5t33.5 13.5q23 0 37 -20t21.5 -47t9.5 -55t2 -44q0 -15 -1.5 -32.5t-7.5 -33t-17.5 -26t-31.5 -10.5q-22 0 -32.5 16t-10.5 35q0 11 2.5 23t2.5 23l-36 8q6 -66 10 -130.5t4 -130.5q61 14 114 37q-2 17 -7.5 36.5t-5.5 36.5
q0 20 17 30.5t34 10.5t26.5 -8t15.5 -23q5 -13 9 -37t7 -50.5t5 -51.5t2 -39q0 -25 -11.5 -46t-40.5 -21zM253 825q0 -29 -20 -48.5t-49 -19.5t-48.5 19.5t-19.5 48.5t19.5 49t48.5 20t49 -20t20 -49zM411 825q0 -29 -20 -48.5t-49 -19.5q-28 0 -48.5 19.5t-20.5 48.5t20 49
t49 20t49 -20t20 -49z" />
    <glyph glyph-name="Igrave" unicode="&#xcc;" horiz-adv-x="467" 
d="M451 44q0 -16 -9 -28q-11 -14 -44 -23t-75 -14t-84.5 -7.5t-70.5 -2.5q-16 0 -33.5 1.5t-31.5 7t-23.5 16t-9.5 28.5q0 20 14.5 33t34.5 13q-24 132 -34 265.5t-12 267.5q-3 -1 -7 -1q-21 0 -35.5 13.5t-14.5 34.5q0 16 9 28q10 14 44.5 23.5t76.5 15.5t84.5 8.5
t68.5 2.5q15 0 32 -1.5t31 -6.5t23.5 -14.5t9.5 -26.5q0 -23 -14 -37t-40 -14q23 -134 34 -267t14 -269q4 1 7 1.5t7 0.5q20 0 34 -14.5t14 -33.5zM315 803q0 -20 -13.5 -32.5t-32.5 -12.5q-17 0 -32 10l-190 122q-21 15 -21 38q0 14 7 29t18.5 27.5t25.5 20.5t29 8
q18 0 31 -13l161 -160q8 -8 12.5 -17t4.5 -20z" />
    <glyph glyph-name="Iacute" unicode="&#xcd;" horiz-adv-x="467" 
d="M451 44q0 -16 -9 -28q-11 -14 -44 -23t-75 -14t-84.5 -7.5t-70.5 -2.5q-16 0 -33.5 1.5t-31.5 7t-23.5 16t-9.5 28.5q0 20 14.5 33t34.5 13q-24 132 -34 265.5t-12 267.5q-3 -1 -7 -1q-21 0 -35.5 13.5t-14.5 34.5q0 16 9 28q10 14 44.5 23.5t76.5 15.5t84.5 8.5
t68.5 2.5q15 0 32 -1.5t31 -6.5t23.5 -14.5t9.5 -26.5q0 -23 -14 -37t-40 -14q23 -134 34 -267t14 -269q4 1 7 1.5t7 0.5q20 0 34 -14.5t14 -33.5zM147 746q-19 0 -32.5 13.5t-13.5 32.5q0 11 5 20t12 16l161 160q13 13 31 13q15 0 29 -8t25.5 -20.5t18.5 -27.5t7 -29
q0 -23 -21 -38l-190 -122q-15 -10 -32 -10z" />
    <glyph glyph-name="Icircumflex" unicode="&#xce;" horiz-adv-x="467" 
d="M451 44q0 -16 -9 -28q-11 -14 -44 -23t-75 -14t-84.5 -7.5t-70.5 -2.5q-16 0 -33.5 1.5t-31.5 7t-23.5 16t-9.5 28.5q0 20 14.5 33t34.5 13q-24 132 -34 265.5t-12 267.5q-3 -1 -7 -1q-21 0 -35.5 13.5t-14.5 34.5q0 16 9 28q10 14 44.5 23.5t76.5 15.5t84.5 8.5
t68.5 2.5q15 0 32 -1.5t31 -6.5t23.5 -14.5t9.5 -26.5q0 -23 -14 -37t-40 -14q23 -134 34 -267t14 -269q4 1 7 1.5t7 0.5q20 0 34 -14.5t14 -33.5zM345 753q-13 0 -26 8l-132 93l-132 -93q-11 -8 -27 -8q-20 0 -34 14t-14 34q0 19 14 33l159 160q13 13 31 13q11 0 20 -2.5
t17 -10.5l159 -160q6 -6 10 -15.5t4 -18.5q0 -20 -14.5 -33.5t-34.5 -13.5z" />
    <glyph glyph-name="Idieresis" unicode="&#xcf;" horiz-adv-x="467" 
d="M451 44q0 -16 -9 -28q-11 -14 -44 -23t-75 -14t-84.5 -7.5t-70.5 -2.5q-16 0 -33.5 1.5t-31.5 7t-23.5 16t-9.5 28.5q0 20 14.5 33t34.5 13q-24 132 -34 265.5t-12 267.5q-3 -1 -7 -1q-21 0 -35.5 13.5t-14.5 34.5q0 16 9 28q10 14 44.5 23.5t76.5 15.5t84.5 8.5
t68.5 2.5q15 0 32 -1.5t31 -6.5t23.5 -14.5t9.5 -26.5q0 -23 -14 -37t-40 -14q23 -134 34 -267t14 -269q4 1 7 1.5t7 0.5q20 0 34 -14.5t14 -33.5zM175 829q0 -29 -20 -48.5t-49 -19.5t-48.5 19.5t-19.5 48.5t19.5 49t48.5 20t49 -20t20 -49zM333 829q0 -29 -20 -48.5
t-49 -19.5q-28 0 -48.5 19.5t-20.5 48.5t20 49t49 20t49 -20t20 -49z" />
    <glyph glyph-name="Ntilde" unicode="&#xd1;" horiz-adv-x="699" 
d="M600 662q25 -149 37.5 -296t12.5 -298q0 -20 -14.5 -33.5t-33.5 -15.5q-31 -3 -62.5 -6.5t-62.5 -3.5q-22 0 -45 24.5t-46 63t-46.5 85.5t-47 92.5t-46 84t-44.5 60.5q5 -87 15 -172.5t25 -171.5q10 2 20.5 4.5t20.5 2.5q21 0 35 -15t14 -35q0 -15 -10.5 -27t-24.5 -16
q-40 -10 -82.5 -12t-84.5 -2q-20 0 -36.5 11.5t-16.5 34.5q0 30 18.5 38.5t50.5 8.5q-21 137 -33 272t-14 274q-9 -2 -18.5 -5.5t-18.5 -3.5q-18 0 -32 15t-14 33q0 16 9.5 29t24.5 18q54 17 111.5 24.5t114.5 7.5q53 0 88.5 -22t62.5 -55.5t49.5 -74.5t50.5 -78
q-4 38 -9.5 75t-12.5 74q-4 -2 -14.5 -4t-15.5 -2q-20 0 -33.5 15t-13.5 35q0 17 9.5 29t25.5 16q38 9 77.5 13t77.5 4q12 0 23.5 -1.5t20.5 -7t15 -14.5t6 -24q0 -26 -17 -37t-40 -11h-26zM409 765q-26 0 -54 13.5t-53 30t-44 30t-26 13.5q-18 0 -23 -12t-8.5 -26.5
t-12 -26.5t-32.5 -12q-20 0 -34 14t-14 34q0 25 10 48t26.5 39.5t39 26.5t48.5 10q24 0 50 -13t49.5 -29t43 -29t29.5 -13q14 0 20 11.5t11 26t13.5 26t28.5 11.5q48 0 48 -47q0 -23 -9 -45.5t-25 -40.5t-37 -29t-45 -11z" />
    <glyph glyph-name="Ograve" unicode="&#xd2;" horiz-adv-x="728" 
d="M712 347q0 -73 -26 -139t-72.5 -116t-110 -79.5t-138.5 -29.5q-76 0 -140 32t-110.5 84.5t-72.5 120.5t-26 141q0 74 26 140.5t72.5 116.5t110.5 79.5t140 29.5t139.5 -32t109.5 -85.5t72 -122t26 -140.5zM464 87q8 0 10 9t2 20q0 19 -10 64t-27 101t-38 117t-43 111
t-42.5 82.5t-36.5 32.5q-25 0 -25 -25q0 -21 10 -67.5t26 -103t37.5 -117t45 -110.5t47 -82t44.5 -32zM460 796q0 -20 -13.5 -32.5t-32.5 -12.5q-17 0 -32 10l-190 122q-21 15 -21 38q0 14 7 29t18.5 27.5t25.5 20.5t29 8q18 0 31 -13l161 -160q8 -8 12.5 -17t4.5 -20z" />
    <glyph glyph-name="Oacute" unicode="&#xd3;" horiz-adv-x="728" 
d="M712 347q0 -73 -26 -139t-72.5 -116t-110 -79.5t-138.5 -29.5q-76 0 -140 32t-110.5 84.5t-72.5 120.5t-26 141q0 74 26 140.5t72.5 116.5t110.5 79.5t140 29.5t139.5 -32t109.5 -85.5t72 -122t26 -140.5zM464 87q8 0 10 9t2 20q0 19 -10 64t-27 101t-38 117t-43 111
t-42.5 82.5t-36.5 32.5q-25 0 -25 -25q0 -21 10 -67.5t26 -103t37.5 -117t45 -110.5t47 -82t44.5 -32zM302 754q-19 0 -32.5 13.5t-13.5 32.5q0 11 5 20t12 16l161 160q13 13 31 13q15 0 29 -8t25.5 -20.5t18.5 -27.5t7 -29q0 -23 -21 -38l-190 -122q-15 -10 -32 -10z" />
    <glyph glyph-name="Ocircumflex" unicode="&#xd4;" horiz-adv-x="728" 
d="M712 347q0 -73 -26 -139t-72.5 -116t-110 -79.5t-138.5 -29.5q-76 0 -140 32t-110.5 84.5t-72.5 120.5t-26 141q0 74 26 140.5t72.5 116.5t110.5 79.5t140 29.5t139.5 -32t109.5 -85.5t72 -122t26 -140.5zM464 87q8 0 10 9t2 20q0 19 -10 64t-27 101t-38 117t-43 111
t-42.5 82.5t-36.5 32.5q-25 0 -25 -25q0 -21 10 -67.5t26 -103t37.5 -117t45 -110.5t47 -82t44.5 -32zM480 742q-13 0 -26 8l-132 93l-132 -93q-11 -8 -27 -8q-20 0 -34 14t-14 34q0 19 14 33l159 160q13 13 31 13q11 0 20 -2.5t17 -10.5l159 -160q6 -6 10 -15.5t4 -18.5
q0 -20 -14.5 -33.5t-34.5 -13.5z" />
    <glyph glyph-name="Otilde" unicode="&#xd5;" horiz-adv-x="728" 
d="M712 347q0 -73 -26 -139t-72.5 -116t-110 -79.5t-138.5 -29.5q-76 0 -140 32t-110.5 84.5t-72.5 120.5t-26 141q0 74 26 140.5t72.5 116.5t110.5 79.5t140 29.5t139.5 -32t109.5 -85.5t72 -122t26 -140.5zM464 87q8 0 10 9t2 20q0 19 -10 64t-27 101t-38 117t-43 111
t-42.5 82.5t-36.5 32.5q-25 0 -25 -25q0 -21 10 -67.5t26 -103t37.5 -117t45 -110.5t47 -82t44.5 -32zM443 747q-26 0 -54 13.5t-53 30t-44 30t-26 13.5q-18 0 -23 -12t-8.5 -26.5t-12 -26.5t-32.5 -12q-20 0 -34 14t-14 34q0 25 10 48t26.5 39.5t39 26.5t48.5 10
q24 0 50 -13t49.5 -29t43 -29t29.5 -13q14 0 20 11.5t11 26t13.5 26t28.5 11.5q48 0 48 -47q0 -23 -9 -45.5t-25 -40.5t-37 -29t-45 -11z" />
    <glyph glyph-name="Odieresis" unicode="&#xd6;" horiz-adv-x="728" 
d="M712 347q0 -73 -26 -139t-72.5 -116t-110 -79.5t-138.5 -29.5q-76 0 -140 32t-110.5 84.5t-72.5 120.5t-26 141q0 74 26 140.5t72.5 116.5t110.5 79.5t140 29.5t139.5 -32t109.5 -85.5t72 -122t26 -140.5zM464 87q8 0 10 9t2 20q0 19 -10 64t-27 101t-38 117t-43 111
t-42.5 82.5t-36.5 32.5q-25 0 -25 -25q0 -21 10 -67.5t26 -103t37.5 -117t45 -110.5t47 -82t44.5 -32zM294 815q0 -29 -20 -48.5t-49 -19.5t-48.5 19.5t-19.5 48.5t19.5 49t48.5 20t49 -20t20 -49zM452 815q0 -29 -20 -48.5t-49 -19.5q-28 0 -48.5 19.5t-20.5 48.5t20 49
t49 20t49 -20t20 -49z" />
    <glyph glyph-name="Scaron" unicode="&#x160;" horiz-adv-x="621" 
d="M605 233q0 -54 -22.5 -98.5t-60 -77.5t-85 -53.5t-97.5 -24.5q-30 -3 -61 -3t-65 5t-63 17q-2 -11 -14.5 -24.5t-26.5 -13.5l-4 -1q-17 0 -32 11t-17 28q-3 23 -4 47.5t-1 47.5q0 27 1.5 49.5t7.5 38.5t17 24.5t30 8.5q20 0 31.5 -17t11.5 -34q0 -14 -2.5 -29t-2.5 -30
q16 -9 29 -15.5t25.5 -11t27 -6.5t32.5 -2q34 0 55 14t21 53q0 19 -10 34t-24.5 27t-31.5 22t-31 19q-84 54 -156 123q-35 33 -51 74t-16 89q0 54 25 94t64 66.5t87.5 39t96.5 12.5t95 -10.5t87 -36.5q3 12 5 23.5t6.5 21t13.5 15.5t26 6q20 0 34.5 -13t14.5 -34
q0 -13 -6.5 -38.5t-14.5 -52.5t-16.5 -51t-13.5 -34q-12 -26 -42 -26q-20 0 -33.5 13.5t-13.5 33.5q0 11 3 19.5t8 18.5q-20 23 -47.5 35t-57.5 12q-11 0 -22.5 -2t-20.5 -7t-14.5 -13.5t-5.5 -22.5q0 -11 10.5 -21t24.5 -19t29 -16t23 -12q45 -26 87 -55t80 -63
q36 -32 56.5 -79t20.5 -95zM507 976q0 -19 -14 -33l-159 -160q-13 -13 -31 -13q-11 0 -20 2.5t-17 10.5l-159 160q-14 14 -14 33q0 20 14.5 34t34.5 14q14 0 26 -8l132 -93l132 93q11 8 27 8q20 0 34 -14t14 -34z" />
    <glyph glyph-name="Ugrave" unicode="&#xd9;" horiz-adv-x="687" 
d="M600 661q12 -46 23.5 -92t21 -92.5t15.5 -93.5t6 -94q0 -148 -73.5 -230.5t-225.5 -82.5q-62 0 -108 20t-78.5 55t-53 81.5t-32 99.5t-16 109t-4.5 110q0 42 2 81t4 73q-5 -1 -10.5 -2t-10.5 -1q-20 0 -32 14t-12 34q0 16 9.5 28.5t24.5 17.5q54 17 127.5 25t151.5 8
q13 0 27 -1t26 -4.5t21 -10.5t13 -19q0 17 9 29q8 10 31.5 16.5t51.5 10t54 4.5t40 1q13 0 25 -1t22 -5.5t16 -13.5t6 -26t-6 -26.5t-16 -14.5t-23 -6t-26 -1zM570 289q0 46 -6.5 92t-16 91.5t-21.5 90t-23 89.5q-9 -2 -19.5 -5t-20.5 -3q-15 0 -27 9.5t-17 22.5
q-1 -19 -13.5 -32t-31.5 -14q0 -105 2 -201.5t12.5 -170t32.5 -117t61 -43.5q25 0 42 23t27 54t14.5 63.5t4.5 50.5zM422 812q0 -20 -13.5 -32.5t-32.5 -12.5q-17 0 -32 10l-190 122q-21 15 -21 38q0 14 7 29t18.5 27.5t25.5 20.5t29 8q18 0 31 -13l161 -160q8 -8 12.5 -17
t4.5 -20z" />
    <glyph glyph-name="Uacute" unicode="&#xda;" horiz-adv-x="687" 
d="M600 661q12 -46 23.5 -92t21 -92.5t15.5 -93.5t6 -94q0 -148 -73.5 -230.5t-225.5 -82.5q-62 0 -108 20t-78.5 55t-53 81.5t-32 99.5t-16 109t-4.5 110q0 42 2 81t4 73q-5 -1 -10.5 -2t-10.5 -1q-20 0 -32 14t-12 34q0 16 9.5 28.5t24.5 17.5q54 17 127.5 25t151.5 8
q13 0 27 -1t26 -4.5t21 -10.5t13 -19q0 17 9 29q8 10 31.5 16.5t51.5 10t54 4.5t40 1q13 0 25 -1t22 -5.5t16 -13.5t6 -26t-6 -26.5t-16 -14.5t-23 -6t-26 -1zM570 289q0 46 -6.5 92t-16 91.5t-21.5 90t-23 89.5q-9 -2 -19.5 -5t-20.5 -3q-15 0 -27 9.5t-17 22.5
q-1 -19 -13.5 -32t-31.5 -14q0 -105 2 -201.5t12.5 -170t32.5 -117t61 -43.5q25 0 42 23t27 54t14.5 63.5t4.5 50.5zM282 764q-19 0 -32.5 13.5t-13.5 32.5q0 11 5 20t12 16l161 160q13 13 31 13q15 0 29 -8t25.5 -20.5t18.5 -27.5t7 -29q0 -23 -21 -38l-190 -122
q-15 -10 -32 -10z" />
    <glyph glyph-name="Ucircumflex" unicode="&#xdb;" horiz-adv-x="687" 
d="M600 661q12 -46 23.5 -92t21 -92.5t15.5 -93.5t6 -94q0 -148 -73.5 -230.5t-225.5 -82.5q-62 0 -108 20t-78.5 55t-53 81.5t-32 99.5t-16 109t-4.5 110q0 42 2 81t4 73q-5 -1 -10.5 -2t-10.5 -1q-20 0 -32 14t-12 34q0 16 9.5 28.5t24.5 17.5q54 17 127.5 25t151.5 8
q13 0 27 -1t26 -4.5t21 -10.5t13 -19q0 17 9 29q8 10 31.5 16.5t51.5 10t54 4.5t40 1q13 0 25 -1t22 -5.5t16 -13.5t6 -26t-6 -26.5t-16 -14.5t-23 -6t-26 -1zM570 289q0 46 -6.5 92t-16 91.5t-21.5 90t-23 89.5q-9 -2 -19.5 -5t-20.5 -3q-15 0 -27 9.5t-17 22.5
q-1 -19 -13.5 -32t-31.5 -14q0 -105 2 -201.5t12.5 -170t32.5 -117t61 -43.5q25 0 42 23t27 54t14.5 63.5t4.5 50.5zM466 766q-13 0 -26 8l-132 93l-132 -93q-11 -8 -27 -8q-20 0 -34 14t-14 34q0 19 14 33l159 160q13 13 31 13q11 0 20 -2.5t17 -10.5l159 -160
q6 -6 10 -15.5t4 -18.5q0 -20 -14.5 -33.5t-34.5 -13.5z" />
    <glyph glyph-name="Udieresis" unicode="&#xdc;" horiz-adv-x="687" 
d="M600 661q12 -46 23.5 -92t21 -92.5t15.5 -93.5t6 -94q0 -148 -73.5 -230.5t-225.5 -82.5q-62 0 -108 20t-78.5 55t-53 81.5t-32 99.5t-16 109t-4.5 110q0 42 2 81t4 73q-5 -1 -10.5 -2t-10.5 -1q-20 0 -32 14t-12 34q0 16 9.5 28.5t24.5 17.5q54 17 127.5 25t151.5 8
q13 0 27 -1t26 -4.5t21 -10.5t13 -19q0 17 9 29q8 10 31.5 16.5t51.5 10t54 4.5t40 1q13 0 25 -1t22 -5.5t16 -13.5t6 -26t-6 -26.5t-16 -14.5t-23 -6t-26 -1zM570 289q0 46 -6.5 92t-16 91.5t-21.5 90t-23 89.5q-9 -2 -19.5 -5t-20.5 -3q-15 0 -27 9.5t-17 22.5
q-1 -19 -13.5 -32t-31.5 -14q0 -105 2 -201.5t12.5 -170t32.5 -117t61 -43.5q25 0 42 23t27 54t14.5 63.5t4.5 50.5zM326 829q0 -29 -20 -48.5t-49 -19.5t-48.5 19.5t-19.5 48.5t19.5 49t48.5 20t49 -20t20 -49zM484 829q0 -29 -20 -48.5t-49 -19.5q-28 0 -48.5 19.5
t-20.5 48.5t20 49t49 20t49 -20t20 -49z" />
    <glyph glyph-name="Yacute" unicode="&#xdd;" horiz-adv-x="724" 
d="M655 676q0 -44 -9 -90.5t-23.5 -92t-32.5 -90t-36 -84.5q7 -107 9 -213q4 1 7 1.5t7 0.5q21 0 34 -14.5t13 -34.5q0 -15 -9.5 -28t-24.5 -17q-66 -17 -135.5 -21.5t-137.5 -4.5q-12 0 -25 1.5t-23.5 6t-17.5 14t-7 24.5q0 21 13 35.5t35 14.5q-8 51 -14.5 101.5
t-12.5 101.5l-183 334q-5 -1 -9.5 -2t-9.5 -1q-23 0 -35 15t-12 36q0 14 9.5 26t23.5 16q31 9 70.5 15t81 9.5t81.5 5.5t73 2q13 0 26.5 -1t24 -6t17 -15t6.5 -28q0 -19 -17 -36l89 -162q8 26 15.5 58.5t7.5 66.5q0 20 -5 43q-10 -2 -16 -2q-20 0 -34.5 13.5t-14.5 33.5
q0 24 23 36.5t54.5 18.5t64 7t52.5 1q26 0 43 -9.5t17 -40.5q0 -23 -16 -33.5t-37 -11.5zM342 774q-19 0 -32.5 13.5t-13.5 32.5q0 11 5 20t12 16l161 160q13 13 31 13q15 0 29 -8t25.5 -20.5t18.5 -27.5t7 -29q0 -23 -21 -38l-190 -122q-15 -10 -32 -10z" />
    <glyph glyph-name="Ydieresis" unicode="&#x178;" horiz-adv-x="724" 
d="M655 676q0 -44 -9 -90.5t-23.5 -92t-32.5 -90t-36 -84.5q7 -107 9 -213q4 1 7 1.5t7 0.5q21 0 34 -14.5t13 -34.5q0 -15 -9.5 -28t-24.5 -17q-66 -17 -135.5 -21.5t-137.5 -4.5q-12 0 -25 1.5t-23.5 6t-17.5 14t-7 24.5q0 21 13 35.5t35 14.5q-8 51 -14.5 101.5
t-12.5 101.5l-183 334q-5 -1 -9.5 -2t-9.5 -1q-23 0 -35 15t-12 36q0 14 9.5 26t23.5 16q31 9 70.5 15t81 9.5t81.5 5.5t73 2q13 0 26.5 -1t24 -6t17 -15t6.5 -28q0 -19 -17 -36l89 -162q8 26 15.5 58.5t7.5 66.5q0 20 -5 43q-10 -2 -16 -2q-20 0 -34.5 13.5t-14.5 33.5
q0 24 23 36.5t54.5 18.5t64 7t52.5 1q26 0 43 -9.5t17 -40.5q0 -23 -16 -33.5t-37 -11.5zM361 839q0 -29 -20 -48.5t-49 -19.5t-48.5 19.5t-19.5 48.5t19.5 49t48.5 20t49 -20t20 -49zM519 839q0 -29 -20 -48.5t-49 -19.5q-28 0 -48.5 19.5t-20.5 48.5t20 49t49 20t49 -20
t20 -49z" />
    <glyph glyph-name="Zcaron" unicode="&#x17d;" horiz-adv-x="653" 
d="M632 -2q-8 -17 -20.5 -27t-32.5 -10q-19 0 -30.5 14t-11.5 31q0 4 0.5 8.5t0.5 9.5q-92 -33 -187 -43.5t-206 -10.5q-12 0 -24 1t-21.5 5.5t-15.5 13.5t-6 25q0 6 12.5 47.5t32 101.5t42.5 130.5t44.5 134.5t37.5 113t22 67q-79 -12 -156 -44q2 -17 6.5 -35t4.5 -35
q0 -21 -17 -32.5t-36 -11.5q-31 0 -41 31q-4 13 -7 34.5t-4.5 44.5t-2 45t-0.5 37t2 30t8.5 27.5t17.5 20.5t29 8t30 -13t12 -30q0 -4 -0.5 -8.5t-1.5 -11.5q91 34 185 44t191 10q38 0 61.5 -7t23.5 -36v-10t-2 -10l-175 -575q36 8 70.5 18t69.5 24q-1 17 -5 35t-4 35
q0 20 17.5 32.5t36.5 12.5q16 0 26 -9t15 -23q4 -11 6.5 -32.5t4 -46t2.5 -47t1 -35.5q0 -9 -1 -24t-4 -24zM570 961q0 -19 -14 -33l-159 -160q-13 -13 -31 -13q-11 0 -20 2.5t-17 10.5l-159 160q-14 14 -14 33q0 20 14.5 34t34.5 14q14 0 26 -8l132 -93l132 93q11 8 27 8
q20 0 34 -14t14 -34z" />
    <glyph glyph-name="agrave" unicode="&#xe0;" horiz-adv-x="696" 
d="M303 -1q-18 2 -30.5 16t-12.5 32q0 20 13.5 33t32.5 14q0 11 -2 22t-4 21l-108 10q-3 -11 -6.5 -21t-5.5 -21l18 -6t15.5 -7.5t10.5 -12.5t4 -21q0 -19 -11.5 -33.5t-31.5 -14.5q-32 0 -63 3.5t-63 6.5q-20 2 -31.5 16.5t-11.5 33.5q0 18 14.5 31.5t31.5 13.5
q5 0 11 -0.5t11 -1.5q13 50 27.5 98.5t32.5 96.5q40 107 94.5 206t122.5 190q16 20 42 20q14 0 25 -8q10 -8 24 -37t29.5 -68.5t31 -85.5t28.5 -87t22 -72.5t12 -43.5q16 -64 27 -127.5t19 -128.5q24 -2 41.5 -11t17.5 -38q0 -19 -13.5 -32.5t-33.5 -13.5zM283 235
q-5 26 -10.5 51.5t-12.5 51.5l-20 -48t-19 -49zM496 784q0 -20 -13.5 -32.5t-32.5 -12.5q-17 0 -32 10l-190 122q-21 15 -21 38q0 14 7 29t18.5 27.5t25.5 20.5t29 8q18 0 31 -13l161 -160q8 -8 12.5 -17t4.5 -20z" />
    <glyph glyph-name="aacute" unicode="&#xe1;" horiz-adv-x="696" 
d="M303 -1q-18 2 -30.5 16t-12.5 32q0 20 13.5 33t32.5 14q0 11 -2 22t-4 21l-108 10q-3 -11 -6.5 -21t-5.5 -21l18 -6t15.5 -7.5t10.5 -12.5t4 -21q0 -19 -11.5 -33.5t-31.5 -14.5q-32 0 -63 3.5t-63 6.5q-20 2 -31.5 16.5t-11.5 33.5q0 18 14.5 31.5t31.5 13.5
q5 0 11 -0.5t11 -1.5q13 50 27.5 98.5t32.5 96.5q40 107 94.5 206t122.5 190q16 20 42 20q14 0 25 -8q10 -8 24 -37t29.5 -68.5t31 -85.5t28.5 -87t22 -72.5t12 -43.5q16 -64 27 -127.5t19 -128.5q24 -2 41.5 -11t17.5 -38q0 -19 -13.5 -32.5t-33.5 -13.5zM283 235
q-5 26 -10.5 51.5t-12.5 51.5l-20 -48t-19 -49zM282 726q-19 0 -32.5 13.5t-13.5 32.5q0 11 5 20t12 16l161 160q13 13 31 13q15 0 29 -8t25.5 -20.5t18.5 -27.5t7 -29q0 -23 -21 -38l-190 -122q-15 -10 -32 -10z" />
    <glyph glyph-name="acircumflex" unicode="&#xe2;" horiz-adv-x="696" 
d="M303 -1q-18 2 -30.5 16t-12.5 32q0 20 13.5 33t32.5 14q0 11 -2 22t-4 21l-108 10q-3 -11 -6.5 -21t-5.5 -21l18 -6t15.5 -7.5t10.5 -12.5t4 -21q0 -19 -11.5 -33.5t-31.5 -14.5q-32 0 -63 3.5t-63 6.5q-20 2 -31.5 16.5t-11.5 33.5q0 18 14.5 31.5t31.5 13.5
q5 0 11 -0.5t11 -1.5q13 50 27.5 98.5t32.5 96.5q40 107 94.5 206t122.5 190q16 20 42 20q14 0 25 -8q10 -8 24 -37t29.5 -68.5t31 -85.5t28.5 -87t22 -72.5t12 -43.5q16 -64 27 -127.5t19 -128.5q24 -2 41.5 -11t17.5 -38q0 -19 -13.5 -32.5t-33.5 -13.5zM283 235
q-5 26 -10.5 51.5t-12.5 51.5l-20 -48t-19 -49zM555 695q-13 0 -26 8l-132 93l-132 -93q-11 -8 -27 -8q-20 0 -34 14t-14 34q0 19 14 33l159 160q13 13 31 13q11 0 20 -2.5t17 -10.5l159 -160q6 -6 10 -15.5t4 -18.5q0 -20 -14.5 -33.5t-34.5 -13.5z" />
    <glyph glyph-name="atilde" unicode="&#xe3;" horiz-adv-x="696" 
d="M303 -1q-18 2 -30.5 16t-12.5 32q0 20 13.5 33t32.5 14q0 11 -2 22t-4 21l-108 10q-3 -11 -6.5 -21t-5.5 -21l18 -6t15.5 -7.5t10.5 -12.5t4 -21q0 -19 -11.5 -33.5t-31.5 -14.5q-32 0 -63 3.5t-63 6.5q-20 2 -31.5 16.5t-11.5 33.5q0 18 14.5 31.5t31.5 13.5
q5 0 11 -0.5t11 -1.5q13 50 27.5 98.5t32.5 96.5q40 107 94.5 206t122.5 190q16 20 42 20q14 0 25 -8q10 -8 24 -37t29.5 -68.5t31 -85.5t28.5 -87t22 -72.5t12 -43.5q16 -64 27 -127.5t19 -128.5q24 -2 41.5 -11t17.5 -38q0 -19 -13.5 -32.5t-33.5 -13.5zM283 235
q-5 26 -10.5 51.5t-12.5 51.5l-20 -48t-19 -49zM488 728q-26 0 -54 13.5t-53 30t-44 30t-26 13.5q-18 0 -23 -12t-8.5 -26.5t-12 -26.5t-32.5 -12q-20 0 -34 14t-14 34q0 25 10 48t26.5 39.5t39 26.5t48.5 10q24 0 50 -13t49.5 -29t43 -29t29.5 -13q14 0 20 11.5t11 26
t13.5 26t28.5 11.5q48 0 48 -47q0 -23 -9 -45.5t-25 -40.5t-37 -29t-45 -11z" />
    <glyph glyph-name="adieresis" unicode="&#xe4;" horiz-adv-x="696" 
d="M303 -1q-18 2 -30.5 16t-12.5 32q0 20 13.5 33t32.5 14q0 11 -2 22t-4 21l-108 10q-3 -11 -6.5 -21t-5.5 -21l18 -6t15.5 -7.5t10.5 -12.5t4 -21q0 -19 -11.5 -33.5t-31.5 -14.5q-32 0 -63 3.5t-63 6.5q-20 2 -31.5 16.5t-11.5 33.5q0 18 14.5 31.5t31.5 13.5
q5 0 11 -0.5t11 -1.5q13 50 27.5 98.5t32.5 96.5q40 107 94.5 206t122.5 190q16 20 42 20q14 0 25 -8q10 -8 24 -37t29.5 -68.5t31 -85.5t28.5 -87t22 -72.5t12 -43.5q16 -64 27 -127.5t19 -128.5q24 -2 41.5 -11t17.5 -38q0 -19 -13.5 -32.5t-33.5 -13.5zM283 235
q-5 26 -10.5 51.5t-12.5 51.5l-20 -48t-19 -49zM379 812q0 -29 -20 -48.5t-49 -19.5t-48.5 19.5t-19.5 48.5t19.5 49t48.5 20t49 -20t20 -49zM537 812q0 -29 -20 -48.5t-49 -19.5q-28 0 -48.5 19.5t-20.5 48.5t20 49t49 20t49 -20t20 -49z" />
    <glyph glyph-name="aring" unicode="&#xe5;" horiz-adv-x="696" 
d="M303 -1q-18 2 -30.5 16t-12.5 32q0 20 13.5 33t32.5 14q0 11 -2 22t-4 21l-108 10q-3 -11 -6.5 -21t-5.5 -21l18 -6t15.5 -7.5t10.5 -12.5t4 -21q0 -19 -11.5 -33.5t-31.5 -14.5q-32 0 -63 3.5t-63 6.5q-20 2 -31.5 16.5t-11.5 33.5q0 18 14.5 31.5t31.5 13.5
q5 0 11 -0.5t11 -1.5q13 50 27.5 98.5t32.5 96.5q40 107 94.5 206t122.5 190q16 20 42 20q14 0 25 -8q10 -8 24 -37t29.5 -68.5t31 -85.5t28.5 -87t22 -72.5t12 -43.5q16 -64 27 -127.5t19 -128.5q24 -2 41.5 -11t17.5 -38q0 -19 -13.5 -32.5t-33.5 -13.5zM283 235
q-5 26 -10.5 51.5t-12.5 51.5l-20 -48t-19 -49zM502 781q0 -40 -27 -66.5t-67 -26.5q-39 0 -65.5 27t-26.5 66t26.5 66t65.5 27t66.5 -27t27.5 -66zM446 781q0 16 -10.5 27t-26.5 11t-27 -11t-11 -27t11 -27t27 -11t26.5 11t10.5 27z" />
    <glyph glyph-name="ccedilla" unicode="&#xe7;" horiz-adv-x="614" 
d="M598 616q0 -17 -1.5 -48.5t-8.5 -62t-22 -53.5t-43 -23q-18 0 -29.5 16t-11.5 33q0 15 5.5 31t7.5 32q-13 13 -27.5 29t-34.5 16q-23 0 -40 -22t-29 -56t-19 -76t-11.5 -81.5t-6 -72t-1.5 -48.5q0 -17 1 -41t7.5 -46t19.5 -37t37 -15q25 0 43 11t33.5 24.5t30.5 25
t35 11.5t32 -14.5t12 -33.5q0 -17 -12 -31q-48 -54 -110.5 -79.5t-133.5 -25.5t-127.5 29t-96 78t-60.5 113.5t-21 135.5q0 74 26.5 143t71.5 126q43 54 98.5 79.5t123.5 25.5q45 0 85 -11t78 -35q-2 10 -2 16q0 17 13 33.5t33 16.5t31 -11t16.5 -27.5t6.5 -36.5t1 -38z
M269 -227q-14 0 -34.5 4t-40.5 12t-34 20.5t-14 30.5q0 14 11.5 24.5t25.5 10.5q8 0 19.5 -4t25 -9t28 -9t29.5 -4q9 0 16 3t7 14q0 19 -19 19q-11 0 -22.5 -3.5t-23.5 -3.5q-17 0 -27.5 11.5t-10.5 27.5q0 7 8.5 23t19 33t21 31.5t13.5 20.5q11 19 33 19q12 0 25 -9t13 -23
t-7 -28.5t-15 -25.5q34 -8 51.5 -32.5t17.5 -59.5q0 -26 -9.5 -44t-25.5 -29t-37 -15.5t-44 -4.5z" />
    <glyph glyph-name="egrave" unicode="&#xe8;" horiz-adv-x="645" 
d="M629 620q0 -16 -2.5 -41t-9.5 -48.5t-20.5 -40.5t-34.5 -17q-19 0 -33.5 14.5t-14.5 33.5q0 13 5.5 28t7.5 29q-28 12 -57.5 20.5t-58.5 15.5q0 -43 -1.5 -85.5t-3.5 -85.5q6 -2 14.5 -4t13.5 -6q-2 2 -2 7v7q0 20 14.5 34t34.5 14q19 0 30 -11.5t16 -28.5t6 -35.5
t1 -33.5t-2 -42t-9.5 -53.5t-21.5 -45.5t-39 -19q-22 0 -33 16.5t-11 36.5q0 10 6.5 25.5t8.5 26.5l-34 14q-5 -65 -12.5 -130t-19.5 -129q30 1 60 5t59 10q1 5 1 14q0 12 -1.5 24.5t-1.5 26.5q0 20 14 31.5t33 11.5t29 -7.5t14.5 -19t5.5 -25.5t1 -28q0 -11 -1 -35.5
t-3 -51t-5.5 -49.5t-8.5 -31q-8 -11 -19.5 -20.5t-26.5 -9.5q-17 0 -32 12.5t-15 29.5q0 6 1 12.5t4 15.5l-70 -8t-71 -4q-70 0 -140.5 8.5t-139.5 22.5q-17 4 -27.5 18t-10.5 34q0 21 17 32t35 11q6 0 13.5 -2t13.5 -3q0 132 13.5 263t34.5 262q-7 0 -13.5 0.5t-14.5 0.5
q-17 0 -31.5 14t-14.5 32q0 25 16.5 37t39.5 12q103 0 204 -9t199 -43q0 24 14 38.5t31 14.5q21 0 32 -11t16.5 -28t6.5 -37t1 -37zM475 782q0 -20 -13.5 -32.5t-32.5 -12.5q-17 0 -32 10l-190 122q-21 15 -21 38q0 14 7 29t18.5 27.5t25.5 20.5t29 8q18 0 31 -13l161 -160
q8 -8 12.5 -17t4.5 -20z" />
    <glyph glyph-name="eacute" unicode="&#xe9;" horiz-adv-x="645" 
d="M629 620q0 -16 -2.5 -41t-9.5 -48.5t-20.5 -40.5t-34.5 -17q-19 0 -33.5 14.5t-14.5 33.5q0 13 5.5 28t7.5 29q-28 12 -57.5 20.5t-58.5 15.5q0 -43 -1.5 -85.5t-3.5 -85.5q6 -2 14.5 -4t13.5 -6q-2 2 -2 7v7q0 20 14.5 34t34.5 14q19 0 30 -11.5t16 -28.5t6 -35.5
t1 -33.5t-2 -42t-9.5 -53.5t-21.5 -45.5t-39 -19q-22 0 -33 16.5t-11 36.5q0 10 6.5 25.5t8.5 26.5l-34 14q-5 -65 -12.5 -130t-19.5 -129q30 1 60 5t59 10q1 5 1 14q0 12 -1.5 24.5t-1.5 26.5q0 20 14 31.5t33 11.5t29 -7.5t14.5 -19t5.5 -25.5t1 -28q0 -11 -1 -35.5
t-3 -51t-5.5 -49.5t-8.5 -31q-8 -11 -19.5 -20.5t-26.5 -9.5q-17 0 -32 12.5t-15 29.5q0 6 1 12.5t4 15.5l-70 -8t-71 -4q-70 0 -140.5 8.5t-139.5 22.5q-17 4 -27.5 18t-10.5 34q0 21 17 32t35 11q6 0 13.5 -2t13.5 -3q0 132 13.5 263t34.5 262q-7 0 -13.5 0.5t-14.5 0.5
q-17 0 -31.5 14t-14.5 32q0 25 16.5 37t39.5 12q103 0 204 -9t199 -43q0 24 14 38.5t31 14.5q21 0 32 -11t16.5 -28t6.5 -37t1 -37zM305 749q-19 0 -32.5 13.5t-13.5 32.5q0 11 5 20t12 16l161 160q13 13 31 13q15 0 29 -8t25.5 -20.5t18.5 -27.5t7 -29q0 -23 -21 -38
l-190 -122q-15 -10 -32 -10z" />
    <glyph glyph-name="ecircumflex" unicode="&#xea;" horiz-adv-x="645" 
d="M629 620q0 -16 -2.5 -41t-9.5 -48.5t-20.5 -40.5t-34.5 -17q-19 0 -33.5 14.5t-14.5 33.5q0 13 5.5 28t7.5 29q-28 12 -57.5 20.5t-58.5 15.5q0 -43 -1.5 -85.5t-3.5 -85.5q6 -2 14.5 -4t13.5 -6q-2 2 -2 7v7q0 20 14.5 34t34.5 14q19 0 30 -11.5t16 -28.5t6 -35.5
t1 -33.5t-2 -42t-9.5 -53.5t-21.5 -45.5t-39 -19q-22 0 -33 16.5t-11 36.5q0 10 6.5 25.5t8.5 26.5l-34 14q-5 -65 -12.5 -130t-19.5 -129q30 1 60 5t59 10q1 5 1 14q0 12 -1.5 24.5t-1.5 26.5q0 20 14 31.5t33 11.5t29 -7.5t14.5 -19t5.5 -25.5t1 -28q0 -11 -1 -35.5
t-3 -51t-5.5 -49.5t-8.5 -31q-8 -11 -19.5 -20.5t-26.5 -9.5q-17 0 -32 12.5t-15 29.5q0 6 1 12.5t4 15.5l-70 -8t-71 -4q-70 0 -140.5 8.5t-139.5 22.5q-17 4 -27.5 18t-10.5 34q0 21 17 32t35 11q6 0 13.5 -2t13.5 -3q0 132 13.5 263t34.5 262q-7 0 -13.5 0.5t-14.5 0.5
q-17 0 -31.5 14t-14.5 32q0 25 16.5 37t39.5 12q103 0 204 -9t199 -43q0 24 14 38.5t31 14.5q21 0 32 -11t16.5 -28t6.5 -37t1 -37zM512 747q-13 0 -26 8l-132 93l-132 -93q-11 -8 -27 -8q-20 0 -34 14t-14 34q0 19 14 33l159 160q13 13 31 13q11 0 20 -2.5t17 -10.5
l159 -160q6 -6 10 -15.5t4 -18.5q0 -20 -14.5 -33.5t-34.5 -13.5z" />
    <glyph glyph-name="edieresis" unicode="&#xeb;" horiz-adv-x="645" 
d="M629 620q0 -16 -2.5 -41t-9.5 -48.5t-20.5 -40.5t-34.5 -17q-19 0 -33.5 14.5t-14.5 33.5q0 13 5.5 28t7.5 29q-28 12 -57.5 20.5t-58.5 15.5q0 -43 -1.5 -85.5t-3.5 -85.5q6 -2 14.5 -4t13.5 -6q-2 2 -2 7v7q0 20 14.5 34t34.5 14q19 0 30 -11.5t16 -28.5t6 -35.5
t1 -33.5t-2 -42t-9.5 -53.5t-21.5 -45.5t-39 -19q-22 0 -33 16.5t-11 36.5q0 10 6.5 25.5t8.5 26.5l-34 14q-5 -65 -12.5 -130t-19.5 -129q30 1 60 5t59 10q1 5 1 14q0 12 -1.5 24.5t-1.5 26.5q0 20 14 31.5t33 11.5t29 -7.5t14.5 -19t5.5 -25.5t1 -28q0 -11 -1 -35.5
t-3 -51t-5.5 -49.5t-8.5 -31q-8 -11 -19.5 -20.5t-26.5 -9.5q-17 0 -32 12.5t-15 29.5q0 6 1 12.5t4 15.5l-70 -8t-71 -4q-70 0 -140.5 8.5t-139.5 22.5q-17 4 -27.5 18t-10.5 34q0 21 17 32t35 11q6 0 13.5 -2t13.5 -3q0 132 13.5 263t34.5 262q-7 0 -13.5 0.5t-14.5 0.5
q-17 0 -31.5 14t-14.5 32q0 25 16.5 37t39.5 12q103 0 204 -9t199 -43q0 24 14 38.5t31 14.5q21 0 32 -11t16.5 -28t6.5 -37t1 -37zM347 817q0 -29 -20 -48.5t-49 -19.5t-48.5 19.5t-19.5 48.5t19.5 49t48.5 20t49 -20t20 -49zM505 817q0 -29 -20 -48.5t-49 -19.5
q-28 0 -48.5 19.5t-20.5 48.5t20 49t49 20t49 -20t20 -49z" />
    <glyph glyph-name="igrave" unicode="&#xec;" horiz-adv-x="468" 
d="M389 617q-2 -136 -12.5 -269.5t-33.5 -267.5h7q17 0 31.5 -14t14.5 -31q0 -18 -8.5 -29t-22 -16.5t-30 -7t-32.5 -1.5q-78 0 -138.5 7.5t-113.5 23.5q-15 5 -25 17.5t-10 28.5q0 21 13.5 34.5t33.5 13.5q7 0 10 -1q0 134 12 267t35 266h-4q-18 0 -31.5 14t-13.5 32
q0 20 12.5 31t32 16t43.5 6t47 1q28 0 70 -1.5t81 -8.5t67 -23t28 -44q0 -22 -15 -34t-35 -12q-5 0 -13 2zM383 804q0 -20 -13.5 -32.5t-32.5 -12.5q-17 0 -32 10l-190 122q-21 15 -21 38q0 14 7 29t18.5 27.5t25.5 20.5t29 8q18 0 31 -13l161 -160q8 -8 12.5 -17t4.5 -20z
" />
    <glyph glyph-name="iacute" unicode="&#xed;" horiz-adv-x="468" 
d="M389 617q-2 -136 -12.5 -269.5t-33.5 -267.5h7q17 0 31.5 -14t14.5 -31q0 -18 -8.5 -29t-22 -16.5t-30 -7t-32.5 -1.5q-78 0 -138.5 7.5t-113.5 23.5q-15 5 -25 17.5t-10 28.5q0 21 13.5 34.5t33.5 13.5q7 0 10 -1q0 134 12 267t35 266h-4q-18 0 -31.5 14t-13.5 32
q0 20 12.5 31t32 16t43.5 6t47 1q28 0 70 -1.5t81 -8.5t67 -23t28 -44q0 -22 -15 -34t-35 -12q-5 0 -13 2zM193 762q-19 0 -32.5 13.5t-13.5 32.5q0 11 5 20t12 16l161 160q13 13 31 13q15 0 29 -8t25.5 -20.5t18.5 -27.5t7 -29q0 -23 -21 -38l-190 -122q-15 -10 -32 -10z
" />
    <glyph glyph-name="icircumflex" unicode="&#xee;" horiz-adv-x="468" 
d="M389 617q-2 -136 -12.5 -269.5t-33.5 -267.5h7q17 0 31.5 -14t14.5 -31q0 -18 -8.5 -29t-22 -16.5t-30 -7t-32.5 -1.5q-78 0 -138.5 7.5t-113.5 23.5q-15 5 -25 17.5t-10 28.5q0 21 13.5 34.5t33.5 13.5q7 0 10 -1q0 134 12 267t35 266h-4q-18 0 -31.5 14t-13.5 32
q0 20 12.5 31t32 16t43.5 6t47 1q28 0 70 -1.5t81 -8.5t67 -23t28 -44q0 -22 -15 -34t-35 -12q-5 0 -13 2zM431 766q-13 0 -26 8l-132 93l-132 -93q-11 -8 -27 -8q-20 0 -34 14t-14 34q0 19 14 33l159 160q13 13 31 13q11 0 20 -2.5t17 -10.5l159 -160q6 -6 10 -15.5
t4 -18.5q0 -20 -14.5 -33.5t-34.5 -13.5z" />
    <glyph glyph-name="idieresis" unicode="&#xef;" horiz-adv-x="468" 
d="M389 617q-2 -136 -12.5 -269.5t-33.5 -267.5h7q17 0 31.5 -14t14.5 -31q0 -18 -8.5 -29t-22 -16.5t-30 -7t-32.5 -1.5q-78 0 -138.5 7.5t-113.5 23.5q-15 5 -25 17.5t-10 28.5q0 21 13.5 34.5t33.5 13.5q7 0 10 -1q0 134 12 267t35 266h-4q-18 0 -31.5 14t-13.5 32
q0 20 12.5 31t32 16t43.5 6t47 1q28 0 70 -1.5t81 -8.5t67 -23t28 -44q0 -22 -15 -34t-35 -12q-5 0 -13 2zM266 836q0 -29 -20 -48.5t-49 -19.5t-48.5 19.5t-19.5 48.5t19.5 49t48.5 20t49 -20t20 -49zM424 836q0 -29 -20 -48.5t-49 -19.5q-28 0 -48.5 19.5t-20.5 48.5
t20 49t49 20t49 -20t20 -49z" />
    <glyph glyph-name="ntilde" unicode="&#xf1;" horiz-adv-x="749" 
d="M687 608q-12 0 -22.5 2.5t-21.5 4.5q-1 -148 -13 -298t-41 -296q-4 -18 -18.5 -28.5t-37.5 -10.5q-12 0 -37.5 0.5t-52 4t-48 10.5t-25.5 20q-11 30 -21.5 60t-21.5 59q-29 78 -61 154t-58 154q-9 -87 -14.5 -172t-5.5 -172h25q20 0 38 -11t18 -34q0 -32 -20 -42t-45 -10
q-39 0 -74.5 3t-80.5 14q-18 5 -25.5 20t-7.5 29q0 22 15.5 34t35.5 12q5 0 12.5 -0.5t12.5 -2.5q3 139 15 272.5t34 270.5q-7 -1 -14.5 -2t-14.5 -1q-19 0 -33 13t-14 33q0 18 10 29t25 16.5t33.5 7t35.5 1.5q83 0 149 -21t113 -58.5t75.5 -89t37.5 -113.5q2 38 2.5 75
t1.5 75q-5 0 -11 -0.5t-11 -0.5q-20 0 -34 13t-14 33q0 33 20 42t47 9q13 0 40 -1t55.5 -4.5t52.5 -10t31 -16.5q9 -13 9 -33q0 -18 -14.5 -30.5t-31.5 -12.5zM500 750q-26 0 -54 13.5t-53 30t-44 30t-26 13.5q-18 0 -23 -12t-8.5 -26.5t-12 -26.5t-32.5 -12q-20 0 -34 14
t-14 34q0 25 10 48t26.5 39.5t39 26.5t48.5 10q24 0 50 -13t49.5 -29t43 -29t29.5 -13q14 0 20 11.5t11 26t13.5 26t28.5 11.5q48 0 48 -47q0 -23 -9 -45.5t-25 -40.5t-37 -29t-45 -11z" />
    <glyph glyph-name="ograve" unicode="&#xf2;" 
d="M380 -13q-86 0 -154 29.5t-114.5 79t-71 114t-24.5 135.5q0 76 23 145.5t66.5 123t107 85t145.5 31.5q73 0 137.5 -30.5t112 -81t75 -117t27.5 -138.5q0 -71 -24.5 -139t-68 -120.5t-104.5 -84.5t-133 -32zM311 77q16 0 31.5 32.5t28.5 83t24 112t18.5 119.5t12 105
t4.5 69q0 14 -3.5 27t-20.5 13q-14 0 -28 -31.5t-26.5 -80.5t-24 -108.5t-19.5 -114t-12.5 -97.5t-4.5 -60q0 -5 0.5 -16t2.5 -23t6 -21t11 -9zM444 804q0 -20 -13.5 -32.5t-32.5 -12.5q-17 0 -32 10l-190 122q-21 15 -21 38q0 14 7 29t18.5 27.5t25.5 20.5t29 8
q18 0 31 -13l161 -160q8 -8 12.5 -17t4.5 -20z" />
    <glyph glyph-name="oacute" unicode="&#xf3;" 
d="M380 -13q-86 0 -154 29.5t-114.5 79t-71 114t-24.5 135.5q0 76 23 145.5t66.5 123t107 85t145.5 31.5q73 0 137.5 -30.5t112 -81t75 -117t27.5 -138.5q0 -71 -24.5 -139t-68 -120.5t-104.5 -84.5t-133 -32zM311 77q16 0 31.5 32.5t28.5 83t24 112t18.5 119.5t12 105
t4.5 69q0 14 -3.5 27t-20.5 13q-14 0 -28 -31.5t-26.5 -80.5t-24 -108.5t-19.5 -114t-12.5 -97.5t-4.5 -60q0 -5 0.5 -16t2.5 -23t6 -21t11 -9zM322 760q-19 0 -32.5 13.5t-13.5 32.5q0 11 5 20t12 16l161 160q13 13 31 13q15 0 29 -8t25.5 -20.5t18.5 -27.5t7 -29
q0 -23 -21 -38l-190 -122q-15 -10 -32 -10z" />
    <glyph glyph-name="ocircumflex" unicode="&#xf4;" 
d="M380 -13q-86 0 -154 29.5t-114.5 79t-71 114t-24.5 135.5q0 76 23 145.5t66.5 123t107 85t145.5 31.5q73 0 137.5 -30.5t112 -81t75 -117t27.5 -138.5q0 -71 -24.5 -139t-68 -120.5t-104.5 -84.5t-133 -32zM311 77q16 0 31.5 32.5t28.5 83t24 112t18.5 119.5t12 105
t4.5 69q0 14 -3.5 27t-20.5 13q-14 0 -28 -31.5t-26.5 -80.5t-24 -108.5t-19.5 -114t-12.5 -97.5t-4.5 -60q0 -5 0.5 -16t2.5 -23t6 -21t11 -9zM492 751q-13 0 -26 8l-132 93l-132 -93q-11 -8 -27 -8q-20 0 -34 14t-14 34q0 19 14 33l159 160q13 13 31 13q11 0 20 -2.5
t17 -10.5l159 -160q6 -6 10 -15.5t4 -18.5q0 -20 -14.5 -33.5t-34.5 -13.5z" />
    <glyph glyph-name="otilde" unicode="&#xf5;" 
d="M380 -13q-86 0 -154 29.5t-114.5 79t-71 114t-24.5 135.5q0 76 23 145.5t66.5 123t107 85t145.5 31.5q73 0 137.5 -30.5t112 -81t75 -117t27.5 -138.5q0 -71 -24.5 -139t-68 -120.5t-104.5 -84.5t-133 -32zM311 77q16 0 31.5 32.5t28.5 83t24 112t18.5 119.5t12 105
t4.5 69q0 14 -3.5 27t-20.5 13q-14 0 -28 -31.5t-26.5 -80.5t-24 -108.5t-19.5 -114t-12.5 -97.5t-4.5 -60q0 -5 0.5 -16t2.5 -23t6 -21t11 -9zM419 756q-26 0 -54 13.5t-53 30t-44 30t-26 13.5q-18 0 -23 -12t-8.5 -26.5t-12 -26.5t-32.5 -12q-20 0 -34 14t-14 34
q0 25 10 48t26.5 39.5t39 26.5t48.5 10q24 0 50 -13t49.5 -29t43 -29t29.5 -13q14 0 20 11.5t11 26t13.5 26t28.5 11.5q48 0 48 -47q0 -23 -9 -45.5t-25 -40.5t-37 -29t-45 -11z" />
    <glyph glyph-name="odieresis" unicode="&#xf6;" 
d="M380 -13q-86 0 -154 29.5t-114.5 79t-71 114t-24.5 135.5q0 76 23 145.5t66.5 123t107 85t145.5 31.5q73 0 137.5 -30.5t112 -81t75 -117t27.5 -138.5q0 -71 -24.5 -139t-68 -120.5t-104.5 -84.5t-133 -32zM311 77q16 0 31.5 32.5t28.5 83t24 112t18.5 119.5t12 105
t4.5 69q0 14 -3.5 27t-20.5 13q-14 0 -28 -31.5t-26.5 -80.5t-24 -108.5t-19.5 -114t-12.5 -97.5t-4.5 -60q0 -5 0.5 -16t2.5 -23t6 -21t11 -9zM300 833q0 -29 -20 -48.5t-49 -19.5t-48.5 19.5t-19.5 48.5t19.5 49t48.5 20t49 -20t20 -49zM458 833q0 -29 -20 -48.5
t-49 -19.5q-28 0 -48.5 19.5t-20.5 48.5t20 49t49 20t49 -20t20 -49z" />
    <glyph glyph-name="scaron" unicode="&#x161;" horiz-adv-x="663" 
d="M533 480q-20 0 -36.5 11.5t-16.5 34.5q0 14 5.5 23.5t13.5 20.5q-13 15 -25 27.5t-25.5 21.5t-30 14t-38.5 5q-16 0 -31.5 -11t-15.5 -28q0 -13 10 -26t24.5 -25t29.5 -22.5t25 -18.5q33 -29 63.5 -59.5t58.5 -63.5q29 -35 42 -74.5t13 -84.5q0 -56 -24 -100.5t-63 -76
t-89 -48t-102 -16.5h-7q-24 0 -51.5 3t-55 9.5t-53 16t-45.5 22.5q-5 -14 -18 -22t-27 -8q-18 0 -33 12.5t-15 31.5q0 17 2.5 51.5t10 69.5t22.5 61.5t41 26.5q23 0 35 -15.5t12 -37.5q0 -3 -2 -12t-5 -18.5l-6 -19t-4 -14.5q29 -24 62.5 -40.5t72.5 -16.5q27 0 43 21.5
t16 46.5q0 22 -18.5 45.5t-47 50.5t-61 57.5t-61 66.5t-47 77t-18.5 89q0 55 21.5 94.5t56.5 64.5t81 36.5t95 11.5q29 0 60 -5.5t61 -16t57.5 -26t48.5 -35.5q5 10 8.5 20t9 18.5t14 13.5t23.5 5q19 0 33.5 -14t14.5 -33q0 -13 -12 -44.5t-29.5 -64.5t-37.5 -58t-35 -25z
M528 986q0 -19 -14 -33l-159 -160q-13 -13 -31 -13q-11 0 -20 2.5t-17 10.5l-159 160q-14 14 -14 33q0 20 14.5 34t34.5 14q14 0 26 -8l132 -93l132 93q11 8 27 8q20 0 34 -14t14 -34z" />
    <glyph glyph-name="ugrave" unicode="&#xf9;" horiz-adv-x="688" 
d="M625 610q-8 0 -16 1.5t-16 2.5q5 -57 9 -113.5t4 -113.5q0 -48 -4.5 -97.5t-16.5 -95.5t-32.5 -86.5t-52 -70.5t-75.5 -47.5t-103 -17.5q-77 0 -134 23t-94 66t-55 104.5t-18 138.5q0 88 15.5 173.5t35.5 170.5h-7q-22 0 -35.5 11.5t-13.5 34.5q0 18 8 28.5t21 16.5
t29 7.5t32 1.5q69 0 139 -5.5t140 -27.5q28 -8 33 -37q5 27 23.5 33t41.5 6q15 0 46.5 -1t63 -7t55.5 -19t24 -37q0 -20 -14 -31.5t-33 -11.5zM497 621q-9 0 -18 -0.5t-17 -0.5q-17 0 -28.5 12t-15.5 27q-5 -18 -19 -27.5t-34 -9.5q-6 -48 -15 -95.5t-17.5 -95.5t-14 -96
t-5.5 -97q0 -17 2.5 -43.5t10.5 -52t22 -44t38 -18.5q29 0 49 18t34 46.5t22 63.5t12.5 69.5t5.5 65t1 48.5q0 58 -4 115t-9 115zM451 792q0 -20 -13.5 -32.5t-32.5 -12.5q-17 0 -32 10l-190 122q-21 15 -21 38q0 14 7 29t18.5 27.5t25.5 20.5t29 8q18 0 31 -13l161 -160
q8 -8 12.5 -17t4.5 -20z" />
    <glyph glyph-name="uacute" unicode="&#xfa;" horiz-adv-x="688" 
d="M625 610q-8 0 -16 1.5t-16 2.5q5 -57 9 -113.5t4 -113.5q0 -48 -4.5 -97.5t-16.5 -95.5t-32.5 -86.5t-52 -70.5t-75.5 -47.5t-103 -17.5q-77 0 -134 23t-94 66t-55 104.5t-18 138.5q0 88 15.5 173.5t35.5 170.5h-7q-22 0 -35.5 11.5t-13.5 34.5q0 18 8 28.5t21 16.5
t29 7.5t32 1.5q69 0 139 -5.5t140 -27.5q28 -8 33 -37q5 27 23.5 33t41.5 6q15 0 46.5 -1t63 -7t55.5 -19t24 -37q0 -20 -14 -31.5t-33 -11.5zM497 621q-9 0 -18 -0.5t-17 -0.5q-17 0 -28.5 12t-15.5 27q-5 -18 -19 -27.5t-34 -9.5q-6 -48 -15 -95.5t-17.5 -95.5t-14 -96
t-5.5 -97q0 -17 2.5 -43.5t10.5 -52t22 -44t38 -18.5q29 0 49 18t34 46.5t22 63.5t12.5 69.5t5.5 65t1 48.5q0 58 -4 115t-9 115zM313 761q-19 0 -32.5 13.5t-13.5 32.5q0 11 5 20t12 16l161 160q13 13 31 13q15 0 29 -8t25.5 -20.5t18.5 -27.5t7 -29q0 -23 -21 -38
l-190 -122q-15 -10 -32 -10z" />
    <glyph glyph-name="ucircumflex" unicode="&#xfb;" horiz-adv-x="688" 
d="M625 610q-8 0 -16 1.5t-16 2.5q5 -57 9 -113.5t4 -113.5q0 -48 -4.5 -97.5t-16.5 -95.5t-32.5 -86.5t-52 -70.5t-75.5 -47.5t-103 -17.5q-77 0 -134 23t-94 66t-55 104.5t-18 138.5q0 88 15.5 173.5t35.5 170.5h-7q-22 0 -35.5 11.5t-13.5 34.5q0 18 8 28.5t21 16.5
t29 7.5t32 1.5q69 0 139 -5.5t140 -27.5q28 -8 33 -37q5 27 23.5 33t41.5 6q15 0 46.5 -1t63 -7t55.5 -19t24 -37q0 -20 -14 -31.5t-33 -11.5zM497 621q-9 0 -18 -0.5t-17 -0.5q-17 0 -28.5 12t-15.5 27q-5 -18 -19 -27.5t-34 -9.5q-6 -48 -15 -95.5t-17.5 -95.5t-14 -96
t-5.5 -97q0 -17 2.5 -43.5t10.5 -52t22 -44t38 -18.5q29 0 49 18t34 46.5t22 63.5t12.5 69.5t5.5 65t1 48.5q0 58 -4 115t-9 115zM548 752q-13 0 -26 8l-132 93l-132 -93q-11 -8 -27 -8q-20 0 -34 14t-14 34q0 19 14 33l159 160q13 13 31 13q11 0 20 -2.5t17 -10.5l159 -160
q6 -6 10 -15.5t4 -18.5q0 -20 -14.5 -33.5t-34.5 -13.5z" />
    <glyph glyph-name="udieresis" unicode="&#xfc;" horiz-adv-x="688" 
d="M625 610q-8 0 -16 1.5t-16 2.5q5 -57 9 -113.5t4 -113.5q0 -48 -4.5 -97.5t-16.5 -95.5t-32.5 -86.5t-52 -70.5t-75.5 -47.5t-103 -17.5q-77 0 -134 23t-94 66t-55 104.5t-18 138.5q0 88 15.5 173.5t35.5 170.5h-7q-22 0 -35.5 11.5t-13.5 34.5q0 18 8 28.5t21 16.5
t29 7.5t32 1.5q69 0 139 -5.5t140 -27.5q28 -8 33 -37q5 27 23.5 33t41.5 6q15 0 46.5 -1t63 -7t55.5 -19t24 -37q0 -20 -14 -31.5t-33 -11.5zM497 621q-9 0 -18 -0.5t-17 -0.5q-17 0 -28.5 12t-15.5 27q-5 -18 -19 -27.5t-34 -9.5q-6 -48 -15 -95.5t-17.5 -95.5t-14 -96
t-5.5 -97q0 -17 2.5 -43.5t10.5 -52t22 -44t38 -18.5q29 0 49 18t34 46.5t22 63.5t12.5 69.5t5.5 65t1 48.5q0 58 -4 115t-9 115zM387 828q0 -29 -20 -48.5t-49 -19.5t-48.5 19.5t-19.5 48.5t19.5 49t48.5 20t49 -20t20 -49zM545 828q0 -29 -20 -48.5t-49 -19.5
q-28 0 -48.5 19.5t-20.5 48.5t20 49t49 20t49 -20t20 -49z" />
    <glyph glyph-name="yacute" unicode="&#xfd;" 
d="M648 619q-7 -43 -24.5 -87t-40 -87t-48 -83.5t-49.5 -76.5q-6 -54 -12.5 -106t-14.5 -106q21 0 36.5 -10.5t15.5 -33.5q0 -18 -8.5 -28t-21.5 -15.5t-27.5 -7t-27.5 -1.5q-50 0 -102.5 1.5t-95.5 9t-70 23.5t-27 45q0 21 17.5 32t39.5 11q1 102 9 204l-122 361
q-22 0 -40.5 9.5t-18.5 35.5q0 18 6 28t16 15t22.5 6t25.5 1h19q72 0 147 -6t144 -23q17 -5 25.5 -18t8.5 -30q0 -14 -4 -22.5t-21 -17.5l60 -175q14 38 29.5 75t15.5 79q0 6 -2 9q-20 0 -36.5 12.5t-16.5 34.5q0 32 20.5 40t46.5 8q23 0 55.5 -1t62 -7t50 -18t20.5 -34
q0 -19 -13.5 -33.5t-34.5 -14.5q-3 0 -7 1t-7 1zM357 766q-19 0 -32.5 13.5t-13.5 32.5q0 11 5 20t12 16l161 160q13 13 31 13q15 0 29 -8t25.5 -20.5t18.5 -27.5t7 -29q0 -23 -21 -38l-190 -122q-15 -10 -32 -10z" />
    <glyph glyph-name="ydieresis" unicode="&#xff;" 
d="M648 619q-7 -43 -24.5 -87t-40 -87t-48 -83.5t-49.5 -76.5q-6 -54 -12.5 -106t-14.5 -106q21 0 36.5 -10.5t15.5 -33.5q0 -18 -8.5 -28t-21.5 -15.5t-27.5 -7t-27.5 -1.5q-50 0 -102.5 1.5t-95.5 9t-70 23.5t-27 45q0 21 17.5 32t39.5 11q1 102 9 204l-122 361
q-22 0 -40.5 9.5t-18.5 35.5q0 18 6 28t16 15t22.5 6t25.5 1h19q72 0 147 -6t144 -23q17 -5 25.5 -18t8.5 -30q0 -14 -4 -22.5t-21 -17.5l60 -175q14 38 29.5 75t15.5 79q0 6 -2 9q-20 0 -36.5 12.5t-16.5 34.5q0 32 20.5 40t46.5 8q23 0 55.5 -1t62 -7t50 -18t20.5 -34
q0 -19 -13.5 -33.5t-34.5 -14.5q-3 0 -7 1t-7 1zM415 835q0 -29 -20 -48.5t-49 -19.5t-48.5 19.5t-19.5 48.5t19.5 49t48.5 20t49 -20t20 -49zM573 835q0 -29 -20 -48.5t-49 -19.5q-28 0 -48.5 19.5t-20.5 48.5t20 49t49 20t49 -20t20 -49z" />
    <glyph glyph-name="zcaron" unicode="&#x17e;" horiz-adv-x="636" 
d="M342 89q37 1 74 4.5t73 11.5q1 14 1 28v28q0 26 15.5 38.5t36.5 12.5q19 0 31.5 -12t12.5 -31q0 -32 -1.5 -72.5t-8.5 -76t-22.5 -59.5t-43.5 -24q-17 0 -31 12.5t-14 29.5q0 8 3 14t5 13q-36 -6 -72 -8.5t-73 -2.5q-69 0 -138.5 8t-137.5 22q-16 3 -26 13.5t-10 27.5
q0 8 1 15t5 14q70 135 142 268t144 267h-24q-35 0 -69 -4.5t-68 -11.5q0 -7 -0.5 -25t-0.5 -33q0 -27 -15 -38t-37 -11q-25 0 -35 16.5t-10 38.5q0 15 0.5 37t2.5 47t6.5 49t13 44t21.5 32t32 12q17 0 31 -12t14 -30q0 -7 -2.5 -13t-5.5 -15q36 7 73 10t74 3
q68 0 138.5 -8.5t136.5 -23.5q17 -4 26.5 -15.5t9.5 -28.5q0 -14 -6 -26l-272 -535v0zM572 965q0 -19 -14 -33l-159 -160q-13 -13 -31 -13q-11 0 -20 2.5t-17 10.5l-159 160q-14 14 -14 33q0 20 14.5 34t34.5 14q14 0 26 -8l132 -93l132 93q11 8 27 8q20 0 34 -14t14 -34z
" />
    <glyph glyph-name="space" unicode=" " horiz-adv-x="311" 
 />
    <glyph glyph-name="trademark" unicode="&#x2122;" horiz-adv-x="713" 
d="M282 685q-18 0 -18 22v10t1 10q-23 5 -44 6q10 -57 15.5 -114t5.5 -114q2 1 6 1q8 0 14 -5.5t6 -13.5q0 -12 -13 -18.5t-31 -10t-36 -4t-27 -0.5q-6 0 -15.5 0.5t-18 2.5t-15 6t-6.5 12q0 19 21 21q-11 57 -15 113.5t-5 113.5l-20 -6t-20 -8l4 -12t2 -12q0 -8 -6 -14.5
t-14 -6.5q-10 0 -15.5 7.5t-8.5 18t-4 21.5t-1 18t0.5 15t2.5 15t7.5 12t14.5 5q8 0 13 -7.5t5 -15.5q31 11 62.5 16.5t64.5 5.5q16 0 32 -1.5t32 -3.5q-1 1 -1 4q0 9 6 15.5t15 6.5t14.5 -8t9 -19t4.5 -22.5t1 -18.5q0 -14 -3.5 -28.5t-21.5 -14.5zM663 707
q0 -58 -5 -115.5t-14 -114.5q10 0 15.5 -6t5.5 -13q0 -16 -12 -19.5t-26 -3.5q-13 0 -31.5 1t-36.5 3.5t-33 6.5t-19 10q-4 5 -4 13q0 10 6.5 14.5t14.5 4.5q2 0 2.5 -0.5t2.5 -0.5q0 23 1 44.5t3 43.5q-12 -28 -26 -55.5t-28 -53.5q-4 -7 -14 -8.5t-17 -1.5q-8 0 -17.5 3
t-12.5 11q-15 38 -25.5 77t-20.5 77q-6 -62 -6 -124h10q8 0 14 -5.5t6 -13.5q0 -13 -7 -17.5t-18 -4.5q-34 0 -69 8q-8 2 -11 7.5t-3 13.5q0 9 7 14t15 5q5 0 15 -2q0 58 5.5 116t15.5 115q-3 0 -6 -0.5t-5 -0.5q-10 0 -15 6t-5 15t6 13.5t15 6t20.5 2t23.5 0.5q8 0 23 -0.5
t30 -3.5t27.5 -8.5t15.5 -14.5q5 -16 9 -32.5t9 -32.5q4 -17 7 -33t6 -33q10 24 19 48t18 49q-8 1 -12.5 6.5t-4.5 12.5q0 16 14.5 19.5t28.5 3.5q33 0 58 -2.5t46 -9.5q15 -5 15 -22q0 -8 -6 -13t-14 -5h-6z" />
    <glyph glyph-name="ordfeminine" unicode="&#xaa;" horiz-adv-x="440" 
d="M193 362q-11 2 -18 10t-7 19t8 19t19 8q0 7 -1 13.5t-2 12.5l-64 5l-7 -24q11 -5 19.5 -8.5t8.5 -19.5q0 -11 -7 -19.5t-18 -8.5q-19 0 -37.5 2t-36.5 4q-12 1 -19 9.5t-7 19.5t8.5 19t19.5 8q4 0 12 -2q8 29 16.5 58t19.5 57q23 63 55.5 121t72.5 112q9 12 24 12
q8 0 15 -5q6 -4 14.5 -21t17.5 -40.5t18 -50.5t16.5 -51.5t13 -43t7.5 -25.5q18 -75 27 -150q14 -1 24.5 -6.5t10.5 -22.5q0 -11 -8 -19t-20 -8zM182 501q-3 16 -6.5 31t-7.5 30q-6 -14 -12 -28.5t-11 -28.5z" />
    <glyph glyph-name="ordmasculine" unicode="&#xba;" horiz-adv-x="446" 
d="M233 359q-50 0 -88.5 16.5t-65.5 45t-41 65.5t-14 78q0 43 13 83t38 70.5t61.5 48.5t83.5 18q42 0 79 -17.5t64 -46.5t43 -67t16 -79t-14 -79.5t-39 -68.5t-60 -48.5t-76 -18.5zM193 410q9 0 18 18.5t16.5 47.5t13.5 64.5t10.5 68.5t7 60t2.5 40q0 8 -2 15.5t-11 7.5
q-8 0 -16 -18t-15.5 -46.5t-13.5 -62t-11 -65t-7.5 -56t-2.5 -34.5q0 -3 0.5 -9.5t1.5 -13t3 -12t6 -5.5z" />
    <glyph glyph-name="exclam" unicode="!" horiz-adv-x="402" 
d="M320 71q0 -21 -12 -36.5t-29.5 -25.5t-38 -15t-38.5 -5t-38.5 5t-38 15t-29 25.5t-11.5 36.5t11.5 36.5t29 25.5t38 15t38.5 5t38.5 -5t38 -15t29.5 -25.5t12 -36.5zM195 188q-12 0 -23.5 1.5t-21.5 6t-17 12.5t-9 22l-60 351q-22 0 -35 15t-13 37q0 17 16.5 31t42 25
t57 18.5t61.5 12.5t55 7.5t39 2.5h12q15 0 30.5 -1t28 -6.5t20.5 -16.5t8 -31q0 -5 -6 -37t-15.5 -78t-20.5 -99.5t-21.5 -101.5t-18 -84t-9.5 -47q-3 -14 -11 -22t-19 -12t-24 -5t-25 -1h-21z" />
    </font>
</defs>
</svg>
